SplineFontDB: 3.0
FontName: Lohit-Bengali
FullName: Lohit Bengali
FamilyName: Lohit Bengali
Weight: Book
Copyright: Copyright 2011-15 Lohit Fonts Project contributors.\n<http://fedorahosted.org/lohit>\nOpen type tables written by:\nPravin Satpute <psatpute AT redhat DOT com>\nSneha Kore <skore AT redhat DOT com> and Shilpa Gite <sgite AT redhat DOT com>\n\n   Licensed under the SIL Open Font License 1.1 (see file OFL.txt)
Version: 2.91.5
ItalicAngle: 0
UnderlinePosition: -300
UnderlineWidth: 20
Ascent: 615
Descent: 154
InvalidEm: 0
sfntRevision: 0x00028000
LayerCount: 2
Layer: 0 1 "Back" 1
Layer: 1 1 "Fore" 0
XUID: [1021 648 100124046 5181693]
FSType: 0
OS2Version: 1
OS2_WeightWidthSlopeOnly: 0
OS2_UseTypoMetrics: 1
CreationTime: 1163146539
ModificationTime: 1442831794
PfmFamily: 17
TTFWeight: 400
TTFWidth: 5
LineGap: 200
VLineGap: 0
Panose: 2 11 6 0 0 0 0 0 0 0
OS2TypoAscent: 135
OS2TypoAOffset: 1
OS2TypoDescent: -120
OS2TypoDOffset: 1
OS2TypoLinegap: 0
OS2WinAscent: 0
OS2WinAOffset: 1
OS2WinDescent: 0
OS2WinDOffset: 1
HheadAscent: 0
HheadAOffset: 1
HheadDescent: 0
HheadDOffset: 1
OS2SubXSize: 700
OS2SubYSize: 650
OS2SubXOff: 0
OS2SubYOff: 200
OS2SupXSize: 700
OS2SupYSize: 650
OS2SupXOff: 0
OS2SupYOff: 500
OS2StrikeYSize: 50
OS2StrikeYPos: 250
OS2Vendor: 'ACE '
Lookup: 4 0 0 "'haln' Halant Forms lookup 11" { "'haln' Halant Forms lookup 11-1"  } ['haln' ('beng' <'dflt' > 'bng2' <'dflt' > ) ]
Lookup: 4 0 0 "nuktNuktaFormslookup2" { "nuktNuktaFormslookup2 subtable"  } ['nukt' ('bng2' <'dflt' > 'beng' <'dflt' > ) ]
Lookup: 4 0 0 "akhnAkhandlookup2" { "akhnAkhandlookup2 subtable"  } ['akhn' ('bng2' <'dflt' > 'beng' <'dflt' > ) ]
Lookup: 4 0 0 "rphfRephFormlookup3" { "rphfRephFormlookup3 subtable"  } ['rphf' ('bng2' <'dflt' > 'beng' <'dflt' > ) ]
Lookup: 4 0 0 "blwfBelowBaseFormslookup4" { "blwfBelowBaseFormslookup4 subtable"  } ['blwf' ('bng2' <'dflt' > ) ]

StartChar: .notdef
Encoding: 65536 -1 0
Width: 800
GlyphClass: 2
Flags: W
LayerCount: 2
Fore
SplineSet
100 0 m 1,0,-1
 100 700 l 1,1,-1
 700 700 l 1,2,-1
 700 0 l 1,3,-1
 100 0 l 1,4,-1
 100 0 l 1,0,-1
150 50 m 1,5,-1
 650 50 l 1,6,-1
 650 650 l 1,7,-1
 150 650 l 1,8,-1
 150 50 l 1,9,-1
 150 50 l 1,5,-1
EndSplineSet
EndChar

StartChar: exclam
Encoding: 33 33 2
Width: 410
GlyphClass: 2
Flags: W
LayerCount: 2
Fore
SplineSet
280 -40 m 1,0,1
 263 -40 263 -40 251.5 -28.5 c 128,-1,2
 240 -17 240 -17 240 0 c 0,3,4
 240 14 240 14 251.5 24.5 c 128,-1,5
 263 35 263 35 280 35 c 128,-1,6
 297 35 297 35 308.5 23.5 c 128,-1,7
 320 12 320 12 320 -5 c 0,8,9
 320 -19 320 -19 308.5 -29.5 c 128,-1,10
 297 -40 297 -40 280 -40 c 1,11,-1
 280 -40 l 1,0,1
260 100 m 1,12,-1
 260 550 l 1,13,-1
 300 550 l 1,14,-1
 300 100 l 1,15,-1
 260 100 l 1,16,-1
 260 100 l 1,12,-1
EndSplineSet
EndChar

StartChar: quotedbl
Encoding: 34 34 3
Width: 198
GlyphClass: 2
Flags: W
LayerCount: 2
Fore
SplineSet
68 499 m 1,0,-1
 31 499 l 1,1,-1
 2 657 l 1,2,-1
 62 657 l 1,3,-1
 68 499 l 1,4,-1
 68 499 l 1,0,-1
198 499 m 1,5,-1
 161 499 l 1,6,-1
 132 657 l 1,7,-1
 192 657 l 1,8,-1
 198 499 l 1,9,-1
 198 499 l 1,5,-1
EndSplineSet
EndChar

StartChar: numbersign
Encoding: 35 35 4
Width: 732
GlyphClass: 2
Flags: W
LayerCount: 2
Fore
SplineSet
140 338 m 1,0,-1
 140 384 l 1,1,-1
 285 384 l 1,2,-1
 322 502 l 1,3,-1
 368 502 l 1,4,-1
 331 384 l 1,5,-1
 485 384 l 1,6,-1
 522 502 l 1,7,-1
 569 502 l 1,8,-1
 532 384 l 1,9,-1
 642 384 l 1,10,-1
 642 338 l 1,11,-1
 516 338 l 1,12,-1
 466 184 l 1,13,-1
 592 184 l 1,14,-1
 592 136 l 1,15,-1
 451 136 l 1,16,-1
 408 -1 l 1,17,-1
 361 -1 l 1,18,-1
 405 136 l 1,19,-1
 251 136 l 1,20,-1
 207 -1 l 1,21,-1
 161 -1 l 1,22,-1
 205 136 l 1,23,-1
 90 136 l 1,24,-1
 90 184 l 1,25,-1
 219 184 l 1,26,-1
 269 338 l 1,27,-1
 140 338 l 1,28,-1
 140 338 l 1,0,-1
470 338 m 1,29,-1
 316 338 l 1,30,-1
 265 184 l 1,31,-1
 420 184 l 1,32,-1
 470 338 l 1,33,-1
 470 338 l 1,29,-1
EndSplineSet
EndChar

StartChar: dollar
Encoding: 36 36 5
Width: 565
GlyphClass: 2
Flags: W
LayerCount: 2
Fore
SplineSet
90 149 m 1,0,-1
 136 149 l 1,1,2
 136 104 136 104 169.5 67 c 128,-1,3
 203 30 203 30 255 17 c 1,4,-1
 255 236 l 1,5,6
 190 243 190 243 146 285 c 128,-1,7
 102 327 102 327 102 382 c 0,8,9
 102 435 102 435 145.5 475.5 c 128,-1,10
 189 516 189 516 255 524 c 1,11,-1
 255 610 l 1,12,-1
 304 610 l 1,13,-1
 304 524 l 1,14,15
 371 516 371 516 415.5 472 c 128,-1,16
 460 428 460 428 460 370 c 1,17,-1
 412 370 l 1,18,19
 412 411 412 411 381 442 c 128,-1,20
 350 473 350 473 304 480 c 1,21,-1
 304 272 l 1,22,23
 378 262 378 262 426.5 220 c 128,-1,24
 475 178 475 178 475 126 c 0,25,26
 475 68 475 68 426 24.5 c 128,-1,27
 377 -19 377 -19 304 -27 c 1,28,-1
 304 -96 l 1,29,-1
 255 -96 l 1,30,-1
 255 -27 l 1,31,32
 184 -17 184 -17 137 33 c 128,-1,33
 90 83 90 83 90 149 c 1,34,-1
 90 149 l 1,0,-1
304 17 m 1,35,36
 358 23 358 23 394.5 54 c 128,-1,37
 431 85 431 85 431 126 c 0,38,39
 431 166 431 166 394.5 195.5 c 128,-1,40
 358 225 358 225 304 229 c 1,41,-1
 304 17 l 1,42,-1
 304 17 l 1,35,36
255 480 m 1,43,44
 209 471 209 471 179 443.5 c 128,-1,45
 149 416 149 416 149 382 c 0,46,47
 149 345 149 345 179 315.5 c 128,-1,48
 209 286 209 286 255 279 c 1,49,-1
 255 480 l 1,50,-1
 255 480 l 1,43,44
EndSplineSet
EndChar

StartChar: percent
Encoding: 37 37 6
Width: 711
GlyphClass: 2
Flags: W
LayerCount: 2
Fore
SplineSet
155 0 m 1,0,-1
 105 0 l 1,1,-1
 565 500 l 1,2,-1
 620 500 l 1,3,-1
 155 0 l 1,4,-1
 155 0 l 1,0,-1
506 -10 m 1,5,6
 458 -10 458 -10 424.5 31.5 c 128,-1,7
 391 73 391 73 391 132 c 256,8,9
 391 191 391 191 424.5 233 c 128,-1,10
 458 275 458 275 506 275 c 256,11,12
 554 275 554 275 587.5 233 c 128,-1,13
 621 191 621 191 621 132 c 256,14,15
 621 73 621 73 587.5 31.5 c 128,-1,16
 554 -10 554 -10 506 -10 c 1,17,-1
 506 -10 l 1,5,6
506 30 m 1,18,19
 537 30 537 30 559 60 c 128,-1,20
 581 90 581 90 581 132 c 0,21,22
 581 175 581 175 559 205 c 128,-1,23
 537 235 537 235 506 235 c 256,24,25
 475 235 475 235 453 205 c 128,-1,26
 431 175 431 175 431 132 c 0,27,28
 431 90 431 90 453 60 c 128,-1,29
 475 30 475 30 506 30 c 1,30,-1
 506 30 l 1,18,19
210 230 m 1,31,32
 160 230 160 230 125 271 c 128,-1,33
 90 312 90 312 90 370 c 256,34,35
 90 428 90 428 125 469 c 128,-1,36
 160 510 160 510 210 510 c 256,37,38
 260 510 260 510 295 469 c 128,-1,39
 330 428 330 428 330 370 c 256,40,41
 330 312 330 312 295 271 c 128,-1,42
 260 230 260 230 210 230 c 1,43,-1
 210 230 l 1,31,32
207 270 m 1,44,45
 239 270 239 270 262 299.5 c 128,-1,46
 285 329 285 329 285 370 c 256,47,48
 285 411 285 411 263 440.5 c 128,-1,49
 241 470 241 470 210 470 c 0,50,51
 177 470 177 470 153.5 440.5 c 128,-1,52
 130 411 130 411 130 370 c 256,53,54
 130 329 130 329 152.5 299.5 c 128,-1,55
 175 270 175 270 207 270 c 1,56,-1
 207 270 l 1,44,45
EndSplineSet
EndChar

StartChar: ampersand
Encoding: 38 38 7
Width: 602
GlyphClass: 2
Flags: W
LayerCount: 2
Fore
SplineSet
90 116 m 1,0,1
 90 159 90 159 124.5 204 c 128,-1,2
 159 249 159 249 219 284 c 1,3,4
 184 328 184 328 166 366.5 c 128,-1,5
 148 405 148 405 148 434 c 0,6,7
 148 477 148 477 183.5 508 c 128,-1,8
 219 539 219 539 269 539 c 0,9,10
 317 539 317 539 351.5 504 c 128,-1,11
 386 469 386 469 386 419 c 0,12,13
 386 380 386 380 359 342 c 128,-1,14
 332 304 332 304 285 277 c 1,15,-1
 394 135 l 1,16,17
 400 159 400 159 403.5 180.5 c 128,-1,18
 407 202 407 202 407 221 c 1,19,-1
 450 221 l 1,20,21
 450 182 450 182 443.5 150.5 c 128,-1,22
 437 119 437 119 424 97 c 1,23,-1
 512 -19 l 1,24,-1
 452 -19 l 1,25,-1
 392 52 l 1,26,27
 367 16 367 16 327.5 -4.5 c 128,-1,28
 288 -25 288 -25 244 -25 c 0,29,30
 180 -25 180 -25 135 16.5 c 128,-1,31
 90 58 90 58 90 116 c 1,32,-1
 90 116 l 1,0,1
140 123 m 1,33,34
 140 80 140 80 173 49.5 c 128,-1,35
 206 19 206 19 252 19 c 0,36,37
 285 19 285 19 316.5 38 c 128,-1,38
 348 57 348 57 371 90 c 1,39,-1
 243 249 l 1,40,41
 195 221 195 221 167.5 187.5 c 128,-1,42
 140 154 140 154 140 123 c 1,43,-1
 140 123 l 1,33,34
198 426 m 1,44,45
 198 407 198 407 213 377.5 c 128,-1,46
 228 348 228 348 257 311 c 1,47,48
 293 332 293 332 314 361 c 128,-1,49
 335 390 335 390 335 419 c 0,50,51
 335 451 335 451 317 474 c 128,-1,52
 299 497 299 497 274 497 c 0,53,54
 243 497 243 497 220.5 476 c 128,-1,55
 198 455 198 455 198 426 c 1,56,-1
 198 426 l 1,44,45
EndSplineSet
EndChar

StartChar: quotesingle
Encoding: 39 39 8
Width: 68
GlyphClass: 2
Flags: W
LayerCount: 2
Fore
SplineSet
68 499 m 1,0,-1
 31 499 l 1,1,-1
 2 657 l 1,2,-1
 62 657 l 1,3,-1
 68 499 l 1,4,-1
 68 499 l 1,0,-1
EndSplineSet
EndChar

StartChar: parenleft
Encoding: 40 40 9
Width: 440
GlyphClass: 2
Flags: W
LayerCount: 2
Fore
SplineSet
330 -210 m 1,0,1
 219 -146 219 -146 154.5 -22.5 c 128,-1,2
 90 101 90 101 90 250 c 256,3,4
 90 399 90 399 154.5 522.5 c 128,-1,5
 219 646 219 646 330 710 c 1,6,-1
 350 680 l 1,7,8
 248 621 248 621 189 506 c 128,-1,9
 130 391 130 391 130 250 c 256,10,11
 130 109 130 109 189 -6 c 128,-1,12
 248 -121 248 -121 350 -180 c 1,13,-1
 330 -210 l 1,14,-1
 330 -210 l 1,0,1
EndSplineSet
EndChar

StartChar: parenright
Encoding: 41 41 10
Width: 440
GlyphClass: 2
Flags: W
LayerCount: 2
Fore
SplineSet
110 -210 m 1,0,-1
 90 -180 l 1,1,2
 192 -121 192 -121 251 -6 c 128,-1,3
 310 109 310 109 310 250 c 256,4,5
 310 391 310 391 251 506 c 128,-1,6
 192 621 192 621 90 680 c 1,7,-1
 110 710 l 1,8,9
 221 646 221 646 285.5 522.5 c 128,-1,10
 350 399 350 399 350 250 c 256,11,12
 350 101 350 101 285.5 -22.5 c 128,-1,13
 221 -146 221 -146 110 -210 c 1,14,-1
 110 -210 l 1,0,-1
EndSplineSet
EndChar

StartChar: asterisk
Encoding: 42 42 11
Width: 465
GlyphClass: 2
Flags: W
LayerCount: 2
Fore
SplineSet
180 490 m 1,0,-1
 135 520 l 1,1,-1
 210 610 l 1,2,-1
 95 590 l 1,3,-1
 90 650 l 1,4,-1
 205 640 l 1,5,-1
 140 720 l 1,6,-1
 195 745 l 1,7,-1
 230 660 l 1,8,-1
 270 745 l 1,9,-1
 320 720 l 1,10,-1
 260 640 l 1,11,-1
 375 655 l 1,12,-1
 375 600 l 1,13,-1
 260 610 l 1,14,-1
 345 520 l 1,15,-1
 290 490 l 1,16,-1
 240 600 l 1,17,-1
 180 490 l 1,18,-1
 180 490 l 1,0,-1
EndSplineSet
EndChar

StartChar: plus
Encoding: 43 43 12
Width: 580
GlyphClass: 2
Flags: W
LayerCount: 2
Fore
SplineSet
270 50 m 1,0,-1
 270 225 l 1,1,-1
 90 225 l 1,2,-1
 90 265 l 1,3,-1
 270 265 l 1,4,-1
 270 440 l 1,5,-1
 310 440 l 1,6,-1
 310 265 l 1,7,-1
 490 265 l 1,8,-1
 490 225 l 1,9,-1
 310 225 l 1,10,-1
 310 50 l 1,11,-1
 270 50 l 1,12,-1
 270 50 l 1,0,-1
EndSplineSet
EndChar

StartChar: comma
Encoding: 44 44 13
Width: 320
GlyphClass: 2
Flags: W
LayerCount: 2
Fore
SplineSet
115 -135 m 1,0,-1
 90 -105 l 1,1,2
 133 -85 133 -85 159 -57.5 c 128,-1,3
 185 -30 185 -30 185 -5 c 0,4,5
 185 -3 185 -3 183.5 -0.5 c 128,-1,6
 182 2 182 2 180 5 c 1,7,8
 174 0 174 0 164 -2.5 c 128,-1,9
 154 -5 154 -5 140 -5 c 0,10,11
 123 -5 123 -5 111.5 6.5 c 128,-1,12
 100 18 100 18 100 35 c 0,13,14
 100 58 100 58 116 74 c 128,-1,15
 132 90 132 90 155 90 c 0,16,17
 186 90 186 90 208 66.5 c 128,-1,18
 230 43 230 43 230 10 c 0,19,20
 230 -32 230 -32 199 -71 c 128,-1,21
 168 -110 168 -110 115 -135 c 1,22,-1
 115 -135 l 1,0,-1
EndSplineSet
EndChar

StartChar: hyphen
Encoding: 45 45 14
Width: 410
GlyphClass: 2
Flags: W
LayerCount: 2
Fore
SplineSet
90 240 m 1,0,-1
 90 275 l 1,1,-1
 320 275 l 1,2,-1
 320 240 l 1,3,-1
 90 240 l 1,4,-1
 90 240 l 1,0,-1
EndSplineSet
EndChar

StartChar: period
Encoding: 46 46 15
Width: 270
GlyphClass: 2
Flags: W
LayerCount: 2
Fore
SplineSet
135 0 m 1,0,1
 116 0 116 0 103 14 c 128,-1,2
 90 28 90 28 90 47 c 0,3,4
 90 67 90 67 103 81 c 128,-1,5
 116 95 116 95 135 95 c 256,6,7
 154 95 154 95 167 81 c 128,-1,8
 180 67 180 67 180 47 c 0,9,10
 180 28 180 28 167 14 c 128,-1,11
 154 0 154 0 135 0 c 1,12,-1
 135 0 l 1,0,1
EndSplineSet
EndChar

StartChar: slash
Encoding: 47 47 16
Width: 610
GlyphClass: 2
Flags: W
LayerCount: 2
Fore
SplineSet
120 -140 m 1,0,-1
 90 -115 l 1,1,-1
 490 660 l 1,2,-1
 520 640 l 1,3,-1
 120 -140 l 1,4,-1
 120 -140 l 1,0,-1
EndSplineSet
EndChar

StartChar: zero
Encoding: 48 48 17
Width: 426
GlyphClass: 2
Flags: W
LayerCount: 2
Fore
SplineSet
213 -6 m 1,0,1
 134 -6 134 -6 90.5 63.5 c 128,-1,2
 47 133 47 133 47 259 c 256,3,4
 47 385 47 385 90.5 455 c 128,-1,5
 134 525 134 525 213 525 c 256,6,7
 292 525 292 525 335.5 455 c 128,-1,8
 379 385 379 385 379 259 c 256,9,10
 379 133 379 133 335.5 63.5 c 128,-1,11
 292 -6 292 -6 213 -6 c 1,12,-1
 213 -6 l 1,0,1
213 28 m 1,13,14
 274 28 274 28 307.5 88.5 c 128,-1,15
 341 149 341 149 341 259 c 256,16,17
 341 369 341 369 307.5 430 c 128,-1,18
 274 491 274 491 213 491 c 256,19,20
 152 491 152 491 118.5 430 c 128,-1,21
 85 369 85 369 85 259 c 256,22,23
 85 149 85 149 118.5 88.5 c 128,-1,24
 152 28 152 28 213 28 c 1,25,-1
 213 28 l 1,13,14
EndSplineSet
EndChar

StartChar: one
Encoding: 49 49 18
Width: 425
GlyphClass: 2
Flags: W
LayerCount: 2
Fore
SplineSet
251 0 m 1,0,-1
 251 394 l 1,1,-1
 136 394 l 1,2,-1
 136 422 l 1,3,-1
 163 422 l 2,4,5
 200 422 200 422 229 449.5 c 128,-1,6
 258 477 258 477 265 519 c 1,7,-1
 289 519 l 1,8,-1
 289 0 l 1,9,-1
 251 0 l 1,10,-1
 251 0 l 1,0,-1
EndSplineSet
EndChar

StartChar: two
Encoding: 50 50 19
Width: 425
GlyphClass: 2
Flags: W
LayerCount: 2
Fore
SplineSet
53 0 m 1,0,-1
 53 46 l 2,1,2
 53 96 53 96 100 148 c 128,-1,3
 147 200 147 200 226 237 c 0,4,5
 272 259 272 259 299.5 297.5 c 128,-1,6
 327 336 327 336 327 379 c 0,7,8
 327 424 327 424 293.5 455.5 c 128,-1,9
 260 487 260 487 213 487 c 0,10,11
 168 487 168 487 136 449.5 c 128,-1,12
 104 412 104 412 104 359 c 1,13,-1
 63 359 l 1,14,15
 63 428 63 428 107 476.5 c 128,-1,16
 151 525 151 525 213 525 c 0,17,18
 279 525 279 525 325.5 482 c 128,-1,19
 372 439 372 439 372 379 c 0,20,21
 372 327 372 327 336 279 c 128,-1,22
 300 231 300 231 239 203 c 0,23,24
 173 172 173 172 133 132 c 128,-1,25
 93 92 93 92 93 57 c 2,26,-1
 93 33 l 1,27,-1
 372 33 l 1,28,-1
 372 0 l 1,29,-1
 53 0 l 1,30,-1
 53 0 l 1,0,-1
EndSplineSet
EndChar

StartChar: three
Encoding: 51 51 20
Width: 426
GlyphClass: 2
Flags: W
LayerCount: 2
Fore
SplineSet
213 -6 m 1,0,1
 144 -6 144 -6 95.5 34.5 c 128,-1,2
 47 75 47 75 47 133 c 2,3,-1
 47 139 l 1,4,-1
 88 139 l 1,5,-1
 88 133 l 2,6,7
 88 90 88 90 124.5 59 c 128,-1,8
 161 28 161 28 213 28 c 256,9,10
 265 28 265 28 301.5 62.5 c 128,-1,11
 338 97 338 97 338 146 c 0,12,13
 338 188 338 188 309 218 c 128,-1,14
 280 248 280 248 239 248 c 2,15,-1
 180 248 l 1,16,-1
 180 286 l 1,17,-1
 239 286 l 2,18,19
 272 286 272 286 295 315.5 c 128,-1,20
 318 345 318 345 318 386 c 0,21,22
 318 425 318 425 285.5 452.5 c 128,-1,23
 253 480 253 480 207 480 c 0,24,25
 162 480 162 480 130 451.5 c 128,-1,26
 98 423 98 423 98 382 c 2,27,-1
 98 365 l 1,28,-1
 57 365 l 1,29,-1
 60 392 l 2,30,31
 60 445 60 445 103 482 c 128,-1,32
 146 519 146 519 207 519 c 0,33,34
 270 519 270 519 314.5 480 c 128,-1,35
 359 441 359 441 359 386 c 0,36,37
 359 343 359 343 338.5 310.5 c 128,-1,38
 318 278 318 278 286 269 c 1,39,40
 327 258 327 258 353 223.5 c 128,-1,41
 379 189 379 189 379 146 c 0,42,43
 379 83 379 83 330.5 38.5 c 128,-1,44
 282 -6 282 -6 213 -6 c 1,45,-1
 213 -6 l 1,0,1
EndSplineSet
EndChar

StartChar: four
Encoding: 52 52 21
Width: 426
GlyphClass: 2
Flags: W
LayerCount: 2
Fore
SplineSet
272 0 m 1,0,-1
 272 121 l 1,1,-1
 40 121 l 1,2,-1
 40 166 l 1,3,-1
 279 519 l 1,4,-1
 306 519 l 1,5,-1
 306 160 l 1,6,-1
 386 160 l 1,7,-1
 386 121 l 1,8,-1
 306 121 l 1,9,-1
 306 0 l 1,10,-1
 272 0 l 1,11,-1
 272 0 l 1,0,-1
78 160 m 1,12,-1
 272 160 l 1,13,-1
 272 448 l 1,14,-1
 78 160 l 1,15,-1
 78 160 l 1,12,-1
EndSplineSet
EndChar

StartChar: five
Encoding: 53 53 22
Width: 426
GlyphClass: 2
Flags: W
LayerCount: 2
Fore
SplineSet
213 -6 m 1,0,1
 147 -6 147 -6 99.5 32 c 128,-1,2
 52 70 52 70 47 126 c 1,3,-1
 85 126 l 1,4,5
 92 85 92 85 128.5 58.5 c 128,-1,6
 165 32 165 32 213 32 c 0,7,8
 266 32 266 32 303.5 69.5 c 128,-1,9
 341 107 341 107 341 160 c 0,10,11
 341 216 341 216 303.5 255 c 128,-1,12
 266 294 266 294 213 294 c 0,13,14
 177 294 177 294 147.5 281.5 c 128,-1,15
 118 269 118 269 102 246 c 1,16,-1
 67 246 l 1,17,-1
 113 519 l 1,18,-1
 353 519 l 1,19,-1
 353 480 l 1,20,-1
 145 480 l 1,21,-1
 111 294 l 1,22,23
 123 310 123 310 151.5 319.5 c 128,-1,24
 180 329 180 329 220 329 c 0,25,26
 286 329 286 329 332.5 281.5 c 128,-1,27
 379 234 379 234 379 166 c 0,28,29
 379 95 379 95 330.5 44.5 c 128,-1,30
 282 -6 282 -6 213 -6 c 1,31,-1
 213 -6 l 1,0,1
EndSplineSet
EndChar

StartChar: six
Encoding: 54 54 23
Width: 426
GlyphClass: 2
Flags: W
LayerCount: 2
Fore
SplineSet
220 -6 m 1,0,1
 134 -6 134 -6 90.5 54 c 128,-1,2
 47 114 47 114 47 232 c 0,3,4
 47 371 47 371 96 448 c 128,-1,5
 145 525 145 525 233 525 c 0,6,7
 293 525 293 525 336 490 c 128,-1,8
 379 455 379 455 379 405 c 1,9,-1
 338 405 l 1,10,11
 338 439 338 439 307 463 c 128,-1,12
 276 487 276 487 233 487 c 0,13,14
 173 487 173 487 130.5 426 c 128,-1,15
 88 365 88 365 88 279 c 2,16,-1
 88 242 l 1,17,18
 102 279 102 279 138 302 c 128,-1,19
 174 325 174 325 220 325 c 0,20,21
 286 325 286 325 332.5 276.5 c 128,-1,22
 379 228 379 228 379 160 c 0,23,24
 379 91 379 91 332.5 42.5 c 128,-1,25
 286 -6 286 -6 220 -6 c 1,26,-1
 220 -6 l 1,0,1
220 28 m 1,27,28
 270 28 270 28 305.5 66.5 c 128,-1,29
 341 105 341 105 341 160 c 0,30,31
 341 214 341 214 305.5 252.5 c 128,-1,32
 270 291 270 291 220 291 c 0,33,34
 169 291 169 291 133.5 252.5 c 128,-1,35
 98 214 98 214 98 160 c 0,36,37
 98 105 98 105 133.5 66.5 c 128,-1,38
 169 28 169 28 220 28 c 1,39,-1
 220 28 l 1,27,28
EndSplineSet
EndChar

StartChar: seven
Encoding: 55 55 24
Width: 425
GlyphClass: 2
Flags: W
LayerCount: 2
Fore
SplineSet
121 0 m 1,0,1
 121 127 121 127 175.5 258 c 128,-1,2
 230 389 230 389 321 480 c 1,3,-1
 58 480 l 1,4,-1
 58 519 l 1,5,-1
 367 519 l 1,6,-1
 367 485 l 1,7,8
 274 392 274 392 217.5 259.5 c 128,-1,9
 161 127 161 127 161 0 c 1,10,-1
 121 0 l 1,11,-1
 121 0 l 1,0,1
EndSplineSet
EndChar

StartChar: eight
Encoding: 56 56 25
Width: 426
GlyphClass: 2
Flags: W
LayerCount: 2
Fore
SplineSet
213 -6 m 1,0,1
 144 -6 144 -6 95.5 36.5 c 128,-1,2
 47 79 47 79 47 139 c 0,3,4
 47 185 47 185 75.5 223.5 c 128,-1,5
 104 262 104 262 150 279 c 1,6,7
 113 296 113 296 91.5 326.5 c 128,-1,8
 70 357 70 357 70 392 c 0,9,10
 70 447 70 447 112 486 c 128,-1,11
 154 525 154 525 213 525 c 256,12,13
 272 525 272 525 314 486 c 128,-1,14
 356 447 356 447 356 392 c 0,15,16
 356 354 356 354 334.5 323 c 128,-1,17
 313 292 313 292 277 279 c 1,18,19
 323 262 323 262 351 223.5 c 128,-1,20
 379 185 379 185 379 139 c 0,21,22
 379 79 379 79 330.5 36.5 c 128,-1,23
 282 -6 282 -6 213 -6 c 1,24,-1
 213 -6 l 1,0,1
213 28 m 1,25,26
 266 28 266 28 303.5 60.5 c 128,-1,27
 341 93 341 93 341 139 c 0,28,29
 341 187 341 187 303.5 220.5 c 128,-1,30
 266 254 266 254 213 254 c 256,31,32
 160 254 160 254 122.5 220.5 c 128,-1,33
 85 187 85 187 85 139 c 0,34,35
 85 93 85 93 122.5 60.5 c 128,-1,36
 160 28 160 28 213 28 c 1,37,-1
 213 28 l 1,25,26
213 298 m 1,38,39
 256 298 256 298 287 326.5 c 128,-1,40
 318 355 318 355 318 395 c 256,41,42
 318 435 318 435 287 463 c 128,-1,43
 256 491 256 491 213 491 c 256,44,45
 170 491 170 491 139.5 463 c 128,-1,46
 109 435 109 435 109 395 c 256,47,48
 109 355 109 355 139.5 326.5 c 128,-1,49
 170 298 170 298 213 298 c 1,50,-1
 213 298 l 1,38,39
EndSplineSet
EndChar

StartChar: nine
Encoding: 57 57 26
Width: 426
GlyphClass: 2
Flags: W
LayerCount: 2
Fore
SplineSet
207 -6 m 1,0,1
 152 -6 152 -6 110.5 25.5 c 128,-1,2
 69 57 69 57 60 106 c 1,3,-1
 98 106 l 1,4,5
 104 71 104 71 135 48 c 128,-1,6
 166 25 166 25 207 25 c 0,7,8
 262 25 262 25 301.5 84.5 c 128,-1,9
 341 144 341 144 341 227 c 2,10,-1
 341 273 l 1,11,12
 327 234 327 234 291.5 210 c 128,-1,13
 256 186 256 186 213 186 c 0,14,15
 138 186 138 186 92.5 231.5 c 128,-1,16
 47 277 47 277 47 352 c 0,17,18
 47 428 47 428 92.5 473.5 c 128,-1,19
 138 519 138 519 213 519 c 0,20,21
 292 519 292 519 335.5 452.5 c 128,-1,22
 379 386 379 386 379 266 c 0,23,24
 379 137 379 137 334 65.5 c 128,-1,25
 289 -6 289 -6 207 -6 c 1,26,-1
 207 -6 l 1,0,1
210 224 m 1,27,28
 259 224 259 224 293.5 261.5 c 128,-1,29
 328 299 328 299 328 352 c 256,30,31
 328 405 328 405 293.5 442.5 c 128,-1,32
 259 480 259 480 210 480 c 0,33,34
 153 480 153 480 119 445 c 128,-1,35
 85 410 85 410 85 352 c 256,36,37
 85 294 85 294 119 259 c 128,-1,38
 153 224 153 224 210 224 c 1,39,-1
 210 224 l 1,27,28
EndSplineSet
EndChar

StartChar: colon
Encoding: 58 58 27
Width: 270
GlyphClass: 2
Flags: W
LayerCount: 2
Fore
SplineSet
135 285 m 1,0,1
 116 285 116 285 103 299 c 128,-1,2
 90 313 90 313 90 332 c 0,3,4
 90 352 90 352 104.5 366 c 128,-1,5
 119 380 119 380 140 380 c 0,6,7
 157 380 157 380 168.5 366 c 128,-1,8
 180 352 180 352 180 332 c 0,9,10
 180 313 180 313 167 299 c 128,-1,11
 154 285 154 285 135 285 c 1,12,-1
 135 285 l 1,0,1
135 0 m 1,13,14
 116 0 116 0 103 14 c 128,-1,15
 90 28 90 28 90 47 c 0,16,17
 90 67 90 67 103 81 c 128,-1,18
 116 95 116 95 135 95 c 256,19,20
 154 95 154 95 167 81 c 128,-1,21
 180 67 180 67 180 47 c 0,22,23
 180 28 180 28 167 14 c 128,-1,24
 154 0 154 0 135 0 c 1,25,-1
 135 0 l 1,13,14
EndSplineSet
EndChar

StartChar: semicolon
Encoding: 59 59 28
Width: 315
GlyphClass: 2
Flags: W
LayerCount: 2
Fore
SplineSet
110 -135 m 1,0,-1
 90 -105 l 1,1,2
 133 -85 133 -85 159 -59 c 128,-1,3
 185 -33 185 -33 185 -10 c 0,4,5
 185 -6 185 -6 183.5 -2 c 128,-1,6
 182 2 182 2 180 5 c 1,7,8
 174 0 174 0 165 -2.5 c 128,-1,9
 156 -5 156 -5 145 -5 c 0,10,11
 126 -5 126 -5 113 8 c 128,-1,12
 100 21 100 21 100 40 c 0,13,14
 100 61 100 61 116 75.5 c 128,-1,15
 132 90 132 90 155 90 c 0,16,17
 184 90 184 90 204.5 63.5 c 128,-1,18
 225 37 225 37 225 0 c 0,19,20
 225 -42 225 -42 193.5 -79 c 128,-1,21
 162 -116 162 -116 110 -135 c 1,22,-1
 110 -135 l 1,0,-1
147 285 m 1,23,24
 128 285 128 285 114 300 c 128,-1,25
 100 315 100 315 100 337 c 256,26,27
 100 359 100 359 114 374.5 c 128,-1,28
 128 390 128 390 147 390 c 0,29,30
 167 390 167 390 181 374.5 c 128,-1,31
 195 359 195 359 195 337 c 256,32,33
 195 315 195 315 181 300 c 128,-1,34
 167 285 167 285 147 285 c 1,35,-1
 147 285 l 1,23,24
EndSplineSet
EndChar

StartChar: less
Encoding: 60 60 29
Width: 527
GlyphClass: 2
Flags: W
LayerCount: 2
Fore
SplineSet
90 218 m 1,0,-1
 90 277 l 1,1,-1
 437 484 l 1,2,-1
 437 430 l 1,3,-1
 139 250 l 1,4,-1
 437 70 l 1,5,-1
 437 14 l 1,6,-1
 90 218 l 1,7,-1
 90 218 l 1,0,-1
EndSplineSet
EndChar

StartChar: equal
Encoding: 61 61 30
Width: 580
GlyphClass: 2
Flags: W
LayerCount: 2
Fore
SplineSet
90 150 m 1,0,-1
 90 180 l 1,1,-1
 490 180 l 1,2,-1
 490 150 l 1,3,-1
 90 150 l 1,4,-1
 90 150 l 1,0,-1
90 320 m 1,5,-1
 90 350 l 1,6,-1
 490 350 l 1,7,-1
 490 320 l 1,8,-1
 90 320 l 1,9,-1
 90 320 l 1,5,-1
EndSplineSet
EndChar

StartChar: greater
Encoding: 62 62 31
Width: 527
GlyphClass: 2
Flags: W
LayerCount: 2
Fore
SplineSet
437 218 m 1,0,-1
 90 14 l 1,1,-1
 90 70 l 1,2,-1
 388 250 l 1,3,-1
 90 430 l 1,4,-1
 90 484 l 1,5,-1
 437 277 l 1,6,-1
 437 218 l 1,7,-1
 437 218 l 1,0,-1
EndSplineSet
EndChar

StartChar: question
Encoding: 63 63 32
Width: 605
GlyphClass: 2
Flags: W
LayerCount: 2
Fore
SplineSet
380 -45 m 1,0,1
 363 -45 363 -45 351.5 -33.5 c 128,-1,2
 340 -22 340 -22 340 -5 c 0,3,4
 340 9 340 9 351.5 19.5 c 128,-1,5
 363 30 363 30 380 30 c 256,6,7
 397 30 397 30 408.5 19.5 c 128,-1,8
 420 9 420 9 420 -5 c 0,9,10
 420 -22 420 -22 408.5 -33.5 c 128,-1,11
 397 -45 397 -45 380 -45 c 1,12,-1
 380 -45 l 1,0,1
360 80 m 1,13,-1
 360 185 l 2,14,15
 360 221 360 221 377 255 c 128,-1,16
 394 289 394 289 425 315 c 0,17,18
 449 335 449 335 462 358.5 c 128,-1,19
 475 382 475 382 475 405 c 0,20,21
 475 442 475 442 448.5 468.5 c 128,-1,22
 422 495 422 495 385 495 c 0,23,24
 342 495 342 495 311 468.5 c 128,-1,25
 280 442 280 442 280 405 c 2,26,-1
 280 360 l 1,27,-1
 240 360 l 1,28,-1
 240 405 l 2,29,30
 240 459 240 459 282.5 497 c 128,-1,31
 325 535 325 535 385 535 c 0,32,33
 439 535 439 535 477 497 c 128,-1,34
 515 459 515 459 515 405 c 0,35,36
 515 379 515 379 499.5 349 c 128,-1,37
 484 319 484 319 455 290 c 0,38,39
 429 268 429 268 414.5 242 c 128,-1,40
 400 216 400 216 400 190 c 2,41,-1
 400 80 l 1,42,-1
 360 80 l 1,43,-1
 360 80 l 1,13,-1
EndSplineSet
EndChar

StartChar: at
Encoding: 64 64 33
Width: 814
GlyphClass: 2
Flags: W
LayerCount: 2
Fore
SplineSet
253 240 m 1,0,1
 253 299 253 299 293.5 341.5 c 128,-1,2
 334 384 334 384 392 384 c 0,3,4
 418 384 418 384 441.5 373.5 c 128,-1,5
 465 363 465 363 482 343 c 1,6,-1
 482 379 l 1,7,-1
 532 379 l 1,8,-1
 532 156 l 2,9,10
 532 141 532 141 545 130 c 128,-1,11
 558 119 558 119 577 119 c 0,12,13
 618 119 618 119 647 159.5 c 128,-1,14
 676 200 676 200 676 258 c 0,15,16
 676 357 676 357 600 427 c 128,-1,17
 524 497 524 497 417 497 c 0,18,19
 301 497 301 497 219 420.5 c 128,-1,20
 137 344 137 344 137 236 c 0,21,22
 137 138 137 138 219 69 c 128,-1,23
 301 0 301 0 417 0 c 0,24,25
 462 0 462 0 501.5 12 c 128,-1,26
 541 24 541 24 571 47 c 1,27,-1
 595 6 l 1,28,29
 557 -20 557 -20 511.5 -34 c 128,-1,30
 466 -48 466 -48 417 -48 c 0,31,32
 282 -48 282 -48 186 35 c 128,-1,33
 90 118 90 118 90 236 c 0,34,35
 90 363 90 363 186 453 c 128,-1,36
 282 543 282 543 417 543 c 0,37,38
 544 543 544 543 634 459.5 c 128,-1,39
 724 376 724 376 724 258 c 0,40,41
 724 181 724 181 681 126 c 128,-1,42
 638 71 638 71 577 71 c 0,43,44
 542 71 542 71 515.5 91 c 128,-1,45
 489 111 489 111 484 142 c 1,46,47
 470 117 470 117 445 103 c 128,-1,48
 420 89 420 89 392 89 c 0,49,50
 333 89 333 89 293 133.5 c 128,-1,51
 253 178 253 178 253 240 c 1,52,-1
 253 240 l 1,0,1
302 240 m 1,53,54
 302 199 302 199 328 169 c 128,-1,55
 354 139 354 139 392 139 c 256,56,57
 430 139 430 139 456 169 c 128,-1,58
 482 199 482 199 482 240 c 256,59,60
 482 281 482 281 456 310.5 c 128,-1,61
 430 340 430 340 392 340 c 256,62,63
 354 340 354 340 328 310.5 c 128,-1,64
 302 281 302 281 302 240 c 1,65,-1
 302 240 l 1,53,54
EndSplineSet
EndChar

StartChar: bracketleft
Encoding: 91 91 34
Width: 380
GlyphClass: 2
Flags: W
LayerCount: 2
Fore
SplineSet
90 -220 m 1,0,-1
 90 720 l 1,1,-1
 290 720 l 1,2,-1
 290 690 l 1,3,-1
 130 690 l 1,4,-1
 130 -190 l 1,5,-1
 290 -190 l 1,6,-1
 290 -220 l 1,7,-1
 90 -220 l 1,8,-1
 90 -220 l 1,0,-1
EndSplineSet
EndChar

StartChar: backslash
Encoding: 92 92 35
Width: 485
GlyphClass: 2
Flags: W
LayerCount: 2
Fore
SplineSet
395 -97 m 1,0,-1
 344 -97 l 1,1,-1
 90 610 l 1,2,-1
 141 610 l 1,3,-1
 395 -97 l 1,4,-1
 395 -97 l 1,0,-1
EndSplineSet
EndChar

StartChar: bracketright
Encoding: 93 93 36
Width: 380
GlyphClass: 2
Flags: W
LayerCount: 2
Fore
SplineSet
90 -220 m 1,0,-1
 90 -190 l 1,1,-1
 250 -190 l 1,2,-1
 250 690 l 1,3,-1
 90 690 l 1,4,-1
 90 720 l 1,5,-1
 290 720 l 1,6,-1
 290 -220 l 1,7,-1
 90 -220 l 1,8,-1
 90 -220 l 1,0,-1
EndSplineSet
EndChar

StartChar: asciicircum
Encoding: 94 94 37
Width: 534
GlyphClass: 2
Flags: W
LayerCount: 2
Fore
SplineSet
233 361 m 1,0,-1
 298 361 l 1,1,-1
 444 104 l 1,2,-1
 385 104 l 1,3,-1
 267 318 l 1,4,-1
 149 104 l 1,5,-1
 90 104 l 1,6,-1
 233 361 l 1,7,-1
 233 361 l 1,0,-1
EndSplineSet
EndChar

StartChar: underscore
Encoding: 95 95 38
Width: 715
GlyphClass: 2
Flags: W
LayerCount: 2
Fore
SplineSet
90 -248 m 1,0,-1
 90 -197 l 1,1,-1
 625 -197 l 1,2,-1
 625 -248 l 1,3,-1
 90 -248 l 1,4,-1
 90 -248 l 1,0,-1
EndSplineSet
EndChar

StartChar: grave
Encoding: 96 96 39
Width: 286
GlyphClass: 2
Flags: W
LayerCount: 2
Fore
SplineSet
196 499 m 1,0,-1
 159 499 l 1,1,-1
 90 657 l 1,2,-1
 155 657 l 1,3,-1
 196 499 l 1,4,-1
 196 499 l 1,0,-1
EndSplineSet
EndChar

StartChar: braceleft
Encoding: 123 123 40
Width: 394
GlyphClass: 2
Flags: W
LayerCount: 2
Fore
SplineSet
90 233 m 1,0,1
 121 233 121 233 143.5 258.5 c 128,-1,2
 166 284 166 284 166 320 c 2,3,-1
 166 419 l 2,4,5
 166 489 166 489 206.5 538.5 c 128,-1,6
 247 588 247 588 304 588 c 1,7,-1
 304 549 l 1,8,9
 267 549 267 549 240.5 511 c 128,-1,10
 214 473 214 473 214 419 c 2,11,-1
 214 320 l 2,12,13
 214 285 214 285 197 257.5 c 128,-1,14
 180 230 180 230 152 220 c 1,15,16
 180 210 180 210 197 183 c 128,-1,17
 214 156 214 156 214 122 c 2,18,-1
 214 24 l 2,19,20
 214 -30 214 -30 240.5 -68 c 128,-1,21
 267 -106 267 -106 304 -106 c 1,22,-1
 304 -146 l 1,23,24
 247 -146 247 -146 206.5 -96 c 128,-1,25
 166 -46 166 -46 166 24 c 2,26,-1
 166 122 l 2,27,28
 166 157 166 157 143.5 181.5 c 128,-1,29
 121 206 121 206 90 206 c 1,30,-1
 90 233 l 1,31,-1
 90 233 l 1,0,1
EndSplineSet
EndChar

StartChar: bar
Encoding: 124 124 41
Width: 230
GlyphClass: 2
Flags: W
LayerCount: 2
Fore
SplineSet
90 -245 m 1,0,-1
 90 750 l 1,1,-1
 140 750 l 1,2,-1
 140 -245 l 1,3,-1
 90 -245 l 1,4,-1
 90 -245 l 1,0,-1
EndSplineSet
EndChar

StartChar: braceright
Encoding: 125 125 42
Width: 395
GlyphClass: 2
Flags: W
LayerCount: 2
Fore
SplineSet
305 259 m 1,0,-1
 305 232 l 1,1,2
 274 232 274 232 251.5 207.5 c 128,-1,3
 229 183 229 183 229 148 c 2,4,-1
 229 50 l 2,5,6
 229 -20 229 -20 188.5 -70 c 128,-1,7
 148 -120 148 -120 90 -120 c 1,8,-1
 90 -80 l 1,9,10
 128 -80 128 -80 154.5 -42 c 128,-1,11
 181 -4 181 -4 181 50 c 2,12,-1
 181 148 l 2,13,14
 181 181 181 181 198.5 208 c 128,-1,15
 216 235 216 235 245 245 c 1,16,17
 216 255 216 255 198.5 283 c 128,-1,18
 181 311 181 311 181 346 c 2,19,-1
 181 445 l 2,20,21
 181 499 181 499 154.5 537 c 128,-1,22
 128 575 128 575 90 575 c 1,23,-1
 90 614 l 1,24,25
 148 614 148 614 188.5 564.5 c 128,-1,26
 229 515 229 515 229 445 c 2,27,-1
 229 346 l 2,28,29
 229 310 229 310 251.5 284.5 c 128,-1,30
 274 259 274 259 305 259 c 1,31,-1
 305 259 l 1,0,-1
EndSplineSet
EndChar

StartChar: asciitilde
Encoding: 126 126 43
Width: 572
GlyphClass: 2
Flags: W
LayerCount: 2
Fore
SplineSet
117 228 m 1,0,-1
 90 262 l 1,1,2
 115 283 115 283 142.5 294.5 c 128,-1,3
 170 306 170 306 196 306 c 256,4,5
 222 306 222 306 243.5 300 c 128,-1,6
 265 294 265 294 279 282 c 0,7,8
 302 263 302 263 323 252.5 c 128,-1,9
 344 242 344 242 360 242 c 0,10,11
 387 242 387 242 411.5 254 c 128,-1,12
 436 266 436 266 454 287 c 1,13,-1
 482 255 l 1,14,15
 460 229 460 229 428 214.5 c 128,-1,16
 396 200 396 200 360 200 c 0,17,18
 337 200 337 200 316 207 c 128,-1,19
 295 214 295 214 279 228 c 0,20,21
 262 243 262 243 240.5 250.5 c 128,-1,22
 219 258 219 258 197 258 c 0,23,24
 176 258 176 258 155 250.5 c 128,-1,25
 134 243 134 243 117 228 c 1,26,-1
 117 228 l 1,0,-1
EndSplineSet
EndChar

StartChar: cent
Encoding: 162 162 44
Width: 512
GlyphClass: 2
Flags: W
LayerCount: 2
Fore
SplineSet
62 250 m 1,0,1
 62 363 62 363 119 431.5 c 128,-1,2
 176 500 176 500 271 500 c 0,3,4
 290 500 290 500 306.5 498 c 128,-1,5
 323 496 323 496 337 493 c 1,6,-1
 382 604 l 1,7,-1
 432 604 l 1,8,-1
 381 473 l 1,9,10
 420 447 420 447 444 410.5 c 128,-1,11
 468 374 468 374 471 335 c 1,12,-1
 415 335 l 1,13,14
 413 358 413 358 400 382 c 128,-1,15
 387 406 387 406 364 428 c 1,16,-1
 219 53 l 1,17,18
 234 49 234 49 247 46.5 c 128,-1,19
 260 44 260 44 271 44 c 0,20,21
 334 44 334 44 375 78.5 c 128,-1,22
 416 113 416 113 421 171 c 1,23,-1
 475 171 l 1,24,25
 468 92 468 92 412.5 45 c 128,-1,26
 357 -2 357 -2 271 -2 c 0,27,28
 254 -2 254 -2 236 0.5 c 128,-1,29
 218 3 218 3 201 8 c 1,30,-1
 161 -94 l 1,31,-1
 111 -94 l 1,32,-1
 159 28 l 1,33,34
 113 61 113 61 87.5 120 c 128,-1,35
 62 179 62 179 62 250 c 1,36,-1
 62 250 l 1,0,1
322 447 m 1,37,38
 306 450 306 450 293 452 c 128,-1,39
 280 454 280 454 271 454 c 0,40,41
 201 454 201 454 158.5 398.5 c 128,-1,42
 116 343 116 343 116 250 c 0,43,44
 116 199 116 199 131.5 154 c 128,-1,45
 147 109 147 109 176 76 c 1,46,-1
 322 447 l 1,47,-1
 322 447 l 1,37,38
EndSplineSet
EndChar

StartChar: multiply
Encoding: 215 215 45
Width: 521
GlyphClass: 2
Flags: W
LayerCount: 2
Fore
SplineSet
90 333 m 1,0,-1
 129 373 l 1,1,-1
 260 242 l 1,2,-1
 391 373 l 1,3,-1
 431 333 l 1,4,-1
 299 203 l 1,5,-1
 431 71 l 1,6,-1
 391 32 l 1,7,-1
 260 163 l 1,8,-1
 129 32 l 1,9,-1
 90 71 l 1,10,-1
 221 203 l 1,11,-1
 90 333 l 1,12,-1
 90 333 l 1,0,-1
EndSplineSet
EndChar

StartChar: divide
Encoding: 247 247 46
Width: 532
GlyphClass: 2
Flags: W
LayerCount: 2
Fore
SplineSet
442 250 m 1,0,-1
 442 194 l 1,1,-1
 90 194 l 1,2,-1
 90 250 l 1,3,-1
 442 250 l 1,4,-1
 442 250 l 1,0,-1
266 130 m 1,5,6
 287 130 287 130 302 115 c 128,-1,7
 317 100 317 100 317 79 c 256,8,9
 317 58 317 58 302 43 c 128,-1,10
 287 28 287 28 266 28 c 256,11,12
 245 28 245 28 230 43 c 128,-1,13
 215 58 215 58 215 79 c 256,14,15
 215 100 215 100 230 115 c 128,-1,16
 245 130 245 130 266 130 c 1,17,-1
 266 130 l 1,5,6
266 417 m 1,18,19
 287 417 287 417 302 402 c 128,-1,20
 317 387 317 387 317 366 c 256,21,22
 317 345 317 345 302 330 c 128,-1,23
 287 315 287 315 266 315 c 256,24,25
 245 315 245 315 230 330 c 128,-1,26
 215 345 215 345 215 366 c 256,27,28
 215 387 215 387 230 402 c 128,-1,29
 245 417 245 417 266 417 c 1,30,-1
 266 417 l 1,18,19
EndSplineSet
EndChar

StartChar: uni0964
Encoding: 2404 2404 47
Width: 275
GlyphClass: 2
Flags: W
LayerCount: 2
Fore
SplineSet
150 0 m 1,0,-1
 150 500 l 1,1,-1
 200 500 l 1,2,-1
 200 0 l 1,3,-1
 150 0 l 1,4,-1
 150 0 l 1,0,-1
EndSplineSet
EndChar

StartChar: uni0965
Encoding: 2405 2405 48
Width: 435
GlyphClass: 2
Flags: W
LayerCount: 2
Fore
SplineSet
150 0 m 1,0,-1
 150 500 l 1,1,-1
 200 500 l 1,2,-1
 200 0 l 1,3,-1
 150 0 l 1,4,-1
 150 0 l 1,0,-1
310 0 m 1,5,-1
 310 500 l 1,6,-1
 360 500 l 1,7,-1
 360 0 l 1,8,-1
 310 0 l 1,9,-1
 310 0 l 1,5,-1
EndSplineSet
EndChar

StartChar: candrabindubeng
Encoding: 2433 2433 49
Width: 0
GlyphClass: 4
Flags: W
AnchorPoint: "BNAnchor-0" -102 20 mark 0
LayerCount: 2
Fore
SplineSet
-110 575 m 5,0,1
 -173 575 -173 575 -219 614 c 132,-1,2
 -265 653 -265 653 -270 710 c 5,3,-1
 -230 715 l 5,4,5
 -223 672 -223 672 -189 644.5 c 132,-1,6
 -155 617 -155 617 -110 617 c 260,7,8
 -65 617 -65 617 -31 645 c 132,-1,9
 3 673 3 673 10 715 c 5,10,-1
 50 710 l 5,11,12
 45 653 45 653 -1 614 c 132,-1,13
 -47 575 -47 575 -110 575 c 5,14,-1
 -110 575 l 5,0,1
-110 680 m 5,15,16
 -127 680 -127 680 -138.5 689.5 c 132,-1,17
 -150 699 -150 699 -150 713 c 4,18,19
 -150 728 -150 728 -137.5 739 c 132,-1,20
 -125 750 -125 750 -107 750 c 4,21,22
 -92 750 -92 750 -81 739.5 c 132,-1,23
 -70 729 -70 729 -70 715 c 260,24,25
 -70 701 -70 701 -81.5 690.5 c 132,-1,26
 -93 680 -93 680 -110 680 c 5,27,-1
 -110 680 l 5,15,16
EndSplineSet
Position2: "Single Positioning lookup 3" dx=50 dy=80 dh=0 dv=0
EndChar

StartChar: anusvarabeng
Encoding: 2434 2434 50
Width: 331
GlyphClass: 2
Flags: W
LayerCount: 2
Fore
SplineSet
269 -30 m 1,0,1
 230 37 230 37 169 95.5 c 128,-1,2
 108 154 108 154 29 200 c 1,3,-1
 49 235 l 1,4,5
 133 187 133 187 197.5 124.5 c 128,-1,6
 262 62 262 62 304 -10 c 1,7,-1
 269 -30 l 1,8,-1
 269 -30 l 1,0,1
169 290 m 1,9,10
 121 290 121 290 87.5 322 c 128,-1,11
 54 354 54 354 54 400 c 256,12,13
 54 446 54 446 87.5 478 c 128,-1,14
 121 510 121 510 169 510 c 256,15,16
 217 510 217 510 250.5 478 c 128,-1,17
 284 446 284 446 284 400 c 256,18,19
 284 354 284 354 250.5 322 c 128,-1,20
 217 290 217 290 169 290 c 1,21,-1
 169 290 l 1,9,10
169 330 m 1,22,23
 200 330 200 330 222 350.5 c 128,-1,24
 244 371 244 371 244 400 c 256,25,26
 244 429 244 429 222 449.5 c 128,-1,27
 200 470 200 470 169 470 c 256,28,29
 138 470 138 470 116 449.5 c 128,-1,30
 94 429 94 429 94 400 c 256,31,32
 94 371 94 371 116 350.5 c 128,-1,33
 138 330 138 330 169 330 c 1,34,-1
 169 330 l 1,22,23
EndSplineSet
EndChar

StartChar: visargabeng
Encoding: 2435 2435 51
Width: 410
GlyphClass: 2
Flags: W
LayerCount: 2
Fore
SplineSet
205 -10 m 1,0,1
 157 -10 157 -10 123.5 22 c 128,-1,2
 90 54 90 54 90 100 c 256,3,4
 90 146 90 146 123.5 178 c 128,-1,5
 157 210 157 210 205 210 c 256,6,7
 253 210 253 210 286.5 178 c 128,-1,8
 320 146 320 146 320 100 c 256,9,10
 320 54 320 54 286.5 22 c 128,-1,11
 253 -10 253 -10 205 -10 c 1,12,-1
 205 -10 l 1,0,1
205 30 m 1,13,14
 236 30 236 30 258 50.5 c 128,-1,15
 280 71 280 71 280 100 c 256,16,17
 280 129 280 129 258 149.5 c 128,-1,18
 236 170 236 170 205 170 c 256,19,20
 174 170 174 170 152 149.5 c 128,-1,21
 130 129 130 129 130 100 c 256,22,23
 130 71 130 71 152 50.5 c 128,-1,24
 174 30 174 30 205 30 c 1,25,-1
 205 30 l 1,13,14
205 290 m 1,26,27
 157 290 157 290 123.5 322 c 128,-1,28
 90 354 90 354 90 400 c 256,29,30
 90 446 90 446 123.5 478 c 128,-1,31
 157 510 157 510 205 510 c 256,32,33
 253 510 253 510 286.5 478 c 128,-1,34
 320 446 320 446 320 400 c 256,35,36
 320 354 320 354 286.5 322 c 128,-1,37
 253 290 253 290 205 290 c 1,38,-1
 205 290 l 1,26,27
205 330 m 1,39,40
 236 330 236 330 258 350.5 c 128,-1,41
 280 371 280 371 280 400 c 256,42,43
 280 429 280 429 258 449.5 c 128,-1,44
 236 470 236 470 205 470 c 256,45,46
 174 470 174 470 152 449.5 c 128,-1,47
 130 429 130 429 130 400 c 256,48,49
 130 371 130 371 152 350.5 c 128,-1,50
 174 330 174 330 205 330 c 1,51,-1
 205 330 l 1,39,40
EndSplineSet
EndChar

StartChar: abeng
Encoding: 2437 2437 52
Width: 666
GlyphClass: 2
Flags: W
AnchorPoint: "BNAnchor-1" 561 0 basechar 0
AnchorPoint: "BNAnchor-0" 561 0 basechar 0
LayerCount: 2
Fore
SplineSet
536 0 m 1,0,-1
 536 105 l 1,1,2
 517 132 517 132 492.5 150 c 128,-1,3
 468 168 468 168 441 175 c 1,4,5
 421 132 421 132 379 106 c 128,-1,6
 337 80 337 80 286 80 c 0,7,8
 195 80 195 80 121 159.5 c 128,-1,9
 47 239 47 239 26 360 c 1,10,-1
 66 365 l 1,11,12
 85 259 85 259 147 189.5 c 128,-1,13
 209 120 209 120 286 120 c 0,14,15
 338 120 338 120 374.5 153.5 c 128,-1,16
 411 187 411 187 411 235 c 0,17,18
 411 285 411 285 379 320 c 128,-1,19
 347 355 347 355 301 355 c 1,20,21
 305 350 305 350 307.5 343.5 c 128,-1,22
 310 337 310 337 310 331 c 0,23,24
 310 308 310 308 294 291.5 c 128,-1,25
 278 275 278 275 255 275 c 0,26,27
 231 275 231 275 213.5 291 c 128,-1,28
 196 307 196 307 196 330 c 256,29,30
 196 353 196 353 213.5 370.5 c 128,-1,31
 231 388 231 388 256 390 c 1,32,33
 256 412 256 412 247 431.5 c 128,-1,34
 238 451 238 451 221 465 c 1,35,-1
 -10 465 l 1,36,-1
 -10 500 l 1,37,-1
 676 500 l 1,38,-1
 676 465 l 1,39,-1
 576 465 l 1,40,-1
 576 0 l 1,41,-1
 536 0 l 1,42,-1
 536 0 l 1,0,-1
536 155 m 1,43,-1
 536 465 l 1,44,-1
 271 465 l 1,45,46
 283 454 283 454 289.5 436 c 128,-1,47
 296 418 296 418 296 395 c 1,48,49
 361 395 361 395 407 348 c 128,-1,50
 453 301 453 301 453 234 c 0,51,52
 453 230 453 230 452.5 225.5 c 128,-1,53
 452 221 452 221 451 215 c 1,54,55
 479 205 479 205 501 189.5 c 128,-1,56
 523 174 523 174 536 155 c 1,57,-1
 536 155 l 1,43,-1
EndSplineSet
EndChar

StartChar: aabeng
Encoding: 2438 2438 53
Width: 897
GlyphClass: 2
Flags: W
AnchorPoint: "BNAnchor-1" 792 4 basechar 0
AnchorPoint: "BNAnchor-0" 792 2 basechar 0
LayerCount: 2
Fore
SplineSet
536 0 m 1,0,-1
 536 105 l 1,1,2
 517 132 517 132 492.5 150 c 128,-1,3
 468 168 468 168 441 175 c 1,4,5
 421 132 421 132 379 106 c 128,-1,6
 337 80 337 80 286 80 c 0,7,8
 195 80 195 80 121 159.5 c 128,-1,9
 47 239 47 239 26 360 c 1,10,-1
 66 365 l 1,11,12
 85 259 85 259 147 189.5 c 128,-1,13
 209 120 209 120 286 120 c 0,14,15
 338 120 338 120 374.5 153.5 c 128,-1,16
 411 187 411 187 411 235 c 0,17,18
 411 285 411 285 379 320 c 128,-1,19
 347 355 347 355 301 355 c 1,20,21
 305 350 305 350 307.5 343.5 c 128,-1,22
 310 337 310 337 310 331 c 0,23,24
 310 308 310 308 294 291.5 c 128,-1,25
 278 275 278 275 255 275 c 0,26,27
 231 275 231 275 213.5 291 c 128,-1,28
 196 307 196 307 196 330 c 256,29,30
 196 353 196 353 213.5 370.5 c 128,-1,31
 231 388 231 388 256 390 c 1,32,33
 256 412 256 412 247 431.5 c 128,-1,34
 238 451 238 451 221 465 c 1,35,-1
 -10 465 l 1,36,-1
 -10 500 l 1,37,-1
 692 500 l 2,38,39
 716 500 716 500 736 486.5 c 128,-1,40
 756 473 756 473 767 450 c 1,41,-1
 767 560 l 1,42,-1
 807 560 l 1,43,-1
 807 500 l 1,44,-1
 907 500 l 1,45,-1
 907 465 l 1,46,-1
 807 465 l 1,47,-1
 807 0 l 1,48,-1
 767 0 l 1,49,-1
 767 335 l 2,50,51
 762 390 762 390 740.5 427.5 c 128,-1,52
 719 465 719 465 692 465 c 2,53,-1
 576 465 l 1,54,-1
 576 0 l 1,55,-1
 536 0 l 1,56,-1
 536 0 l 1,0,-1
536 155 m 1,57,-1
 536 465 l 1,58,-1
 271 465 l 1,59,60
 283 454 283 454 289.5 436 c 128,-1,61
 296 418 296 418 296 395 c 1,62,63
 361 395 361 395 407 348 c 128,-1,64
 453 301 453 301 453 234 c 0,65,66
 453 230 453 230 452.5 225.5 c 128,-1,67
 452 221 452 221 451 215 c 1,68,69
 479 205 479 205 501 189.5 c 128,-1,70
 523 174 523 174 536 155 c 1,71,-1
 536 155 l 1,57,-1
EndSplineSet
EndChar

StartChar: ibeng
Encoding: 2439 2439 54
Width: 400
GlyphClass: 2
Flags: W
AnchorPoint: "BNAnchor-1" 180 4 basechar 0
AnchorPoint: "BNAnchor-0" 303 31 basechar 0
LayerCount: 2
Fore
SplineSet
387 -95 m 1,0,1
 344 -3 344 -3 246.5 51 c 128,-1,2
 149 105 149 105 27 105 c 1,3,-1
 22 145 l 1,4,-1
 97 140 l 2,5,6
 180 140 180 140 238.5 175 c 128,-1,7
 297 210 297 210 297 260 c 0,8,9
 297 297 297 297 265 323.5 c 128,-1,10
 233 350 233 350 187 350 c 1,11,12
 187 317 187 317 165 293.5 c 128,-1,13
 143 270 143 270 112 270 c 0,14,15
 85 270 85 270 66 284.5 c 128,-1,16
 47 299 47 299 47 320 c 0,17,18
 47 349 47 349 75 369.5 c 128,-1,19
 103 390 103 390 142 390 c 1,20,21
 138 411 138 411 128 430 c 128,-1,22
 118 449 118 449 102 465 c 1,23,-1
 -10 465 l 1,24,-1
 -10 500 l 1,25,-1
 312 500 l 1,26,27
 312 533 312 533 291.5 556.5 c 128,-1,28
 271 580 271 580 242 580 c 0,29,30
 218 580 218 580 172 570 c 128,-1,31
 126 560 126 560 102 560 c 0,32,33
 69 560 69 560 45.5 582 c 128,-1,34
 22 604 22 604 22 635 c 0,35,36
 22 655 22 655 32.5 673.5 c 128,-1,37
 43 692 43 692 62 705 c 1,38,-1
 97 685 l 1,39,40
 81 676 81 676 71.5 664 c 128,-1,41
 62 652 62 652 62 640 c 0,42,43
 62 623 62 623 73.5 611.5 c 128,-1,44
 85 600 85 600 102 600 c 0,45,46
 126 600 126 600 172 610 c 128,-1,47
 218 620 218 620 242 620 c 0,48,49
 288 620 288 620 320 585 c 128,-1,50
 352 550 352 550 352 500 c 1,51,-1
 410 500 l 1,52,-1
 410 465 l 1,53,-1
 152 465 l 1,54,55
 164 444 164 444 171.5 425 c 128,-1,56
 179 406 179 406 182 390 c 1,57,58
 248 384 248 384 292.5 346.5 c 128,-1,59
 337 309 337 309 337 260 c 0,60,61
 337 210 337 210 297.5 170.5 c 128,-1,62
 258 131 258 131 197 120 c 1,63,64
 264 102 264 102 323.5 51.5 c 128,-1,65
 383 1 383 1 427 -75 c 1,66,-1
 387 -95 l 1,67,-1
 387 -95 l 1,0,1
EndSplineSet
EndChar

StartChar: iibeng
Encoding: 2440 2440 55
Width: 502
GlyphClass: 2
Flags: W
AnchorPoint: "BNAnchor-1" 260 0 basechar 0
AnchorPoint: "BNAnchor-0" 354 18 basechar 0
LayerCount: 2
Fore
SplineSet
417 -5 m 1,0,1
 388 24 388 24 372.5 69.5 c 128,-1,2
 357 115 357 115 357 170 c 0,3,4
 357 215 357 215 371 258.5 c 128,-1,5
 385 302 385 302 412 340 c 1,6,7
 363 322 363 322 325.5 288.5 c 128,-1,8
 288 255 288 255 267 210 c 0,9,10
 244 160 244 160 207 130 c 128,-1,11
 170 100 170 100 132 100 c 0,12,13
 95 100 95 100 68.5 123.5 c 128,-1,14
 42 147 42 147 42 180 c 1,15,16
 45 199 45 199 49 210 c 128,-1,17
 53 221 53 221 57 225 c 1,18,-1
 87 210 l 1,19,20
 85 203 85 203 83.5 197 c 128,-1,21
 82 191 82 191 82 185 c 0,22,23
 82 166 82 166 96.5 153 c 128,-1,24
 111 140 111 140 132 140 c 0,25,26
 160 140 160 140 192.5 174 c 128,-1,27
 225 208 225 208 252 265 c 1,28,29
 237 307 237 307 213 333.5 c 128,-1,30
 189 360 189 360 162 365 c 1,31,32
 167 338 167 338 147 316.5 c 128,-1,33
 127 295 127 295 97 295 c 0,34,35
 74 295 74 295 58 309.5 c 128,-1,36
 42 324 42 324 42 345 c 0,37,38
 42 370 42 370 63.5 388.5 c 128,-1,39
 85 407 85 407 117 410 c 1,40,41
 116 413 116 413 110 436 c 128,-1,42
 104 459 104 459 97 465 c 1,43,-1
 -10 465 l 1,44,-1
 -10 500 l 1,45,-1
 392 500 l 1,46,47
 392 533 392 533 367 556.5 c 128,-1,48
 342 580 342 580 307 580 c 0,49,50
 278 580 278 580 222 570 c 128,-1,51
 166 560 166 560 137 560 c 0,52,53
 98 560 98 560 70 586.5 c 128,-1,54
 42 613 42 613 42 650 c 0,55,56
 42 673 42 673 54 693 c 128,-1,57
 66 713 66 713 87 725 c 1,58,-1
 117 705 l 1,59,60
 100 691 100 691 91 676.5 c 128,-1,61
 82 662 82 662 82 650 c 0,62,63
 82 629 82 629 98 614.5 c 128,-1,64
 114 600 114 600 137 600 c 0,65,66
 166 600 166 600 222 610 c 128,-1,67
 278 620 278 620 307 620 c 0,68,69
 359 620 359 620 395.5 585 c 128,-1,70
 432 550 432 550 432 500 c 1,71,-1
 512 500 l 1,72,-1
 512 465 l 1,73,-1
 142 465 l 1,74,75
 148 452 148 452 152 438 c 128,-1,76
 156 424 156 424 157 410 c 1,77,78
 199 403 199 403 232.5 373.5 c 128,-1,79
 266 344 266 344 282 300 c 1,80,81
 320 338 320 338 360.5 359 c 128,-1,82
 401 380 401 380 437 380 c 1,83,-1
 462 340 l 1,84,85
 431 309 431 309 414 264.5 c 128,-1,86
 397 220 397 220 397 170 c 0,87,88
 397 113 397 113 411.5 70.5 c 128,-1,89
 426 28 426 28 452 10 c 1,90,-1
 417 -5 l 1,91,-1
 417 -5 l 1,0,1
EndSplineSet
EndChar

StartChar: ubeng
Encoding: 2441 2441 56
Width: 599
GlyphClass: 2
Flags: W
AnchorPoint: "BNAnchor-1" 364 0 basechar 0
AnchorPoint: "BNAnchor-0" 440 30 basechar 0
LayerCount: 2
Fore
SplineSet
-10 465 m 1,0,-1
 -10 500 l 1,1,-1
 463 500 l 1,2,3
 463 537 463 537 435 563.5 c 128,-1,4
 407 590 407 590 368 590 c 0,5,6
 336 590 336 590 273 580 c 128,-1,7
 210 570 210 570 178 570 c 0,8,9
 135 570 135 570 104 599.5 c 128,-1,10
 73 629 73 629 73 670 c 0,11,12
 73 695 73 695 85 716.5 c 128,-1,13
 97 738 97 738 118 750 c 1,14,-1
 148 725 l 1,15,16
 131 711 131 711 122 696.5 c 128,-1,17
 113 682 113 682 113 670 c 0,18,19
 113 645 113 645 132 627.5 c 128,-1,20
 151 610 151 610 178 610 c 0,21,22
 209 610 209 610 270.5 620 c 128,-1,23
 332 630 332 630 363 630 c 0,24,25
 421 630 421 630 462 592 c 128,-1,26
 503 554 503 554 503 500 c 1,27,-1
 609 500 l 1,28,-1
 609 465 l 1,29,-1
 303 465 l 1,30,-1
 303 320 l 2,31,32
 303 293 303 293 316 274 c 128,-1,33
 329 255 329 255 348 255 c 0,34,35
 374 255 374 255 405 289 c 128,-1,36
 436 323 436 323 463 380 c 1,37,38
 504 365 504 365 528.5 325.5 c 128,-1,39
 553 286 553 286 553 235 c 0,40,41
 553 146 553 146 485.5 83 c 128,-1,42
 418 20 418 20 323 20 c 0,43,44
 205 20 205 20 121.5 125.5 c 128,-1,45
 38 231 38 231 38 380 c 1,46,-1
 78 385 l 1,47,48
 78 250 78 250 150 155 c 128,-1,49
 222 60 222 60 323 60 c 0,50,51
 402 60 402 60 457.5 111.5 c 128,-1,52
 513 163 513 163 513 235 c 0,53,54
 513 261 513 261 504 283.5 c 128,-1,55
 495 306 495 306 478 320 c 1,56,57
 450 271 450 271 415 243 c 128,-1,58
 380 215 380 215 348 215 c 0,59,60
 313 215 313 215 288 246 c 128,-1,61
 263 277 263 277 263 320 c 2,62,-1
 263 465 l 1,63,-1
 -10 465 l 1,64,-1
 -10 465 l 1,0,-1
EndSplineSet
EndChar

StartChar: uubeng
Encoding: 2442 2442 57
Width: 653
GlyphClass: 2
Flags: W
AnchorPoint: "BNAnchor-1" 416 0 basechar 0
AnchorPoint: "BNAnchor-0" 492 16 basechar 0
LayerCount: 2
Fore
SplineSet
-10 465 m 1,0,-1
 -10 500 l 1,1,-1
 507 500 l 1,2,3
 507 535 507 535 480.5 560 c 128,-1,4
 454 585 454 585 417 585 c 0,5,6
 384 585 384 585 319.5 570 c 128,-1,7
 255 555 255 555 222 555 c 0,8,9
 179 555 179 555 148 583 c 128,-1,10
 117 611 117 611 117 650 c 0,11,12
 117 679 117 679 134.5 706 c 128,-1,13
 152 733 152 733 182 750 c 1,14,-1
 207 720 l 1,15,16
 184 707 184 707 170.5 688 c 128,-1,17
 157 669 157 669 157 650 c 0,18,19
 157 627 157 627 176 611 c 128,-1,20
 195 595 195 595 222 595 c 0,21,22
 255 595 255 595 319.5 610 c 128,-1,23
 384 625 384 625 417 625 c 0,24,25
 471 625 471 625 509 588.5 c 128,-1,26
 547 552 547 552 547 500 c 1,27,-1
 663 500 l 1,28,-1
 663 465 l 1,29,-1
 357 465 l 1,30,-1
 357 320 l 2,31,32
 357 293 357 293 368.5 274 c 128,-1,33
 380 255 380 255 397 255 c 0,34,35
 422 255 422 255 451.5 287.5 c 128,-1,36
 481 320 481 320 507 375 c 1,37,38
 553 348 553 348 580 305 c 128,-1,39
 607 262 607 262 607 215 c 0,40,41
 607 124 607 124 541.5 69.5 c 128,-1,42
 476 15 476 15 367 15 c 0,43,44
 228 15 228 15 130 111.5 c 128,-1,45
 32 208 32 208 32 345 c 1,46,-1
 67 345 l 1,47,48
 67 243 67 243 138 159 c 128,-1,49
 209 75 209 75 322 45 c 1,50,51
 238 93 238 93 190 180 c 128,-1,52
 142 267 142 267 142 370 c 1,53,-1
 182 370 l 1,54,55
 182 244 182 244 248 154.5 c 128,-1,56
 314 65 314 65 407 65 c 0,57,58
 473 65 473 65 520 107.5 c 128,-1,59
 567 150 567 150 567 210 c 0,60,61
 567 240 567 240 554 267.5 c 128,-1,62
 541 295 541 295 517 315 c 1,63,64
 496 269 496 269 463.5 242 c 128,-1,65
 431 215 431 215 397 215 c 0,66,67
 364 215 364 215 340.5 246 c 128,-1,68
 317 277 317 277 317 320 c 2,69,-1
 317 465 l 1,70,-1
 -10 465 l 1,71,-1
 -10 465 l 1,0,-1
EndSplineSet
EndChar

StartChar: rvocalic
Encoding: 2443 2443 58
Width: 636
GlyphClass: 2
Flags: W
AnchorPoint: "BNAnchor-1" 392 -4 basechar 0
AnchorPoint: "BNAnchor-0" 392 4 basechar 0
LayerCount: 2
Fore
SplineSet
377 0 m 1,0,1
 340 79 340 79 272 128.5 c 128,-1,2
 204 178 204 178 122 185 c 1,3,-1
 92 225 l 1,4,5
 145 278 145 278 207.5 315 c 128,-1,6
 270 352 270 352 337 370 c 1,7,8
 299 377 299 377 269 396.5 c 128,-1,9
 239 416 239 416 222 445 c 1,10,11
 196 407 196 407 162.5 386 c 128,-1,12
 129 365 129 365 97 365 c 0,13,14
 62 365 62 365 37 388.5 c 128,-1,15
 12 412 12 412 12 445 c 0,16,17
 12 468 12 468 26.5 484 c 128,-1,18
 41 500 41 500 62 500 c 0,19,20
 79 500 79 500 90.5 489.5 c 128,-1,21
 102 479 102 479 102 465 c 256,22,23
 102 451 102 451 94.5 440.5 c 128,-1,24
 87 430 87 430 77 430 c 2,25,-1
 67 430 l 1,26,27
 67 422 67 422 77.5 416 c 128,-1,28
 88 410 88 410 102 410 c 0,29,30
 124 410 124 410 155.5 438 c 128,-1,31
 187 466 187 466 222 515 c 1,32,33
 245 465 245 465 286 435 c 128,-1,34
 327 405 327 405 372 405 c 1,35,-1
 372 500 l 1,36,-1
 412 500 l 1,37,-1
 412 255 l 1,38,39
 451 237 451 237 479 214 c 128,-1,40
 507 191 507 191 522 165 c 1,41,-1
 522 560 l 1,42,-1
 562 560 l 1,43,-1
 562 500 l 1,44,-1
 646 500 l 1,45,-1
 646 465 l 1,46,-1
 562 465 l 1,47,-1
 562 80 l 1,48,-1
 532 80 l 1,49,50
 522 117 522 117 491 152.5 c 128,-1,51
 460 188 460 188 412 215 c 1,52,-1
 412 0 l 1,53,-1
 377 0 l 1,54,-1
 377 0 l 1,0,1
372 80 m 1,55,-1
 372 335 l 1,56,57
 298 315 298 315 241 286 c 128,-1,58
 184 257 184 257 147 220 c 1,59,60
 211 214 211 214 270 177.5 c 128,-1,61
 329 141 329 141 372 80 c 1,62,-1
 372 80 l 1,55,-1
EndSplineSet
EndChar

StartChar: lvocalic
Encoding: 2444 2444 59
Width: 463
GlyphClass: 2
Flags: W
AnchorPoint: "BNAnchor-1" 293 0 basechar 0
AnchorPoint: "BNAnchor-0" 293 1 basechar 0
LayerCount: 2
Fore
SplineSet
84 450 m 1,0,1
 84 462 84 462 90.5 476.5 c 128,-1,2
 97 491 97 491 109 505 c 1,3,-1
 144 485 l 1,4,5
 137 479 137 479 133 468.5 c 128,-1,6
 129 458 129 458 129 445 c 0,7,8
 129 414 129 414 163.5 382 c 128,-1,9
 198 350 198 350 254 330 c 0,10,11
 331 302 331 302 377.5 255.5 c 128,-1,12
 424 209 424 209 424 160 c 0,13,14
 424 101 424 101 386 55.5 c 128,-1,15
 348 10 348 10 289 0 c 1,16,-1
 254 30 l 1,17,18
 265 59 265 59 269.5 75 c 128,-1,19
 274 91 274 91 274 100 c 0,20,21
 274 139 274 139 246 167 c 128,-1,22
 218 195 218 195 179 195 c 0,23,24
 138 195 138 195 108.5 170 c 128,-1,25
 79 145 79 145 79 110 c 0,26,27
 79 90 79 90 90 73.5 c 128,-1,28
 101 57 101 57 119 50 c 1,29,30
 119 69 119 69 132 82 c 128,-1,31
 145 95 145 95 164 95 c 0,32,33
 185 95 185 95 199.5 82 c 128,-1,34
 214 69 214 69 214 50 c 0,35,36
 214 29 214 29 195 14.5 c 128,-1,37
 176 0 176 0 149 0 c 0,38,39
 103 0 103 0 71 32 c 128,-1,40
 39 64 39 64 39 110 c 0,41,42
 39 162 39 162 80 198.5 c 128,-1,43
 121 235 121 235 179 235 c 0,44,45
 235 235 235 235 274.5 195.5 c 128,-1,46
 314 156 314 156 314 100 c 0,47,48
 314 84 314 84 311.5 71.5 c 128,-1,49
 309 59 309 59 304 50 c 1,50,51
 338 62 338 62 358.5 92.5 c 128,-1,52
 379 123 379 123 379 160 c 0,53,54
 379 198 379 198 336.5 236.5 c 128,-1,55
 294 275 294 275 224 300 c 0,56,57
 161 323 161 323 122.5 364 c 128,-1,58
 84 405 84 405 84 450 c 1,59,-1
 84 450 l 1,0,1
EndSplineSet
EndChar

StartChar: ebeng
Encoding: 2447 2447 60
Width: 585
GlyphClass: 2
Flags: W
AnchorPoint: "BNAnchor-1" 472 0 basechar 0
AnchorPoint: "BNAnchor-0" 472 -5 basechar 0
LayerCount: 2
Fore
SplineSet
455 0 m 1,0,1
 451 49 451 49 410.5 82 c 128,-1,2
 370 115 370 115 314 115 c 0,3,4
 292 115 292 115 249.5 107.5 c 128,-1,5
 207 100 207 100 185 100 c 0,6,7
 127 100 127 100 86 150 c 128,-1,8
 45 200 45 200 45 270 c 0,9,10
 45 301 45 301 52.5 330 c 128,-1,11
 60 359 60 359 75 385 c 1,12,-1
 110 365 l 1,13,14
 98 344 98 344 91.5 319.5 c 128,-1,15
 85 295 85 295 85 270 c 0,16,17
 85 216 85 216 114.5 178 c 128,-1,18
 144 140 144 140 185 140 c 0,19,20
 207 140 207 140 250 147.5 c 128,-1,21
 293 155 293 155 315 155 c 0,22,23
 361 155 361 155 398.5 136 c 128,-1,24
 436 117 436 117 455 84 c 1,25,-1
 455 420 l 2,26,27
 455 439 455 439 440.5 452 c 128,-1,28
 426 465 426 465 405 465 c 0,29,30
 355 465 355 465 305 415 c 128,-1,31
 255 365 255 365 255 315 c 1,32,33
 261 318 261 318 268.5 319.5 c 128,-1,34
 276 321 276 321 284 321 c 0,35,36
 307 321 307 321 323.5 307.5 c 128,-1,37
 340 294 340 294 340 275 c 0,38,39
 340 254 340 254 322.5 239.5 c 128,-1,40
 305 225 305 225 280 225 c 0,41,42
 253 225 253 225 234 248.5 c 128,-1,43
 215 272 215 272 215 305 c 0,44,45
 215 375 215 375 276.5 440 c 128,-1,46
 338 505 338 505 405 505 c 0,47,48
 442 505 442 505 468.5 477 c 128,-1,49
 495 449 495 449 495 410 c 2,50,-1
 495 0 l 1,51,-1
 455 0 l 1,52,-1
 455 0 l 1,0,1
EndSplineSet
EndChar

StartChar: aibeng
Encoding: 2448 2448 61
Width: 618
GlyphClass: 2
Flags: W
AnchorPoint: "BNAnchor-1" 460 0 basechar 0
AnchorPoint: "BNAnchor-0" 494 22 basechar 0
LayerCount: 2
Fore
SplineSet
449 0 m 1,0,1
 436 49 436 49 393 79.5 c 128,-1,2
 350 110 350 110 294 110 c 0,3,4
 276 110 276 110 241.5 105 c 128,-1,5
 207 100 207 100 189 100 c 0,6,7
 127 100 127 100 83 142.5 c 128,-1,8
 39 185 39 185 39 245 c 0,9,10
 39 274 39 274 48 302.5 c 128,-1,11
 57 331 57 331 74 355 c 1,12,-1
 109 335 l 1,13,14
 94 314 94 314 86.5 291 c 128,-1,15
 79 268 79 268 79 245 c 0,16,17
 79 202 79 202 111 171 c 128,-1,18
 143 140 143 140 189 140 c 0,19,20
 207 140 207 140 241.5 145 c 128,-1,21
 276 150 276 150 294 150 c 0,22,23
 339 150 339 150 380 127.5 c 128,-1,24
 421 105 421 105 449 65 c 1,25,-1
 449 400 l 2,26,27
 449 427 449 427 436 446 c 128,-1,28
 423 465 423 465 404 465 c 0,29,30
 350 465 350 465 299.5 408 c 128,-1,31
 249 351 249 351 249 290 c 1,32,33
 256 297 256 297 265 301 c 128,-1,34
 274 305 274 305 284 305 c 0,35,36
 303 305 303 305 316 293.5 c 128,-1,37
 329 282 329 282 329 265 c 0,38,39
 329 244 329 244 314.5 229.5 c 128,-1,40
 300 215 300 215 279 215 c 0,41,42
 250 215 250 215 229.5 238.5 c 128,-1,43
 209 262 209 262 209 295 c 0,44,45
 209 369 209 369 272.5 437 c 128,-1,46
 336 505 336 505 404 505 c 0,47,48
 439 505 439 505 464 475.5 c 128,-1,49
 489 446 489 446 489 405 c 2,50,-1
 489 370 l 1,51,52
 524 376 524 376 546.5 406 c 128,-1,53
 569 436 569 436 569 475 c 0,54,55
 569 518 569 518 522 549 c 128,-1,56
 475 580 475 580 409 580 c 0,57,58
 328 580 328 580 271 613.5 c 128,-1,59
 214 647 214 647 214 695 c 0,60,61
 214 706 214 706 219 716.5 c 128,-1,62
 224 727 224 727 234 735 c 1,63,-1
 269 720 l 1,64,65
 262 716 262 716 258 709.5 c 128,-1,66
 254 703 254 703 254 695 c 0,67,68
 254 664 254 664 302.5 642 c 128,-1,69
 351 620 351 620 419 620 c 0,70,71
 498 620 498 620 553.5 577.5 c 128,-1,72
 609 535 609 535 609 475 c 0,73,74
 609 425 609 425 575.5 384.5 c 128,-1,75
 542 344 542 344 489 330 c 1,76,-1
 489 0 l 1,77,-1
 449 0 l 1,78,-1
 449 0 l 1,0,1
EndSplineSet
EndChar

StartChar: obeng
Encoding: 2451 2451 62
Width: 566
GlyphClass: 2
Flags: W
AnchorPoint: "BNAnchor-1" 336 -4 basechar 0
AnchorPoint: "BNAnchor-0" 336 -5 basechar 0
LayerCount: 2
Fore
SplineSet
329 -10 m 1,0,1
 218 -10 218 -10 133 98 c 128,-1,2
 48 206 48 206 34 365 c 1,3,-1
 74 370 l 1,4,5
 87 226 87 226 160 128 c 128,-1,6
 233 30 233 30 329 30 c 0,7,8
 387 30 387 30 428 62 c 128,-1,9
 469 94 469 94 469 140 c 0,10,11
 469 176 469 176 445.5 205.5 c 128,-1,12
 422 235 422 235 384 245 c 1,13,14
 367 235 367 235 351.5 230 c 128,-1,15
 336 225 336 225 324 225 c 0,16,17
 305 225 305 225 292 235.5 c 128,-1,18
 279 246 279 246 279 260 c 0,19,20
 279 277 279 277 290.5 288.5 c 128,-1,21
 302 300 302 300 319 300 c 0,22,23
 338 300 338 300 354.5 296 c 128,-1,24
 371 292 371 292 384 285 c 1,25,26
 410 303 410 303 424.5 328 c 128,-1,27
 439 353 439 353 439 380 c 0,28,29
 439 413 439 413 407 436.5 c 128,-1,30
 375 460 375 460 329 460 c 0,31,32
 288 460 288 460 258.5 447.5 c 128,-1,33
 229 435 229 435 224 415 c 1,34,35
 242 418 242 418 255.5 404.5 c 128,-1,36
 269 391 269 391 269 370 c 0,37,38
 269 353 269 353 254.5 341.5 c 128,-1,39
 240 330 240 330 219 330 c 0,40,41
 200 330 200 330 187 346 c 128,-1,42
 174 362 174 362 174 385 c 0,43,44
 174 433 174 433 219.5 466.5 c 128,-1,45
 265 500 265 500 329 500 c 0,46,47
 391 500 391 500 435 465 c 128,-1,48
 479 430 479 430 479 380 c 0,49,50
 479 345 479 345 466 315 c 128,-1,51
 453 285 453 285 429 265 c 1,52,53
 466 248 466 248 487.5 214 c 128,-1,54
 509 180 509 180 509 140 c 0,55,56
 509 78 509 78 456.5 34 c 128,-1,57
 404 -10 404 -10 329 -10 c 1,58,-1
 329 -10 l 1,0,1
EndSplineSet
EndChar

StartChar: aubeng
Encoding: 2452 2452 63
Width: 631
GlyphClass: 2
Flags: W
AnchorPoint: "BNAnchor-1" 392 -8 basechar 0
AnchorPoint: "BNAnchor-0" 481 3 basechar 0
LayerCount: 2
Fore
SplineSet
330 -10 m 1,0,1
 219 -10 219 -10 134 99.5 c 128,-1,2
 49 209 49 209 35 370 c 1,3,-1
 75 375 l 1,4,5
 88 229 88 229 161.5 129.5 c 128,-1,6
 235 30 235 30 330 30 c 0,7,8
 388 30 388 30 429 62 c 128,-1,9
 470 94 470 94 470 140 c 0,10,11
 470 176 470 176 446.5 205.5 c 128,-1,12
 423 235 423 235 385 245 c 1,13,14
 368 235 368 235 352.5 230 c 128,-1,15
 337 225 337 225 325 225 c 0,16,17
 306 225 306 225 293 235.5 c 128,-1,18
 280 246 280 246 280 260 c 0,19,20
 280 277 280 277 293 288.5 c 128,-1,21
 306 300 306 300 325 300 c 0,22,23
 339 300 339 300 353 296 c 128,-1,24
 367 292 367 292 380 285 c 1,25,26
 406 303 406 303 420.5 327 c 128,-1,27
 435 351 435 351 435 375 c 0,28,29
 435 414 435 414 403 442 c 128,-1,30
 371 470 371 470 325 470 c 0,31,32
 286 470 286 470 257 456.5 c 128,-1,33
 228 443 228 443 220 420 c 1,34,35
 243 420 243 420 259 407 c 128,-1,36
 275 394 275 394 275 375 c 0,37,38
 275 354 275 354 259 339.5 c 128,-1,39
 243 325 243 325 220 325 c 0,40,41
 199 325 199 325 184.5 344 c 128,-1,42
 170 363 170 363 170 390 c 0,43,44
 170 438 170 438 217 471.5 c 128,-1,45
 264 505 264 505 330 505 c 0,46,47
 390 505 390 505 432.5 467 c 128,-1,48
 475 429 475 429 475 375 c 1,49,50
 518 375 518 375 549 400 c 128,-1,51
 580 425 580 425 580 460 c 0,52,53
 580 501 580 501 532.5 532.5 c 128,-1,54
 485 564 485 564 415 570 c 0,55,56
 322 578 322 578 258.5 620.5 c 128,-1,57
 195 663 195 663 195 717 c 0,58,59
 195 725 195 725 196.5 731 c 128,-1,60
 198 737 198 737 200 740 c 1,61,-1
 245 740 l 1,62,63
 243 733 243 733 241.5 728 c 128,-1,64
 240 723 240 723 240 720 c 0,65,66
 240 678 240 678 296 645 c 128,-1,67
 352 612 352 612 435 605 c 0,68,69
 514 598 514 598 567 556.5 c 128,-1,70
 620 515 620 515 620 460 c 0,71,72
 620 408 620 408 575.5 371.5 c 128,-1,73
 531 335 531 335 468 335 c 1,74,75
 467 320 467 320 455.5 303 c 128,-1,76
 444 286 444 286 425 270 c 1,77,78
 464 252 464 252 487 216.5 c 128,-1,79
 510 181 510 181 510 140 c 0,80,81
 510 78 510 78 457.5 34 c 128,-1,82
 405 -10 405 -10 330 -10 c 1,83,-1
 330 -10 l 1,0,1
EndSplineSet
EndChar

StartChar: kabeng
Encoding: 2453 2453 64
Width: 538
GlyphClass: 2
Flags: W
AnchorPoint: "BNAnchor-2" 306 -4 basechar 0
AnchorPoint: "BNAnchor-1" 291 0 basechar 0
AnchorPoint: "BNAnchor-0" 292 -2 basechar 0
LayerCount: 2
Fore
SplineSet
272 0 m 1,0,1
 242 82 242 82 184.5 135.5 c 128,-1,2
 127 189 127 189 57 200 c 1,3,-1
 17 235 l 1,4,5
 68 307 68 307 134.5 350.5 c 128,-1,6
 201 394 201 394 272 400 c 1,7,-1
 272 465 l 1,8,-1
 -10 465 l 1,9,-1
 -10 500 l 1,10,-1
 548 500 l 1,11,-1
 548 465 l 1,12,-1
 312 465 l 1,13,-1
 312 400 l 1,14,15
 393 393 393 393 447.5 342.5 c 128,-1,16
 502 292 502 292 502 225 c 0,17,18
 502 188 502 188 480.5 161.5 c 128,-1,19
 459 135 459 135 428 135 c 0,20,21
 405 135 405 135 388.5 148 c 128,-1,22
 372 161 372 161 372 180 c 0,23,24
 372 201 372 201 387 215.5 c 128,-1,25
 402 230 402 230 424 230 c 0,26,27
 434 230 434 230 443.5 228 c 128,-1,28
 453 226 453 226 460 223 c 1,29,30
 461 225 461 225 461.5 228 c 128,-1,31
 462 231 462 231 462 235 c 0,32,33
 462 279 462 279 416.5 317 c 128,-1,34
 371 355 371 355 312 360 c 1,35,-1
 312 0 l 1,36,-1
 272 0 l 1,37,-1
 272 0 l 1,0,1
272 80 m 1,38,-1
 272 360 l 1,39,40
 213 355 213 355 160.5 323.5 c 128,-1,41
 108 292 108 292 72 240 c 1,42,43
 140 222 140 222 192.5 180 c 128,-1,44
 245 138 245 138 272 80 c 1,45,-1
 272 80 l 1,38,-1
EndSplineSet
EndChar

StartChar: khabeng
Encoding: 2454 2454 65
Width: 505
GlyphClass: 2
Flags: W
AnchorPoint: "BNAnchor-2" 415 -3 basechar 0
AnchorPoint: "BNAnchor-1" 393 -4 basechar 0
AnchorPoint: "BNAnchor-0" 406 0 basechar 0
LayerCount: 2
Fore
SplineSet
375 0 m 1,0,1
 348 100 348 100 270 162.5 c 128,-1,2
 192 225 192 225 95 225 c 1,3,-1
 95 260 l 1,4,5
 162 272 162 272 206 316 c 128,-1,6
 250 360 250 360 250 415 c 0,7,8
 250 433 250 433 243.5 447.5 c 128,-1,9
 237 462 237 462 225 470 c 1,10,11
 197 430 197 430 162.5 407.5 c 128,-1,12
 128 385 128 385 95 385 c 0,13,14
 58 385 58 385 31.5 407 c 128,-1,15
 5 429 5 429 5 460 c 0,16,17
 5 483 5 483 19.5 499 c 128,-1,18
 34 515 34 515 55 515 c 0,19,20
 74 515 74 515 87 503.5 c 128,-1,21
 100 492 100 492 100 475 c 0,22,23
 100 463 100 463 90.5 452 c 128,-1,24
 81 441 81 441 65 435 c 1,25,26
 71 430 71 430 78.5 427.5 c 128,-1,27
 86 425 86 425 94 425 c 0,28,29
 115 425 115 425 135 437 c 128,-1,30
 155 449 155 449 170 470 c 0,31,32
 183 489 183 489 197.5 499.5 c 128,-1,33
 212 510 212 510 225 510 c 0,34,35
 252 510 252 510 271 480.5 c 128,-1,36
 290 451 290 451 290 410 c 0,37,38
 290 356 290 356 260 312 c 128,-1,39
 230 268 230 268 180 250 c 1,40,41
 240 239 240 239 292 195.5 c 128,-1,42
 344 152 344 152 375 85 c 1,43,-1
 375 560 l 1,44,-1
 415 560 l 1,45,-1
 415 500 l 1,46,-1
 515 500 l 1,47,-1
 515 465 l 1,48,-1
 415 465 l 1,49,-1
 415 0 l 1,50,-1
 375 0 l 1,51,-1
 375 0 l 1,0,1
EndSplineSet
EndChar

StartChar: gabeng
Encoding: 2455 2455 66
Width: 504
GlyphClass: 2
Flags: W
AnchorPoint: "BNAnchor-2" 411 -15 basechar 0
AnchorPoint: "BNAnchor-1" 394 0 basechar 0
AnchorPoint: "BNAnchor-0" 398 0 basechar 0
LayerCount: 2
Fore
SplineSet
374 0 m 1,0,-1
 374 320 l 1,1,2
 357 384 357 384 311 424.5 c 128,-1,3
 265 465 265 465 209 465 c 0,4,5
 151 465 151 465 110 422.5 c 128,-1,6
 69 380 69 380 69 320 c 1,7,8
 91 342 91 342 114 353.5 c 128,-1,9
 137 365 137 365 159 365 c 0,10,11
 207 365 207 365 240.5 334 c 128,-1,12
 274 303 274 303 274 260 c 0,13,14
 274 221 274 221 238.5 182 c 128,-1,15
 203 143 203 143 144 115 c 1,16,-1
 124 150 l 1,17,18
 174 173 174 173 204 203 c 128,-1,19
 234 233 234 233 234 260 c 256,20,21
 234 287 234 287 212 306 c 128,-1,22
 190 325 190 325 159 325 c 0,23,24
 141 325 141 325 114 302.5 c 128,-1,25
 87 280 87 280 69 280 c 0,26,27
 52 280 52 280 40.5 293 c 128,-1,28
 29 306 29 306 29 325 c 0,29,30
 29 400 29 400 81.5 452.5 c 128,-1,31
 134 505 134 505 209 505 c 0,32,33
 257 505 257 505 301.5 477 c 128,-1,34
 346 449 346 449 374 400 c 1,35,-1
 374 560 l 1,36,-1
 414 560 l 1,37,-1
 414 500 l 1,38,-1
 514 500 l 1,39,-1
 514 465 l 1,40,-1
 414 465 l 1,41,-1
 414 0 l 1,42,-1
 374 0 l 1,43,-1
 374 0 l 1,0,-1
EndSplineSet
EndChar

StartChar: ghabeng
Encoding: 2456 2456 67
Width: 475
GlyphClass: 2
Flags: W
AnchorPoint: "BNAnchor-2" 381 -4 basechar 0
AnchorPoint: "BNAnchor-1" 363 -4 basechar 0
AnchorPoint: "BNAnchor-0" 362 -1 basechar 0
LayerCount: 2
Fore
SplineSet
345 0 m 1,0,1
 311 73 311 73 240 120 c 128,-1,2
 169 167 169 167 80 175 c 1,3,-1
 50 205 l 1,4,-1
 140 285 l 1,5,6
 94 293 94 293 64.5 321.5 c 128,-1,7
 35 350 35 350 35 385 c 0,8,9
 35 408 35 408 47 429 c 128,-1,10
 59 450 59 450 80 465 c 1,11,-1
 -10 465 l 1,12,-1
 -10 500 l 1,13,-1
 485 500 l 1,14,-1
 485 465 l 1,15,-1
 385 465 l 1,16,-1
 385 0 l 1,17,-1
 345 0 l 1,18,-1
 345 0 l 1,0,1
345 70 m 1,19,-1
 345 465 l 1,20,-1
 140 465 l 1,21,22
 110 448 110 448 92.5 426.5 c 128,-1,23
 75 405 75 405 75 385 c 0,24,25
 75 360 75 360 97 342.5 c 128,-1,26
 119 325 119 325 150 325 c 0,27,28
 164 325 164 325 175 327.5 c 128,-1,29
 186 330 186 330 195 335 c 1,30,-1
 235 370 l 1,31,-1
 260 340 l 1,32,-1
 115 210 l 1,33,34
 194 196 194 196 254.5 159.5 c 128,-1,35
 315 123 315 123 345 70 c 1,36,-1
 345 70 l 1,19,-1
EndSplineSet
EndChar

StartChar: ngabeng
Encoding: 2457 2457 68
Width: 564
GlyphClass: 2
Flags: W
AnchorPoint: "BNAnchor-2" 334 -4 basechar 0
AnchorPoint: "BNAnchor-1" 353 4 basechar 0
AnchorPoint: "BNAnchor-0" 369 0 basechar 0
LayerCount: 2
Fore
SplineSet
318 -15 m 1,0,1
 202 -15 202 -15 120 92 c 128,-1,2
 38 199 38 199 38 350 c 1,3,-1
 78 350 l 1,4,5
 78 215 78 215 148.5 120 c 128,-1,6
 219 25 219 25 318 25 c 0,7,8
 384 25 384 25 431 66 c 128,-1,9
 478 107 478 107 478 165 c 0,10,11
 478 200 478 200 463.5 225 c 128,-1,12
 449 250 449 250 428 250 c 0,13,14
 422 250 422 250 410.5 235.5 c 128,-1,15
 399 221 399 221 388 210 c 2,16,17
 373 189 373 189 353 177 c 128,-1,18
 333 165 333 165 313 165 c 0,19,20
 267 165 267 165 235 197 c 128,-1,21
 203 229 203 229 203 275 c 0,22,23
 203 302 203 302 207 326 c 128,-1,24
 211 350 211 350 218 370 c 1,25,26
 182 387 182 387 149 416 c 128,-1,27
 116 445 116 445 88 485 c 1,28,-1
 123 510 l 1,29,30
 150 471 150 471 178 444 c 128,-1,31
 206 417 206 417 233 405 c 1,32,33
 260 451 260 451 297.5 478 c 128,-1,34
 335 505 335 505 373 505 c 0,35,36
 408 505 408 505 433 483 c 128,-1,37
 458 461 458 461 458 430 c 0,38,39
 458 389 458 389 421.5 357 c 128,-1,40
 385 325 385 325 338 325 c 0,41,42
 318 325 318 325 296 331.5 c 128,-1,43
 274 338 274 338 253 350 c 1,44,45
 248 341 248 341 245.5 322 c 128,-1,46
 243 303 243 303 243 275 c 0,47,48
 243 246 243 246 263.5 225.5 c 128,-1,49
 284 205 284 205 313 205 c 0,50,51
 326 205 326 205 341 217 c 128,-1,52
 356 229 356 229 368 250 c 0,53,54
 381 269 381 269 397 279.5 c 128,-1,55
 413 290 413 290 428 290 c 0,56,57
 465 290 465 290 491.5 250.5 c 128,-1,58
 518 211 518 211 518 155 c 0,59,60
 518 85 518 85 459.5 35 c 128,-1,61
 401 -15 401 -15 318 -15 c 1,62,-1
 318 -15 l 1,0,1
338 365 m 1,63,64
 371 365 371 365 394.5 382.5 c 128,-1,65
 418 400 418 400 418 425 c 0,66,67
 418 442 418 442 405 453.5 c 128,-1,68
 392 465 392 465 373 465 c 0,69,70
 344 465 344 465 317 443.5 c 128,-1,71
 290 422 290 422 273 385 c 1,72,73
 290 375 290 375 306.5 370 c 128,-1,74
 323 365 323 365 338 365 c 1,75,-1
 338 365 l 1,63,64
EndSplineSet
EndChar

StartChar: cabeng
Encoding: 2458 2458 69
Width: 415
GlyphClass: 2
Flags: W
AnchorPoint: "BNAnchor-2" 179 15 basechar 0
AnchorPoint: "BNAnchor-1" 233 -5 basechar 0
AnchorPoint: "BNAnchor-0" 257 -5 basechar 0
LayerCount: 2
Fore
SplineSet
173 14 m 1,0,1
 136 14 136 14 109.5 43.5 c 128,-1,2
 83 73 83 73 83 114 c 2,3,-1
 83 465 l 1,4,-1
 -10 465 l 1,5,-1
 -10 500 l 1,6,-1
 425 500 l 1,7,-1
 425 465 l 1,8,-1
 123 465 l 1,9,-1
 123 430 l 2,10,11
 123 402 123 402 165.5 369 c 128,-1,12
 208 336 208 336 278 311 c 0,13,14
 325 294 325 294 354 269 c 128,-1,15
 383 244 383 244 383 221 c 0,16,17
 383 157 383 157 310.5 85.5 c 128,-1,18
 238 14 238 14 173 14 c 1,19,-1
 173 14 l 1,0,1
123 114 m 1,20,21
 123 89 123 89 136 71.5 c 128,-1,22
 149 54 149 54 168 54 c 0,23,24
 222 54 222 54 282.5 111.5 c 128,-1,25
 343 169 343 169 343 221 c 0,26,27
 343 233 343 233 322.5 248.5 c 128,-1,28
 302 264 302 264 268 276 c 0,29,30
 201 300 201 300 166 318.5 c 128,-1,31
 131 337 131 337 123 355 c 1,32,-1
 123 114 l 1,33,-1
 123 114 l 1,20,21
EndSplineSet
EndChar

StartChar: chabeng
Encoding: 2459 2459 70
Width: 466
GlyphClass: 2
Flags: W
AnchorPoint: "BNAnchor-2" 213 14 basechar 0
AnchorPoint: "BNAnchor-1" 301 -4 basechar 0
AnchorPoint: "BNAnchor-0" 292 -4 basechar 0
LayerCount: 2
Fore
SplineSet
471 -110 m 1,0,1
 433 -28 433 -28 353 21 c 128,-1,2
 273 70 273 70 176 70 c 0,3,4
 150 70 150 70 138.5 69 c 128,-1,5
 127 68 127 68 121 65 c 1,6,-1
 101 115 l 1,7,8
 111 112 111 112 131.5 111 c 128,-1,9
 152 110 152 110 186 110 c 0,10,11
 261 110 261 110 313.5 160 c 128,-1,12
 366 210 366 210 366 280 c 0,13,14
 366 305 366 305 350 322.5 c 128,-1,15
 334 340 334 340 311 340 c 0,16,17
 296 340 296 340 277 322.5 c 128,-1,18
 258 305 258 305 241 275 c 0,19,20
 220 229 220 229 188.5 202 c 128,-1,21
 157 175 157 175 126 175 c 0,22,23
 97 175 97 175 76.5 198.5 c 128,-1,24
 56 222 56 222 56 255 c 2,25,-1
 56 465 l 1,26,-1
 -10 465 l 1,27,-1
 -10 500 l 1,28,-1
 476 500 l 1,29,-1
 476 465 l 1,30,-1
 96 465 l 1,31,-1
 96 455 l 2,32,33
 96 431 96 431 117 412 c 128,-1,34
 138 393 138 393 171 387 c 0,35,36
 199 382 199 382 219 372.5 c 128,-1,37
 239 363 239 363 246 350 c 1,38,39
 258 364 258 364 275 372 c 128,-1,40
 292 380 292 380 311 380 c 0,41,42
 350 380 350 380 378 350.5 c 128,-1,43
 406 321 406 321 406 280 c 0,44,45
 406 220 406 220 372 168.5 c 128,-1,46
 338 117 338 117 281 90 c 1,47,48
 354 71 354 71 411.5 22 c 128,-1,49
 469 -27 469 -27 501 -95 c 1,50,-1
 471 -110 l 1,51,-1
 471 -110 l 1,0,1
126 215 m 1,52,53
 147 215 147 215 171.5 241 c 128,-1,54
 196 267 196 267 216 310 c 1,55,56
 216 324 216 324 199 336.5 c 128,-1,57
 182 349 182 349 156 355 c 0,58,59
 132 361 132 361 116 370 c 128,-1,60
 100 379 100 379 96 390 c 1,61,-1
 96 255 l 2,62,63
 96 238 96 238 105 226.5 c 128,-1,64
 114 215 114 215 126 215 c 1,65,-1
 126 215 l 1,52,53
EndSplineSet
EndChar

StartChar: jabeng
Encoding: 2460 2460 71
Width: 688
GlyphClass: 2
Flags: W
AnchorPoint: "BNAnchor-2" 625 -4 basechar 0
AnchorPoint: "BNAnchor-1" 606 -4 basechar 0
AnchorPoint: "BNAnchor-0" 602 4 basechar 0
LayerCount: 2
Fore
SplineSet
594 0 m 1,0,1
 574 42 574 42 564 87.5 c 128,-1,2
 554 133 554 133 554 180 c 0,3,4
 554 215 554 215 560.5 250.5 c 128,-1,5
 567 286 567 286 579 320 c 1,6,7
 562 316 562 316 546.5 313.5 c 128,-1,8
 531 311 531 311 516 311 c 0,9,10
 441 311 441 311 381.5 349 c 128,-1,11
 322 387 322 387 299 450 c 1,12,13
 270 421 270 421 254.5 387.5 c 128,-1,14
 239 354 239 354 239 320 c 0,15,16
 239 295 239 295 261 277.5 c 128,-1,17
 283 260 283 260 314 260 c 0,18,19
 326 260 326 260 349 267.5 c 128,-1,20
 372 275 372 275 384 275 c 0,21,22
 419 275 419 275 444 250 c 128,-1,23
 469 225 469 225 469 190 c 0,24,25
 469 132 469 132 419 91 c 128,-1,26
 369 50 369 50 299 50 c 0,27,28
 190 50 190 50 112 144 c 128,-1,29
 34 238 34 238 34 370 c 1,30,-1
 74 370 l 1,31,32
 74 260 74 260 142.5 175 c 128,-1,33
 211 90 211 90 299 90 c 0,34,35
 353 90 353 90 391 119.5 c 128,-1,36
 429 149 429 149 429 190 c 0,37,38
 429 209 429 209 417.5 222 c 128,-1,39
 406 235 406 235 389 235 c 0,40,41
 376 235 376 235 351.5 227.5 c 128,-1,42
 327 220 327 220 314 220 c 0,43,44
 266 220 266 220 232.5 249.5 c 128,-1,45
 199 279 199 279 199 320 c 256,46,47
 199 361 199 361 214.5 398.5 c 128,-1,48
 230 436 230 436 259 465 c 1,49,-1
 -10 465 l 1,50,-1
 -10 500 l 1,51,-1
 698 500 l 1,52,-1
 698 465 l 1,53,-1
 339 465 l 1,54,55
 357 415 357 415 405 384.5 c 128,-1,56
 453 354 453 354 513 354 c 0,57,58
 534 354 534 354 555.5 358 c 128,-1,59
 577 362 577 362 599 370 c 1,60,-1
 634 345 l 1,61,62
 614 303 614 303 604 261 c 128,-1,63
 594 219 594 219 594 180 c 0,64,65
 594 133 594 133 604 87.5 c 128,-1,66
 614 42 614 42 634 0 c 1,67,-1
 594 0 l 1,68,-1
 594 0 l 1,0,1
EndSplineSet
EndChar

StartChar: jhabeng
Encoding: 2461 2461 72
Width: 582
GlyphClass: 2
Flags: W
AnchorPoint: "BNAnchor-2" 346 -6 basechar 0
AnchorPoint: "BNAnchor-1" 476 0 basechar 0
AnchorPoint: "BNAnchor-0" 476 0 basechar 0
LayerCount: 2
Fore
SplineSet
17 250 m 1,0,1
 76 309 76 309 150 347 c 128,-1,2
 224 385 224 385 307 400 c 1,3,-1
 307 465 l 1,4,-1
 -10 465 l 1,5,-1
 -10 500 l 1,6,-1
 347 500 l 1,7,-1
 347 230 l 1,8,9
 386 208 386 208 413.5 182.5 c 128,-1,10
 441 157 441 157 457 130 c 1,11,-1
 457 560 l 1,12,-1
 497 560 l 1,13,-1
 497 500 l 1,14,-1
 592 500 l 1,15,-1
 592 465 l 1,16,-1
 497 465 l 1,17,-1
 497 25 l 1,18,-1
 457 25 l 1,19,20
 457 72 457 72 427 114.5 c 128,-1,21
 397 157 397 157 347 180 c 1,22,-1
 347 0 l 1,23,-1
 307 0 l 1,24,25
 288 71 288 71 214.5 128.5 c 128,-1,26
 141 186 141 186 32 215 c 1,27,-1
 17 250 l 1,28,-1
 17 250 l 1,0,1
307 85 m 1,29,-1
 307 355 l 1,30,31
 233 342 233 342 173 314 c 128,-1,32
 113 286 113 286 72 245 c 1,33,34
 153 219 153 219 213.5 177.5 c 128,-1,35
 274 136 274 136 307 85 c 1,36,-1
 307 85 l 1,29,-1
EndSplineSet
EndChar

StartChar: nyabeng
Encoding: 2462 2462 73
Width: 812
GlyphClass: 2
Flags: W
AnchorPoint: "BNAnchor-2" 485 -5 basechar 0
AnchorPoint: "BNAnchor-1" 470 -4 basechar 0
AnchorPoint: "BNAnchor-0" 465 0 basechar 0
LayerCount: 2
Fore
SplineSet
449 0 m 1,0,1
 449 41 449 41 417 70.5 c 128,-1,2
 385 100 385 100 339 100 c 0,3,4
 317 100 317 100 274 87.5 c 128,-1,5
 231 75 231 75 209 75 c 0,6,7
 141 75 141 75 92.5 125 c 128,-1,8
 44 175 44 175 44 245 c 0,9,10
 44 283 44 283 53 314 c 128,-1,11
 62 345 62 345 79 365 c 1,12,-1
 114 345 l 1,13,14
 99 328 99 328 91.5 303.5 c 128,-1,15
 84 279 84 279 84 250 c 0,16,17
 84 194 84 194 120.5 154.5 c 128,-1,18
 157 115 157 115 209 115 c 0,19,20
 231 115 231 115 274 128.5 c 128,-1,21
 317 142 317 142 339 142 c 0,22,23
 372 142 372 142 401 127 c 128,-1,24
 430 112 430 112 449 85 c 1,25,-1
 449 430 l 2,26,27
 449 447 449 447 438.5 458.5 c 128,-1,28
 428 470 428 470 414 470 c 0,29,30
 366 470 366 470 322.5 416.5 c 128,-1,31
 279 363 279 363 284 310 c 1,32,33
 290 313 290 313 296 315 c 128,-1,34
 302 317 302 317 308 317 c 0,35,36
 323 317 323 317 333.5 306 c 128,-1,37
 344 295 344 295 344 280 c 0,38,39
 344 266 344 266 332.5 255.5 c 128,-1,40
 321 245 321 245 304 245 c 0,41,42
 277 245 277 245 258 267 c 128,-1,43
 239 289 239 289 239 320 c 0,44,45
 239 387 239 387 296 448.5 c 128,-1,46
 353 510 353 510 414 510 c 0,47,48
 445 510 445 510 467 486.5 c 128,-1,49
 489 463 489 463 489 430 c 2,50,-1
 489 410 l 1,51,52
 516 456 516 456 556 483 c 128,-1,53
 596 510 596 510 639 510 c 0,54,55
 689 510 689 510 724 483.5 c 128,-1,56
 759 457 759 457 759 420 c 0,57,58
 759 390 759 390 747 364 c 128,-1,59
 735 338 735 338 714 320 c 1,60,61
 735 308 735 308 747 285 c 128,-1,62
 759 262 759 262 759 235 c 0,63,64
 759 187 759 187 724 153.5 c 128,-1,65
 689 120 689 120 639 120 c 0,66,67
 595 120 595 120 554.5 145.5 c 128,-1,68
 514 171 514 171 489 215 c 1,69,-1
 489 0 l 1,70,-1
 449 0 l 1,71,-1
 449 0 l 1,0,1
639 160 m 1,72,73
 672 160 672 160 695.5 182 c 128,-1,74
 719 204 719 204 719 235 c 0,75,76
 719 254 719 254 705.5 273 c 128,-1,77
 692 292 692 292 669 305 c 1,78,79
 659 295 659 295 649 290 c 128,-1,80
 639 285 639 285 629 285 c 0,81,82
 610 285 610 285 597 296.5 c 128,-1,83
 584 308 584 308 584 325 c 256,84,85
 584 342 584 342 597 353.5 c 128,-1,86
 610 365 610 365 629 365 c 0,87,88
 637 365 637 365 647 360 c 128,-1,89
 657 355 657 355 669 345 c 1,90,91
 692 353 692 353 705.5 373.5 c 128,-1,92
 719 394 719 394 719 420 c 0,93,94
 719 443 719 443 695.5 459 c 128,-1,95
 672 475 672 475 639 475 c 0,96,97
 599 475 599 475 558.5 438.5 c 128,-1,98
 518 402 518 402 489 340 c 1,99,-1
 489 290 l 1,100,101
 510 231 510 231 551.5 195.5 c 128,-1,102
 593 160 593 160 639 160 c 1,103,-1
 639 160 l 1,72,73
EndSplineSet
EndChar

StartChar: ttabeng
Encoding: 2463 2463 74
Width: 419
GlyphClass: 2
Flags: W
AnchorPoint: "BNAnchor-2" 183 -5 basechar 0
AnchorPoint: "BNAnchor-1" 190 -5 basechar 0
AnchorPoint: "BNAnchor-0" 405 45 basechar 0
LayerCount: 2
Fore
SplineSet
-10 465 m 1,0,-1
 -10 500 l 1,1,-1
 320 500 l 1,2,3
 336 512 336 512 345.5 530.5 c 128,-1,4
 355 549 355 549 355 570 c 256,5,6
 355 591 355 591 334.5 605.5 c 128,-1,7
 314 620 314 620 285 620 c 256,8,9
 256 620 256 620 197.5 610 c 128,-1,10
 139 600 139 600 110 600 c 0,11,12
 79 600 79 600 57 622 c 128,-1,13
 35 644 35 644 35 675 c 0,14,15
 35 698 35 698 53 718.5 c 128,-1,16
 71 739 71 739 100 750 c 1,17,-1
 120 720 l 1,18,19
 100 715 100 715 87.5 702.5 c 128,-1,20
 75 690 75 690 75 675 c 0,21,22
 75 661 75 661 85.5 650.5 c 128,-1,23
 96 640 96 640 110 640 c 0,24,25
 140 640 140 640 200 650 c 128,-1,26
 260 660 260 660 290 660 c 0,27,28
 333 660 333 660 364 633.5 c 128,-1,29
 395 607 395 607 395 570 c 0,30,31
 395 548 395 548 388.5 530 c 128,-1,32
 382 512 382 512 370 500 c 1,33,-1
 429 500 l 1,34,-1
 429 465 l 1,35,-1
 120 465 l 1,36,-1
 120 140 l 2,37,38
 120 109 120 109 133 87 c 128,-1,39
 146 65 146 65 165 65 c 0,40,41
 211 65 211 65 273 136.5 c 128,-1,42
 335 208 335 208 335 260 c 1,43,44
 308 260 308 260 289 273 c 128,-1,45
 270 286 270 286 270 305 c 0,46,47
 270 326 270 326 286 340.5 c 128,-1,48
 302 355 302 355 325 355 c 256,49,50
 348 355 348 355 364 336 c 128,-1,51
 380 317 380 317 380 290 c 0,52,53
 380 197 380 197 310 111 c 128,-1,54
 240 25 240 25 165 25 c 0,55,56
 130 25 130 25 105 58.5 c 128,-1,57
 80 92 80 92 80 140 c 2,58,-1
 80 465 l 1,59,-1
 -10 465 l 1,60,-1
 -10 465 l 1,0,-1
EndSplineSet
EndChar

StartChar: tthabeng
Encoding: 2464 2464 75
Width: 411
GlyphClass: 2
Flags: W
AnchorPoint: "BNAnchor-2" 218 -3 basechar 0
AnchorPoint: "BNAnchor-1" 185 0 basechar 0
AnchorPoint: "BNAnchor-0" 200 0 basechar 0
LayerCount: 2
Fore
SplineSet
197 25 m 1,0,1
 127 25 127 25 77 77.5 c 128,-1,2
 27 130 27 130 27 205 c 1,3,4
 93 223 93 223 135 271.5 c 128,-1,5
 177 320 177 320 177 380 c 0,6,7
 177 411 177 411 173 433 c 128,-1,8
 169 455 169 455 162 465 c 1,9,-1
 -10 465 l 1,10,-1
 -10 500 l 1,11,-1
 132 500 l 1,12,13
 86 546 86 546 61.5 587.5 c 128,-1,14
 37 629 37 629 37 660 c 0,15,16
 37 689 37 689 52 713.5 c 128,-1,17
 67 738 67 738 92 750 c 1,18,-1
 122 730 l 1,19,20
 101 712 101 712 89 693.5 c 128,-1,21
 77 675 77 675 77 660 c 0,22,23
 77 634 77 634 104.5 592 c 128,-1,24
 132 550 132 550 182 500 c 1,25,-1
 421 500 l 1,26,-1
 421 465 l 1,27,-1
 212 465 l 1,28,29
 284 393 284 393 323 321.5 c 128,-1,30
 362 250 362 250 362 190 c 0,31,32
 362 122 362 122 313.5 73.5 c 128,-1,33
 265 25 265 25 197 25 c 1,34,-1
 197 25 l 1,0,1
197 65 m 1,35,36
 249 65 249 65 285.5 101.5 c 128,-1,37
 322 138 322 138 322 190 c 0,38,39
 322 234 322 234 295 289 c 128,-1,40
 268 344 268 344 217 405 c 1,41,42
 224 330 224 330 182 266 c 128,-1,43
 140 202 140 202 67 175 c 1,44,45
 71 128 71 128 108.5 96.5 c 128,-1,46
 146 65 146 65 197 65 c 1,47,-1
 197 65 l 1,35,36
EndSplineSet
EndChar

StartChar: ddabeng
Encoding: 2465 2465 76
Width: 566
GlyphClass: 2
Flags: W
AnchorPoint: "BNAnchor-2" 308 -4 basechar 0
AnchorPoint: "BNAnchor-1" 315 0 basechar 0
AnchorPoint: "BNAnchor-0" 320 0 basechar 0
LayerCount: 2
Fore
SplineSet
-10 465 m 1,0,-1
 -10 500 l 1,1,-1
 576 500 l 1,2,-1
 576 465 l 1,3,-1
 271 465 l 1,4,-1
 271 300 l 2,5,6
 271 273 271 273 282.5 254 c 128,-1,7
 294 235 294 235 311 235 c 0,8,9
 336 235 336 235 365.5 267.5 c 128,-1,10
 395 300 395 300 421 355 c 1,11,12
 465 343 465 343 493 302.5 c 128,-1,13
 521 262 521 262 521 210 c 0,14,15
 521 122 521 122 461 68.5 c 128,-1,16
 401 15 401 15 301 15 c 0,17,18
 191 15 191 15 113.5 110 c 128,-1,19
 36 205 36 205 36 340 c 1,20,-1
 76 350 l 1,21,22
 76 228 76 228 142 141.5 c 128,-1,23
 208 55 208 55 301 55 c 0,24,25
 376 55 376 55 428.5 99 c 128,-1,26
 481 143 481 143 481 205 c 0,27,28
 481 235 481 235 469 260 c 128,-1,29
 457 285 457 285 436 300 c 1,30,31
 414 252 414 252 380 223.5 c 128,-1,32
 346 195 346 195 311 195 c 0,33,34
 278 195 278 195 254.5 226 c 128,-1,35
 231 257 231 257 231 300 c 2,36,-1
 231 465 l 1,37,-1
 -10 465 l 1,38,-1
 -10 465 l 1,0,-1
EndSplineSet
EndChar

StartChar: ddhabeng
Encoding: 2466 2466 77
Width: 435
GlyphClass: 2
Flags: W
AnchorPoint: "BNAnchor-2" 191 -5 basechar 0
AnchorPoint: "BNAnchor-1" 165 0 basechar 0
AnchorPoint: "BNAnchor-0" 170 -5 basechar 0
LayerCount: 2
Fore
SplineSet
-10 465 m 1,0,-1
 -10 500 l 1,1,-1
 445 500 l 1,2,-1
 445 465 l 1,3,-1
 120 465 l 1,4,-1
 120 140 l 2,5,6
 120 109 120 109 136 87 c 128,-1,7
 152 65 152 65 175 65 c 0,8,9
 209 65 209 65 273 132.5 c 128,-1,10
 337 200 337 200 350 250 c 1,11,12
 321 250 321 250 300.5 264.5 c 128,-1,13
 280 279 280 279 280 300 c 0,14,15
 280 323 280 323 296 339 c 128,-1,16
 312 355 312 355 335 355 c 0,17,18
 362 355 362 355 381 336 c 128,-1,19
 400 317 400 317 400 290 c 0,20,21
 400 213 400 213 320 119 c 128,-1,22
 240 25 240 25 175 25 c 0,23,24
 136 25 136 25 108 58.5 c 128,-1,25
 80 92 80 92 80 140 c 2,26,-1
 80 465 l 1,27,-1
 -10 465 l 1,28,-1
 -10 465 l 1,0,-1
EndSplineSet
EndChar

StartChar: nnabeng
Encoding: 2467 2467 78
Width: 465
GlyphClass: 2
Flags: W
AnchorPoint: "BNAnchor-2" 368 -5 basechar 0
AnchorPoint: "BNAnchor-1" 355 0 basechar 0
AnchorPoint: "BNAnchor-0" 355 -4 basechar 0
LayerCount: 2
Fore
SplineSet
335 0 m 1,0,-1
 335 305 l 2,1,2
 335 373 335 373 294 421.5 c 128,-1,3
 253 470 253 470 195 470 c 0,4,5
 145 470 145 470 110 438 c 128,-1,6
 75 406 75 406 75 360 c 0,7,8
 75 322 75 322 93.5 293.5 c 128,-1,9
 112 265 112 265 140 260 c 1,10,11
 134 283 134 283 148 301.5 c 128,-1,12
 162 320 162 320 185 320 c 0,13,14
 206 320 206 320 220.5 305.5 c 128,-1,15
 235 291 235 291 235 270 c 0,16,17
 235 247 235 247 216 231 c 128,-1,18
 197 215 197 215 170 215 c 0,19,20
 114 215 114 215 74.5 257.5 c 128,-1,21
 35 300 35 300 35 360 c 0,22,23
 35 422 35 422 82 466 c 128,-1,24
 129 510 129 510 195 510 c 0,25,26
 241 510 241 510 279 487 c 128,-1,27
 317 464 317 464 335 425 c 1,28,-1
 335 560 l 1,29,-1
 375 560 l 1,30,-1
 375 500 l 1,31,-1
 475 500 l 1,32,-1
 475 465 l 1,33,-1
 375 465 l 1,34,-1
 375 0 l 1,35,-1
 335 0 l 1,36,-1
 335 0 l 1,0,-1
EndSplineSet
EndChar

StartChar: tabeng
Encoding: 2468 2468 79
Width: 577
GlyphClass: 2
Flags: W
AnchorPoint: "BNAnchor-2" 323 -6 basechar 0
AnchorPoint: "BNAnchor-1" 358 0 basechar 0
AnchorPoint: "BNAnchor-0" 348 5 basechar 0
LayerCount: 2
Fore
SplineSet
316 -10 m 1,0,1
 200 -10 200 -10 118 89.5 c 128,-1,2
 36 189 36 189 36 330 c 1,3,-1
 76 335 l 1,4,5
 76 207 76 207 146.5 116 c 128,-1,6
 217 25 217 25 316 25 c 0,7,8
 388 25 388 25 439.5 75 c 128,-1,9
 491 125 491 125 491 195 c 0,10,11
 491 251 491 251 450 290.5 c 128,-1,12
 409 330 409 330 351 330 c 0,13,14
 321 330 321 330 299.5 317 c 128,-1,15
 278 304 278 304 276 285 c 1,16,17
 280 286 280 286 285 287 c 128,-1,18
 290 288 290 288 295 288 c 0,19,20
 316 288 316 288 331 274 c 128,-1,21
 346 260 346 260 346 240 c 0,22,23
 346 219 346 219 330 204.5 c 128,-1,24
 314 190 314 190 291 190 c 0,25,26
 264 190 264 190 245 210.5 c 128,-1,27
 226 231 226 231 226 260 c 0,28,29
 226 306 226 306 262.5 338 c 128,-1,30
 299 370 299 370 351 370 c 0,31,32
 426 370 426 370 478.5 318.5 c 128,-1,33
 531 267 531 267 531 195 c 0,34,35
 531 110 531 110 468 50 c 128,-1,36
 405 -10 405 -10 316 -10 c 1,37,-1
 316 -10 l 1,0,1
-10 465 m 1,38,-1
 -10 500 l 1,39,-1
 587 500 l 1,40,-1
 587 465 l 1,41,-1
 -10 465 l 1,42,-1
 -10 465 l 1,38,-1
EndSplineSet
EndChar

StartChar: thabeng
Encoding: 2469 2469 80
Width: 498
GlyphClass: 2
Flags: W
AnchorPoint: "BNAnchor-2" 404 -5 basechar 0
AnchorPoint: "BNAnchor-1" 385 0 basechar 0
AnchorPoint: "BNAnchor-0" 385 -5 basechar 0
LayerCount: 2
Fore
SplineSet
368 0 m 1,0,1
 326 90 326 90 250 146 c 128,-1,2
 174 202 174 202 83 210 c 1,3,-1
 73 260 l 1,4,5
 79 257 79 257 90.5 256 c 128,-1,6
 102 255 102 255 128 255 c 0,7,8
 186 255 186 255 227 290 c 128,-1,9
 268 325 268 325 268 375 c 0,10,11
 268 414 268 414 237 442 c 128,-1,12
 206 470 206 470 163 470 c 0,13,14
 137 470 137 470 116 462 c 128,-1,15
 95 454 95 454 83 440 c 1,16,17
 107 440 107 440 123.5 425.5 c 128,-1,18
 140 411 140 411 140 390 c 256,19,20
 140 369 140 369 123.5 354.5 c 128,-1,21
 107 340 107 340 83 340 c 0,22,23
 58 340 58 340 40.5 357.5 c 128,-1,24
 23 375 23 375 23 400 c 0,25,26
 23 446 23 446 64 478 c 128,-1,27
 105 510 105 510 163 510 c 0,28,29
 223 510 223 510 265.5 470.5 c 128,-1,30
 308 431 308 431 308 375 c 0,31,32
 308 327 308 327 275 286 c 128,-1,33
 242 245 242 245 188 225 c 1,34,35
 239 211 239 211 286 171 c 128,-1,36
 333 131 333 131 368 70 c 1,37,-1
 368 560 l 1,38,-1
 408 560 l 1,39,-1
 408 500 l 1,40,-1
 508 500 l 1,41,-1
 508 465 l 1,42,-1
 408 465 l 1,43,-1
 408 0 l 1,44,-1
 368 0 l 1,45,-1
 368 0 l 1,0,1
EndSplineSet
EndChar

StartChar: dabeng
Encoding: 2470 2470 81
Width: 404
GlyphClass: 2
Flags: W
AnchorPoint: "BNAnchor-2" 349 -5 basechar 0
AnchorPoint: "BNAnchor-1" 293 0 basechar 0
AnchorPoint: "BNAnchor-0" 297 0 basechar 0
LayerCount: 2
Fore
SplineSet
324 -5 m 1,0,1
 295 30 295 30 279.5 75 c 128,-1,2
 264 120 264 120 264 170 c 256,3,4
 264 220 264 220 274 261 c 128,-1,5
 284 302 284 302 304 330 c 1,6,7
 240 307 240 307 186 266 c 128,-1,8
 132 225 132 225 94 170 c 1,9,-1
 54 190 l 1,10,-1
 54 465 l 1,11,-1
 -10 465 l 1,12,-1
 -10 500 l 1,13,-1
 414 500 l 1,14,-1
 414 465 l 1,15,-1
 94 465 l 1,16,-1
 94 230 l 1,17,18
 143 288 143 288 205 325.5 c 128,-1,19
 267 363 267 363 334 375 c 1,20,-1
 359 345 l 1,21,22
 332 313 332 313 318 268 c 128,-1,23
 304 223 304 223 304 170 c 0,24,25
 304 119 304 119 317 76.5 c 128,-1,26
 330 34 330 34 354 5 c 1,27,-1
 324 -5 l 1,28,-1
 324 -5 l 1,0,1
EndSplineSet
EndChar

StartChar: dhabeng
Encoding: 2471 2471 82
Width: 431
GlyphClass: 2
Flags: W
AnchorPoint: "BNAnchor-2" 339 -5 basechar 0
AnchorPoint: "BNAnchor-1" 324 0 basechar 0
AnchorPoint: "BNAnchor-0" 324 0 basechar 0
LayerCount: 2
Fore
SplineSet
301 0 m 1,0,1
 259 83 259 83 194 131.5 c 128,-1,2
 129 180 129 180 61 180 c 1,3,-1
 31 230 l 1,4,-1
 156 335 l 1,5,6
 106 335 106 335 71 364.5 c 128,-1,7
 36 394 36 394 36 435 c 256,8,9
 36 476 36 476 71 505.5 c 128,-1,10
 106 535 106 535 156 535 c 0,11,12
 183 535 183 535 202 519 c 128,-1,13
 221 503 221 503 221 480 c 256,14,15
 221 457 221 457 203.5 441 c 128,-1,16
 186 425 186 425 161 425 c 0,17,18
 137 425 137 425 120.5 441.5 c 128,-1,19
 104 458 104 458 106 480 c 1,20,21
 93 478 93 478 84.5 465 c 128,-1,22
 76 452 76 452 76 435 c 0,23,24
 76 406 76 406 111 385.5 c 128,-1,25
 146 365 146 365 196 365 c 1,26,-1
 301 440 l 1,27,-1
 301 560 l 1,28,-1
 341 560 l 1,29,-1
 341 500 l 1,30,-1
 441 500 l 1,31,-1
 441 465 l 1,32,-1
 341 465 l 1,33,-1
 341 0 l 1,34,-1
 301 0 l 1,35,-1
 301 0 l 1,0,1
301 70 m 1,36,-1
 301 395 l 1,37,-1
 81 220 l 1,38,39
 139 215 139 215 197 175.5 c 128,-1,40
 255 136 255 136 301 70 c 1,41,-1
 301 70 l 1,36,-1
EndSplineSet
EndChar

StartChar: nabeng
Encoding: 2472 2472 83
Width: 459
GlyphClass: 2
Flags: W
AnchorPoint: "BNAnchor-2" 369 -5 basechar 0
AnchorPoint: "BNAnchor-1" 345 0 basechar 0
AnchorPoint: "BNAnchor-0" 345 0 basechar 0
LayerCount: 2
Fore
SplineSet
329 0 m 1,0,-1
 329 155 l 1,1,2
 318 218 318 218 272.5 259 c 128,-1,3
 227 300 227 300 169 300 c 0,4,5
 142 300 142 300 121.5 290.5 c 128,-1,6
 101 281 101 281 94 265 c 1,7,8
 123 265 123 265 143.5 247.5 c 128,-1,9
 164 230 164 230 164 205 c 0,10,11
 164 182 164 182 144 166 c 128,-1,12
 124 150 124 150 96 150 c 256,13,14
 68 150 68 150 48.5 169 c 128,-1,15
 29 188 29 188 29 215 c 0,16,17
 29 267 29 267 70 303.5 c 128,-1,18
 111 340 111 340 169 340 c 0,19,20
 220 340 220 340 263 317 c 128,-1,21
 306 294 306 294 329 255 c 1,22,-1
 329 465 l 1,23,-1
 -10 465 l 1,24,-1
 -10 500 l 1,25,-1
 469 500 l 1,26,-1
 469 465 l 1,27,-1
 369 465 l 1,28,-1
 369 0 l 1,29,-1
 329 0 l 1,30,-1
 329 0 l 1,0,-1
EndSplineSet
EndChar

StartChar: pabeng
Encoding: 2474 2474 84
Width: 522
GlyphClass: 2
Flags: W
AnchorPoint: "BNAnchor-2" 432 -5 basechar 0
AnchorPoint: "BNAnchor-1" 415 0 basechar 0
AnchorPoint: "BNAnchor-0" 418 0 basechar 0
LayerCount: 2
Fore
SplineSet
392 0 m 1,0,-1
 392 315 l 1,1,2
 383 330 383 330 367 347.5 c 128,-1,3
 351 365 351 365 327 385 c 1,4,-1
 157 185 l 1,5,-1
 127 210 l 1,6,-1
 177 270 l 1,7,8
 166 300 166 300 136.5 321.5 c 128,-1,9
 107 343 107 343 67 350 c 1,10,11
 61 336 61 336 52.5 328 c 128,-1,12
 44 320 44 320 37 320 c 0,13,14
 29 320 29 320 23 324.5 c 128,-1,15
 17 329 17 329 17 335 c 1,16,17
 25 381 25 381 94.5 443 c 128,-1,18
 164 505 164 505 207 505 c 0,19,20
 243 505 243 505 291.5 471 c 128,-1,21
 340 437 340 437 392 375 c 1,22,-1
 392 560 l 1,23,-1
 432 560 l 1,24,-1
 432 500 l 1,25,-1
 532 500 l 1,26,-1
 532 465 l 1,27,-1
 432 465 l 1,28,-1
 432 0 l 1,29,-1
 392 0 l 1,30,-1
 392 0 l 1,0,-1
202 300 m 1,31,-1
 302 410 l 1,32,33
 278 434 278 434 253.5 447 c 128,-1,34
 229 460 229 460 207 460 c 0,35,36
 182 460 182 460 150.5 439 c 128,-1,37
 119 418 119 418 87 380 c 1,38,39
 127 373 127 373 157.5 352 c 128,-1,40
 188 331 188 331 202 300 c 1,41,-1
 202 300 l 1,31,-1
EndSplineSet
EndChar

StartChar: phabeng
Encoding: 2475 2475 85
Width: 562
GlyphClass: 2
Flags: W
AnchorPoint: "BNAnchor-2" 339 -5 basechar 0
AnchorPoint: "BNAnchor-1" 316 -5 basechar 0
AnchorPoint: "BNAnchor-0" 317 -5 basechar 0
LayerCount: 2
Fore
SplineSet
-10 465 m 1,0,-1
 -10 500 l 1,1,-1
 572 500 l 1,2,-1
 572 465 l 1,3,-1
 116 465 l 1,4,-1
 216 360 l 1,5,-1
 71 235 l 1,6,7
 143 216 143 216 201.5 171.5 c 128,-1,8
 260 127 260 127 296 65 c 1,9,-1
 296 390 l 1,10,-1
 381 390 l 2,11,12
 441 390 441 390 483.5 349 c 128,-1,13
 526 308 526 308 526 250 c 0,14,15
 526 227 526 227 510 211 c 128,-1,16
 494 195 494 195 471 195 c 256,17,18
 448 195 448 195 432 208 c 128,-1,19
 416 221 416 221 416 240 c 0,20,21
 416 263 416 263 433.5 279 c 128,-1,22
 451 295 451 295 476 295 c 1,23,24
 476 318 476 318 449.5 334 c 128,-1,25
 423 350 423 350 386 350 c 2,26,-1
 336 350 l 1,27,-1
 336 0 l 1,28,-1
 296 0 l 1,29,30
 244 90 244 90 176.5 144.5 c 128,-1,31
 109 199 109 199 41 205 c 1,32,-1
 16 240 l 1,33,-1
 161 365 l 1,34,-1
 61 465 l 1,35,-1
 -10 465 l 1,36,-1
 -10 465 l 1,0,-1
EndSplineSet
EndChar

StartChar: babeng
Encoding: 2476 2476 86
Width: 428
GlyphClass: 2
Flags: W
AnchorPoint: "BNAnchor-2" 343 -6 basechar 0
AnchorPoint: "BNAnchor-1" 316 0 basechar 0
AnchorPoint: "BNAnchor-0" 320 0 basechar 0
LayerCount: 2
Fore
SplineSet
298 0 m 1,0,1
 269 79 269 79 199.5 134 c 128,-1,2
 130 189 130 189 38 205 c 1,3,-1
 18 250 l 1,4,5
 72 304 72 304 143 343.5 c 128,-1,6
 214 383 214 383 298 405 c 1,7,-1
 298 465 l 1,8,-1
 -10 465 l 1,9,-1
 -10 500 l 1,10,-1
 438 500 l 1,11,-1
 438 465 l 1,12,-1
 338 465 l 1,13,-1
 338 0 l 1,14,-1
 298 0 l 1,15,-1
 298 0 l 1,0,1
298 80 m 1,16,-1
 298 365 l 1,17,18
 228 346 228 346 169.5 314.5 c 128,-1,19
 111 283 111 283 68 240 c 1,20,21
 133 229 133 229 192.5 187 c 128,-1,22
 252 145 252 145 298 80 c 1,23,-1
 298 80 l 1,16,-1
EndSplineSet
EndChar

StartChar: bhabeng
Encoding: 2477 2477 87
Width: 573
GlyphClass: 2
Flags: W
AnchorPoint: "BNAnchor-2" 349 -4 basechar 0
AnchorPoint: "BNAnchor-1" 355 -4 basechar 0
AnchorPoint: "BNAnchor-0" 362 -4 basechar 0
LayerCount: 2
Fore
SplineSet
333 -10 m 1,0,1
 213 -10 213 -10 128 111.5 c 128,-1,2
 43 233 43 233 43 405 c 1,3,-1
 83 410 l 1,4,5
 83 253 83 253 156 141.5 c 128,-1,6
 229 30 229 30 333 30 c 0,7,8
 397 30 397 30 442.5 71 c 128,-1,9
 488 112 488 112 488 170 c 0,10,11
 488 201 488 201 474.5 226.5 c 128,-1,12
 461 252 461 252 438 265 c 1,13,14
 421 229 421 229 387 208 c 128,-1,15
 353 187 353 187 312 187 c 0,16,17
 259 187 259 187 221 215.5 c 128,-1,18
 183 244 183 244 183 285 c 0,19,20
 183 312 183 312 202 331 c 128,-1,21
 221 350 221 350 248 350 c 0,22,23
 269 350 269 350 283.5 335.5 c 128,-1,24
 298 321 298 321 298 300 c 0,25,26
 298 281 298 281 283.5 268 c 128,-1,27
 269 255 269 255 248 255 c 1,28,29
 261 242 261 242 278 234.5 c 128,-1,30
 295 227 295 227 312 227 c 0,31,32
 353 227 353 227 383.5 255 c 128,-1,33
 414 283 414 283 418 325 c 1,34,35
 468 307 468 307 498 264.5 c 128,-1,36
 528 222 528 222 528 170 c 0,37,38
 528 88 528 88 474.5 39 c 128,-1,39
 421 -10 421 -10 333 -10 c 1,40,-1
 333 -10 l 1,0,1
-10 465 m 1,41,-1
 -10 500 l 1,42,-1
 583 500 l 1,43,-1
 583 465 l 1,44,-1
 -10 465 l 1,45,-1
 -10 465 l 1,41,-1
EndSplineSet
EndChar

StartChar: mabeng
Encoding: 2478 2478 88
Width: 427
GlyphClass: 2
Flags: W
AnchorPoint: "BNAnchor-2" 329 -4 basechar 0
AnchorPoint: "BNAnchor-1" 316 0 basechar 0
AnchorPoint: "BNAnchor-0" 316 0 basechar 0
LayerCount: 2
Fore
SplineSet
297 0 m 1,0,1
 297 75 297 75 256.5 130 c 128,-1,2
 216 185 216 185 157 190 c 1,3,4
 160 160 160 160 140.5 137.5 c 128,-1,5
 121 115 121 115 92 115 c 0,6,7
 67 115 67 115 49.5 132.5 c 128,-1,8
 32 150 32 150 32 175 c 0,9,10
 32 202 32 202 55.5 221 c 128,-1,11
 79 240 79 240 112 240 c 1,12,13
 112 321 112 321 92 380.5 c 128,-1,14
 72 440 72 440 37 465 c 1,15,-1
 -10 465 l 1,16,-1
 -10 500 l 1,17,-1
 437 500 l 1,18,-1
 437 465 l 1,19,-1
 337 465 l 1,20,-1
 337 0 l 1,21,-1
 297 0 l 1,22,-1
 297 0 l 1,0,1
297 140 m 1,23,-1
 297 465 l 1,24,-1
 87 465 l 1,25,26
 118 427 118 427 135 368 c 128,-1,27
 152 309 152 309 152 235 c 1,28,29
 200 227 200 227 238 202 c 128,-1,30
 276 177 276 177 297 140 c 1,31,-1
 297 140 l 1,23,-1
EndSplineSet
EndChar

StartChar: yabeng
Encoding: 2479 2479 89
Width: 443
GlyphClass: 2
Flags: W
AnchorPoint: "BNAnchor-2" 351 -4 basechar 0
AnchorPoint: "BNAnchor-1" 332 -5 basechar 0
AnchorPoint: "BNAnchor-0" 332 -5 basechar 0
LayerCount: 2
Fore
SplineSet
313 0 m 1,0,1
 290 63 290 63 217.5 110 c 128,-1,2
 145 157 145 157 43 175 c 1,3,-1
 18 210 l 1,4,-1
 163 345 l 1,5,-1
 38 465 l 1,6,-1
 -10 465 l 1,7,-1
 -10 500 l 1,8,-1
 453 500 l 1,9,-1
 453 465 l 1,10,-1
 353 465 l 1,11,-1
 353 0 l 1,12,-1
 313 0 l 1,13,-1
 313 0 l 1,0,1
313 70 m 1,14,-1
 313 465 l 1,15,-1
 98 465 l 1,16,-1
 223 345 l 1,17,-1
 78 210 l 1,18,19
 153 197 153 197 214 160.5 c 128,-1,20
 275 124 275 124 313 70 c 1,21,-1
 313 70 l 1,14,-1
EndSplineSet
EndChar

StartChar: rabeng
Encoding: 2480 2480 90
Width: 423
GlyphClass: 2
Flags: W
AnchorPoint: "BNAnchor-2" 331 -5 basechar 0
AnchorPoint: "BNAnchor-1" 316 0 basechar 0
AnchorPoint: "BNAnchor-0" 316 0 basechar 0
LayerCount: 2
Fore
SplineSet
293 0 m 1,0,1
 264 80 264 80 197 135 c 128,-1,2
 130 190 130 190 43 205 c 1,3,-1
 23 245 l 1,4,5
 60 297 60 297 129.5 338.5 c 128,-1,6
 199 380 199 380 293 405 c 1,7,-1
 293 465 l 1,8,-1
 -10 465 l 1,9,-1
 -10 500 l 1,10,-1
 433 500 l 1,11,-1
 433 465 l 1,12,-1
 333 465 l 1,13,-1
 333 0 l 1,14,-1
 293 0 l 1,15,-1
 293 0 l 1,0,1
293 80 m 1,16,-1
 293 365 l 1,17,18
 217 345 217 345 159.5 313 c 128,-1,19
 102 281 102 281 68 240 c 1,20,21
 138 228 138 228 197 186 c 128,-1,22
 256 144 256 144 293 80 c 1,23,-1
 293 80 l 1,16,-1
118 10 m 1,24,25
 101 10 101 10 89.5 21.5 c 128,-1,26
 78 33 78 33 78 50 c 256,27,28
 78 67 78 67 89.5 78.5 c 128,-1,29
 101 90 101 90 118 90 c 256,30,31
 135 90 135 90 146.5 78.5 c 128,-1,32
 158 67 158 67 158 50 c 256,33,34
 158 33 158 33 146.5 21.5 c 128,-1,35
 135 10 135 10 118 10 c 1,36,-1
 118 10 l 1,24,25
EndSplineSet
EndChar

StartChar: labeng
Encoding: 2482 2482 91
Width: 573
GlyphClass: 2
Flags: W
AnchorPoint: "BNAnchor-2" 475 -6 basechar 0
AnchorPoint: "BNAnchor-1" 465 0 basechar 0
AnchorPoint: "BNAnchor-0" 465 0 basechar 0
LayerCount: 2
Fore
SplineSet
443 0 m 1,0,-1
 443 260 l 1,1,2
 432 300 432 300 410 325 c 128,-1,3
 388 350 388 350 363 350 c 256,4,5
 338 350 338 350 320.5 326.5 c 128,-1,6
 303 303 303 303 303 270 c 1,7,-1
 263 270 l 1,8,9
 260 304 260 304 235.5 327 c 128,-1,10
 211 350 211 350 178 350 c 0,11,12
 137 350 137 350 107.5 320.5 c 128,-1,13
 78 291 78 291 78 250 c 0,14,15
 78 211 78 211 103 183 c 128,-1,16
 128 155 128 155 163 155 c 1,17,18
 158 160 158 160 155 167 c 128,-1,19
 152 174 152 174 152 181 c 0,20,21
 152 203 152 203 168.5 219 c 128,-1,22
 185 235 185 235 208 235 c 256,23,24
 231 235 231 235 247 219 c 128,-1,25
 263 203 263 203 263 180 c 0,26,27
 263 153 263 153 236.5 134 c 128,-1,28
 210 115 210 115 173 115 c 0,29,30
 117 115 117 115 77.5 154.5 c 128,-1,31
 38 194 38 194 38 250 c 0,32,33
 38 308 38 308 79 349 c 128,-1,34
 120 390 120 390 178 390 c 0,35,36
 213 390 213 390 241.5 373.5 c 128,-1,37
 270 357 270 357 283 330 c 1,38,39
 296 357 296 357 317.5 373.5 c 128,-1,40
 339 390 339 390 363 390 c 0,41,42
 385 390 385 390 406.5 375.5 c 128,-1,43
 428 361 428 361 443 335 c 1,44,-1
 443 465 l 1,45,-1
 -10 465 l 1,46,-1
 -10 500 l 1,47,-1
 583 500 l 1,48,-1
 583 465 l 1,49,-1
 483 465 l 1,50,-1
 483 0 l 1,51,-1
 443 0 l 1,52,-1
 443 0 l 1,0,-1
EndSplineSet
EndChar

StartChar: shabeng
Encoding: 2486 2486 92
Width: 455
GlyphClass: 2
Flags: W
AnchorPoint: "BNAnchor-2" 359 -5 basechar 0
AnchorPoint: "BNAnchor-1" 346 -4 basechar 0
AnchorPoint: "BNAnchor-0" 350 0 basechar 0
LayerCount: 2
Fore
SplineSet
325 0 m 1,0,-1
 325 360 l 2,1,2
 325 403 325 403 300 434 c 128,-1,3
 275 465 275 465 240 465 c 0,4,5
 214 465 214 465 192.5 454.5 c 128,-1,6
 171 444 171 444 160 425 c 1,7,8
 191 399 191 399 208 369 c 128,-1,9
 225 339 225 339 225 310 c 0,10,11
 225 291 225 291 212 278 c 128,-1,12
 199 265 199 265 180 265 c 0,13,14
 163 265 163 265 147.5 281.5 c 128,-1,15
 132 298 132 298 125 325 c 1,16,17
 118 298 118 298 102.5 281.5 c 128,-1,18
 87 265 87 265 70 265 c 0,19,20
 51 265 51 265 38 278 c 128,-1,21
 25 291 25 291 25 310 c 0,22,23
 25 332 25 332 44.5 363 c 128,-1,24
 64 394 64 394 100 430 c 1,25,26
 93 446 93 446 71 455.5 c 128,-1,27
 49 465 49 465 20 465 c 2,28,-1
 -32 465 l 1,29,-1
 -32 500 l 1,30,-1
 20 500 l 2,31,32
 59 500 59 500 88.5 488 c 128,-1,33
 118 476 118 476 130 455 c 1,34,35
 152 477 152 477 180.5 488.5 c 128,-1,36
 209 500 209 500 240 500 c 0,37,38
 265 500 265 500 287.5 488 c 128,-1,39
 310 476 310 476 325 455 c 1,40,-1
 325 560 l 1,41,-1
 365 560 l 1,42,-1
 365 500 l 1,43,-1
 465 500 l 1,44,-1
 465 465 l 1,45,-1
 365 465 l 1,46,-1
 365 0 l 1,47,-1
 325 0 l 1,48,-1
 325 0 l 1,0,-1
EndSplineSet
EndChar

StartChar: ssabeng
Encoding: 2487 2487 93
Width: 424
GlyphClass: 2
Flags: W
AnchorPoint: "BNAnchor-2" 333 -5 basechar 0
AnchorPoint: "BNAnchor-1" 312 -1 basechar 0
AnchorPoint: "BNAnchor-0" 312 -5 basechar 0
LayerCount: 2
Fore
SplineSet
294 0 m 1,0,1
 273 77 273 77 203 129.5 c 128,-1,2
 133 182 133 182 39 190 c 1,3,-1
 19 230 l 1,4,-1
 159 355 l 1,5,-1
 34 465 l 1,6,-1
 -10 465 l 1,7,-1
 -10 500 l 1,8,-1
 434 500 l 1,9,-1
 434 465 l 1,10,-1
 334 465 l 1,11,-1
 334 0 l 1,12,-1
 294 0 l 1,13,-1
 294 0 l 1,0,1
294 90 m 1,14,-1
 294 250 l 1,15,-1
 194 330 l 1,16,-1
 74 225 l 1,17,18
 143 213 143 213 200 178 c 128,-1,19
 257 143 257 143 294 90 c 1,20,-1
 294 90 l 1,14,-1
294 295 m 1,21,-1
 294 465 l 1,22,-1
 89 465 l 1,23,-1
 294 295 l 1,24,-1
 294 295 l 1,21,-1
EndSplineSet
EndChar

StartChar: sabeng
Encoding: 2488 2488 94
Width: 508
GlyphClass: 2
Flags: W
AnchorPoint: "BNAnchor-2" 426 -5 basechar 0
AnchorPoint: "BNAnchor-1" 380 0 basechar 0
AnchorPoint: "BNAnchor-0" 397 -5 basechar 0
LayerCount: 2
Fore
SplineSet
378 0 m 1,0,-1
 378 255 l 1,1,2
 360 276 360 276 341.5 288 c 128,-1,3
 323 300 323 300 308 300 c 0,4,5
 288 300 288 300 263.5 278.5 c 128,-1,6
 239 257 239 257 218 220 c 0,7,8
 195 181 195 181 168.5 158 c 128,-1,9
 142 135 142 135 118 135 c 0,10,11
 80 135 80 135 51 166.5 c 128,-1,12
 22 198 22 198 18 245 c 1,13,-1
 53 255 l 1,14,15
 56 221 56 221 74.5 198 c 128,-1,16
 93 175 93 175 118 175 c 0,17,18
 136 175 136 175 160.5 204 c 128,-1,19
 185 233 185 233 218 290 c 1,20,21
 195 352 195 352 157.5 397.5 c 128,-1,22
 120 443 120 443 73 465 c 1,23,-1
 -10 465 l 1,24,-1
 -10 500 l 1,25,-1
 518 500 l 1,26,-1
 518 465 l 1,27,-1
 418 465 l 1,28,-1
 418 0 l 1,29,-1
 378 0 l 1,30,-1
 378 0 l 1,0,-1
253 315 m 1,31,32
 265 327 265 327 279.5 333.5 c 128,-1,33
 294 340 294 340 308 340 c 0,34,35
 325 340 325 340 343 332.5 c 128,-1,36
 361 325 361 325 378 310 c 1,37,-1
 378 465 l 1,38,-1
 143 465 l 1,39,40
 182 432 182 432 210 394 c 128,-1,41
 238 356 238 356 253 315 c 1,42,-1
 253 315 l 1,31,32
EndSplineSet
EndChar

StartChar: habeng
Encoding: 2489 2489 95
Width: 404
GlyphClass: 2
Flags: W
AnchorPoint: "BNAnchor-2" 223 -6 basechar 0
AnchorPoint: "BNAnchor-1" 250 0 basechar 0
AnchorPoint: "BNAnchor-0" 245 0 basechar 0
LayerCount: 2
Fore
SplineSet
399 -95 m 1,0,1
 348 -7 348 -7 255.5 44 c 128,-1,2
 163 95 163 95 54 95 c 1,3,-1
 34 145 l 1,4,-1
 69 140 l 1,5,6
 166 140 166 140 235 172 c 128,-1,7
 304 204 304 204 304 250 c 0,8,9
 304 293 304 293 267.5 324 c 128,-1,10
 231 355 231 355 179 355 c 1,11,12
 179 320 179 320 152.5 295 c 128,-1,13
 126 270 126 270 89 270 c 0,14,15
 64 270 64 270 46.5 284.5 c 128,-1,16
 29 299 29 299 29 320 c 0,17,18
 29 348 29 348 59 369.5 c 128,-1,19
 89 391 89 391 134 395 c 1,20,21
 132 422 132 422 126.5 440 c 128,-1,22
 121 458 121 458 114 465 c 1,23,-1
 -10 465 l 1,24,-1
 -10 500 l 1,25,-1
 414 500 l 1,26,-1
 414 465 l 1,27,-1
 159 465 l 1,28,29
 164 456 164 456 169.5 438 c 128,-1,30
 175 420 175 420 179 395 c 1,31,32
 249 389 249 389 296.5 347 c 128,-1,33
 344 305 344 305 344 250 c 0,34,35
 344 204 344 204 298.5 165.5 c 128,-1,36
 253 127 253 127 184 115 c 1,37,38
 265 93 265 93 331 42.5 c 128,-1,39
 397 -8 397 -8 439 -80 c 1,40,-1
 399 -95 l 1,41,-1
 399 -95 l 1,0,1
EndSplineSet
EndChar

StartChar: nuktabeng
Encoding: 2492 2492 96
Width: 0
GlyphClass: 4
Flags: W
AnchorPoint: "BNAnchor-2" 455 -60 mark 0
LayerCount: 2
Fore
SplineSet
242 -130 m 1,0,1
 225 -130 225 -130 213.5 -118.5 c 128,-1,2
 202 -107 202 -107 202 -90 c 256,3,4
 202 -73 202 -73 213.5 -61.5 c 128,-1,5
 225 -50 225 -50 242 -50 c 256,6,7
 259 -50 259 -50 270.5 -61.5 c 128,-1,8
 282 -73 282 -73 282 -90 c 256,9,10
 282 -107 282 -107 270.5 -118.5 c 128,-1,11
 259 -130 259 -130 242 -130 c 1,12,-1
 242 -130 l 1,0,1
EndSplineSet
EndChar

StartChar: avagrahabeng
Encoding: 2493 2493 97
Width: 418
GlyphClass: 2
Flags: W
LayerCount: 2
Fore
SplineSet
368 -5 m 1,0,1
 304 87 304 87 217.5 142 c 128,-1,2
 131 197 131 197 38 205 c 1,3,-1
 23 240 l 1,4,5
 127 240 127 240 200 284 c 128,-1,6
 273 328 273 328 273 390 c 0,7,8
 273 425 273 425 243.5 450 c 128,-1,9
 214 475 214 475 173 475 c 0,10,11
 153 475 153 475 136.5 470 c 128,-1,12
 120 465 120 465 108 455 c 1,13,14
 127 455 127 455 140 442 c 128,-1,15
 153 429 153 429 153 410 c 0,16,17
 153 387 153 387 137 371 c 128,-1,18
 121 355 121 355 98 355 c 0,19,20
 69 355 69 355 48.5 371 c 128,-1,21
 28 387 28 387 28 410 c 0,22,23
 28 453 28 453 70.5 484 c 128,-1,24
 113 515 113 515 173 515 c 256,25,26
 233 515 233 515 275.5 478.5 c 128,-1,27
 318 442 318 442 318 390 c 0,28,29
 318 334 318 334 272 287 c 128,-1,30
 226 240 226 240 153 220 c 1,31,32
 223 195 223 195 287 142.5 c 128,-1,33
 351 90 351 90 403 15 c 1,34,-1
 368 -5 l 1,35,-1
 368 -5 l 1,0,1
EndSplineSet
EndChar

StartChar: aavowelbeng
Encoding: 2494 2494 98
Width: 223
GlyphClass: 2
Flags: W
LayerCount: 2
Fore
SplineSet
93 0 m 1,0,-1
 93 335 l 2,1,2
 88 390 88 390 66.5 427.5 c 128,-1,3
 45 465 45 465 18 465 c 2,4,-1
 -10 465 l 1,5,-1
 -10 500 l 1,6,-1
 18 500 l 2,7,8
 42 500 42 500 62 486.5 c 128,-1,9
 82 473 82 473 93 450 c 1,10,-1
 93 560 l 1,11,-1
 133 560 l 1,12,-1
 133 500 l 1,13,-1
 233 500 l 1,14,-1
 233 465 l 1,15,-1
 133 465 l 1,16,-1
 133 0 l 1,17,-1
 93 0 l 1,18,-1
 93 0 l 1,0,-1
EndSplineSet
EndChar

StartChar: ivowelbeng
Encoding: 2495 2495 99
Width: 220
GlyphClass: 4
Flags: W
LayerCount: 2
Fore
SplineSet
-10 465 m 1,0,-1
 -10 500 l 1,1,-1
 80 500 l 1,2,3
 66 514 66 514 58 535 c 128,-1,4
 50 556 50 556 50 580 c 0,5,6
 50 636 50 636 100 675.5 c 128,-1,7
 150 715 150 715 220 715 c 0,8,9
 278 715 278 715 345.5 678.5 c 128,-1,10
 413 642 413 642 480 575 c 1,11,-1
 455 550 l 1,12,13
 395 610 395 610 334 642.5 c 128,-1,14
 273 675 273 675 220 675 c 0,15,16
 166 675 166 675 128 647 c 128,-1,17
 90 619 90 619 90 580 c 0,18,19
 90 555 90 555 102 533.5 c 128,-1,20
 114 512 114 512 135 500 c 1,21,-1
 230 500 l 1,22,-1
 230 465 l 1,23,-1
 130 465 l 1,24,-1
 130 0 l 1,25,-1
 90 0 l 1,26,-1
 90 465 l 1,27,-1
 -10 465 l 1,28,-1
 -10 465 l 1,0,-1
EndSplineSet
EndChar

StartChar: iivowelbeng
Encoding: 2496 2496 100
Width: 220
GlyphClass: 2
Flags: W
LayerCount: 2
Fore
SplineSet
90 0 m 1,0,-1
 90 465 l 1,1,-1
 -10 465 l 1,2,-1
 -10 500 l 1,3,-1
 90 500 l 1,4,5
 82 589 82 589 -4 649.5 c 128,-1,6
 -90 710 -90 710 -210 710 c 0,7,8
 -264 710 -264 710 -302 689.5 c 128,-1,9
 -340 669 -340 669 -340 640 c 0,10,11
 -340 618 -340 618 -317.5 602.5 c 128,-1,12
 -295 587 -295 587 -263 587 c 0,13,14
 -247 587 -247 587 -216.5 591 c 128,-1,15
 -186 595 -186 595 -170 595 c 0,16,17
 -133 595 -133 595 -106.5 568.5 c 128,-1,18
 -80 542 -80 542 -80 505 c 1,19,-1
 -120 505 l 1,20,21
 -120 527 -120 527 -134.5 542.5 c 128,-1,22
 -149 558 -149 558 -170 558 c 0,23,24
 -186 558 -186 558 -217.5 554 c 128,-1,25
 -249 550 -249 550 -265 550 c 0,26,27
 -313 550 -313 550 -346.5 576.5 c 128,-1,28
 -380 603 -380 603 -380 640 c 0,29,30
 -380 690 -380 690 -333.5 720 c 128,-1,31
 -287 750 -287 750 -210 750 c 0,32,33
 -69 750 -69 750 30.5 677 c 128,-1,34
 130 604 130 604 130 500 c 1,35,-1
 230 500 l 1,36,-1
 230 465 l 1,37,-1
 130 465 l 1,38,-1
 130 0 l 1,39,-1
 90 0 l 1,40,-1
 90 0 l 1,0,-1
EndSplineSet
EndChar

StartChar: uvowelbeng
Encoding: 2497 2497 101
Width: 0
GlyphClass: 4
Flags: W
AnchorPoint: "BNAnchor-2" -110 -25 mark 0
LayerCount: 2
Fore
SplineSet
-5 -240 m 1,0,1
 -28 -200 -28 -200 -56 -168.5 c 128,-1,2
 -84 -137 -84 -137 -115 -115 c 1,3,4
 -129 -145 -129 -145 -154.5 -162.5 c 128,-1,5
 -180 -180 -180 -180 -210 -180 c 0,6,7
 -245 -180 -245 -180 -270 -158 c 128,-1,8
 -295 -136 -295 -136 -295 -105 c 0,9,10
 -295 -72 -295 -72 -268.5 -48.5 c 128,-1,11
 -242 -25 -242 -25 -205 -25 c 0,12,13
 -186 -25 -186 -25 -167.5 -31.5 c 128,-1,14
 -149 -38 -149 -38 -135 -50 c 1,15,16
 -133 -38 -133 -38 -131.5 -24.5 c 128,-1,17
 -130 -11 -130 -11 -130 5 c 1,18,-1
 -90 5 l 1,19,20
 -90 -21 -90 -21 -92.5 -41 c 128,-1,21
 -95 -61 -95 -61 -100 -75 c 1,22,23
 -62 -102 -62 -102 -29 -138.5 c 128,-1,24
 4 -175 4 -175 30 -220 c 1,25,-1
 -5 -240 l 1,26,-1
 -5 -240 l 1,0,1
-210 -140 m 1,27,28
 -190 -140 -190 -140 -172 -125 c 128,-1,29
 -154 -110 -154 -110 -145 -85 c 1,30,31
 -157 -75 -157 -75 -172 -70 c 128,-1,32
 -187 -65 -187 -65 -205 -65 c 0,33,34
 -226 -65 -226 -65 -240.5 -76.5 c 128,-1,35
 -255 -88 -255 -88 -255 -105 c 0,36,37
 -255 -119 -255 -119 -242 -129.5 c 128,-1,38
 -229 -140 -229 -140 -210 -140 c 1,39,-1
 -210 -140 l 1,27,28
EndSplineSet
EndChar

StartChar: uuvowelbeng
Encoding: 2498 2498 102
Width: 0
GlyphClass: 4
Flags: W
AnchorPoint: "BNAnchor-2" -105 -20 mark 0
LayerCount: 2
Fore
SplineSet
-130 10 m 1,0,-1
 -90 10 l 1,1,-1
 -90 -55 l 1,2,-1
 -117 -70 l 1,3,4
 -123 -63 -123 -63 -133 -59 c 128,-1,5
 -143 -55 -143 -55 -155 -55 c 0,6,7
 -178 -55 -178 -55 -194 -69.5 c 128,-1,8
 -210 -84 -210 -84 -210 -105 c 256,9,10
 -210 -126 -210 -126 -194 -140.5 c 128,-1,11
 -178 -155 -178 -155 -155 -155 c 0,12,13
 -135 -155 -135 -155 -120 -147 c 128,-1,14
 -105 -139 -105 -139 -100 -125 c 1,15,-1
 -65 -120 l 1,16,-1
 115 -215 l 1,17,-1
 95 -245 l 1,18,-1
 -70 -160 l 1,19,20
 -87 -177 -87 -177 -109 -186 c 128,-1,21
 -131 -195 -131 -195 -155 -195 c 0,22,23
 -194 -195 -194 -195 -222 -168.5 c 128,-1,24
 -250 -142 -250 -142 -250 -105 c 0,25,26
 -250 -70 -250 -70 -222 -45 c 128,-1,27
 -194 -20 -194 -20 -154 -20 c 0,28,29
 -146 -20 -146 -20 -140 -21 c 128,-1,30
 -134 -22 -134 -22 -130 -23 c 1,31,-1
 -130 10 l 1,32,-1
 -130 10 l 1,0,-1
EndSplineSet
EndChar

StartChar: rvocalicvowelbeng
Encoding: 2499 2499 103
Width: 0
GlyphClass: 4
Flags: W
AnchorPoint: "BNAnchor-2" -100 -20 mark 0
LayerCount: 2
Fore
SplineSet
-50 -250 m 1,0,-1
 -220 -105 l 1,1,-1
 -110 0 l 1,2,-1
 -85 -30 l 1,3,-1
 -160 -105 l 1,4,-1
 -25 -220 l 1,5,-1
 -50 -250 l 1,6,-1
 -50 -250 l 1,0,-1
EndSplineSet
EndChar

StartChar: rrvocalicvowelbeng
Encoding: 2500 2500 104
Width: 0
GlyphClass: 4
Flags: W
AnchorPoint: "BNAnchor-2" -90 -20 mark 0
LayerCount: 2
Fore
SplineSet
-222 -51 m 1,0,-1
 -109 24 l 1,1,-1
 -85 -2 l 1,2,-1
 -155 -49 l 1,3,-1
 -27 -116 l 1,4,-1
 -50 -145 l 1,5,-1
 -92 -122 l 1,6,-1
 -155 -164 l 1,7,-1
 -27 -231 l 1,8,-1
 -50 -260 l 1,9,-1
 -222 -166 l 1,10,-1
 -127 -103 l 1,11,-1
 -222 -51 l 1,12,-1
 -222 -51 l 1,0,-1
EndSplineSet
EndChar

StartChar: evowelbeng
Encoding: 2503 2503 105
Width: 309
GlyphClass: 2
Flags: W
LayerCount: 2
Fore
SplineSet
-10 465 m 1,0,-1
 -10 500 l 1,1,-1
 319 500 l 1,2,-1
 319 465 l 1,3,-1
 235 465 l 1,4,5
 172 421 172 421 136 350.5 c 128,-1,6
 100 280 100 280 100 200 c 0,7,8
 100 135 100 135 125 88 c 128,-1,9
 150 41 150 41 190 30 c 1,10,11
 188 35 188 35 186.5 41.5 c 128,-1,12
 185 48 185 48 185 56 c 0,13,14
 185 76 185 76 199.5 90.5 c 128,-1,15
 214 105 214 105 235 105 c 0,16,17
 258 105 258 105 274 90.5 c 128,-1,18
 290 76 290 76 290 55 c 0,19,20
 290 28 290 28 268 9 c 128,-1,21
 246 -10 246 -10 215 -10 c 0,22,23
 151 -10 151 -10 105.5 51.5 c 128,-1,24
 60 113 60 113 60 200 c 0,25,26
 60 270 60 270 91 338.5 c 128,-1,27
 122 407 122 407 180 465 c 1,28,-1
 -10 465 l 1,29,-1
 -10 465 l 1,0,-1
EndSplineSet
Substitution2: "initInitialFormslookup0 subtable" evowelbeng.init
EndChar

StartChar: aivowelbeng
Encoding: 2504 2504 106
Width: 323
GlyphClass: 2
Flags: W
LayerCount: 2
Fore
SplineSet
-10 500 m 1,0,-1
 224 500 l 1,1,2
 233 505 233 505 238.5 514.5 c 128,-1,3
 244 524 244 524 244 535 c 0,4,5
 244 547 244 547 235 556 c 128,-1,6
 226 565 226 565 214 565 c 0,7,8
 194 565 194 565 154 560 c 128,-1,9
 114 555 114 555 94 555 c 0,10,11
 59 555 59 555 34 578.5 c 128,-1,12
 9 602 9 602 9 635 c 0,13,14
 9 657 9 657 19.5 678 c 128,-1,15
 30 699 30 699 49 715 c 1,16,-1
 79 695 l 1,17,18
 65 681 65 681 57 665 c 128,-1,19
 49 649 49 649 49 635 c 0,20,21
 49 616 49 616 60.5 603 c 128,-1,22
 72 590 72 590 89 590 c 0,23,24
 109 590 109 590 149 597.5 c 128,-1,25
 189 605 189 605 209 605 c 0,26,27
 240 605 240 605 262 583 c 128,-1,28
 284 561 284 561 284 530 c 0,29,30
 284 524 284 524 281.5 516.5 c 128,-1,31
 279 509 279 509 274 500 c 1,32,-1
 333 500 l 1,33,-1
 333 465 l 1,34,-1
 264 465 l 1,35,36
 189 430 189 430 144 359.5 c 128,-1,37
 99 289 99 289 99 205 c 0,38,39
 99 139 99 139 128.5 91 c 128,-1,40
 158 43 158 43 204 35 c 1,41,42
 200 41 200 41 198 48.5 c 128,-1,43
 196 56 196 56 196 65 c 0,44,45
 196 84 196 84 210 97 c 128,-1,46
 224 110 224 110 244 110 c 0,47,48
 269 110 269 110 286.5 95.5 c 128,-1,49
 304 81 304 81 304 60 c 0,50,51
 304 33 304 33 280.5 14 c 128,-1,52
 257 -5 257 -5 224 -5 c 0,53,54
 156 -5 156 -5 107.5 55 c 128,-1,55
 59 115 59 115 59 200 c 256,56,57
 59 285 59 285 96.5 356 c 128,-1,58
 134 427 134 427 199 465 c 1,59,-1
 -10 465 l 1,60,-1
 -10 500 l 1,61,-1
 -10 500 l 1,0,-1
EndSplineSet
Substitution2: "initInitialFormslookup0 subtable" aivowelbeng.init
EndChar

StartChar: ovowelbeng
Encoding: 2507 2507 107
Width: 600
GlyphClass: 2
Flags: W
LayerCount: 2
Fore
SplineSet
-10 465 m 1,0,-1
 -10 500 l 1,1,-1
 309 500 l 1,2,-1
 309 465 l 1,3,-1
 235 465 l 1,4,5
 172 421 172 421 136 350.5 c 128,-1,6
 100 280 100 280 100 200 c 0,7,8
 100 135 100 135 125 88 c 128,-1,9
 150 41 150 41 190 30 c 1,10,11
 188 35 188 35 186.5 41.5 c 128,-1,12
 185 48 185 48 185 56 c 0,13,14
 185 76 185 76 199.5 90.5 c 128,-1,15
 214 105 214 105 235 105 c 0,16,17
 258 105 258 105 274 90.5 c 128,-1,18
 290 76 290 76 290 55 c 0,19,20
 290 28 290 28 268 9 c 128,-1,21
 246 -10 246 -10 215 -10 c 0,22,23
 151 -10 151 -10 105.5 51.5 c 128,-1,24
 60 113 60 113 60 200 c 0,25,26
 60 270 60 270 91 338.5 c 128,-1,27
 122 407 122 407 180 465 c 1,28,-1
 -10 465 l 1,29,-1
 -10 465 l 1,0,-1
470 0 m 1,30,-1
 470 335 l 2,31,32
 465 390 465 390 443.5 427.5 c 128,-1,33
 422 465 422 465 395 465 c 2,34,-1
 367 465 l 1,35,-1
 367 500 l 1,36,-1
 395 500 l 2,37,38
 419 500 419 500 439 486.5 c 128,-1,39
 459 473 459 473 470 450 c 1,40,-1
 470 560 l 1,41,-1
 510 560 l 1,42,-1
 510 500 l 1,43,-1
 610 500 l 1,44,-1
 610 465 l 1,45,-1
 510 465 l 1,46,-1
 510 0 l 1,47,-1
 470 0 l 1,48,-1
 470 0 l 1,30,-1
EndSplineSet
EndChar

StartChar: auvowelbeng
Encoding: 2508 2508 108
Width: 925
GlyphClass: 2
Flags: W
LayerCount: 2
Fore
SplineSet
-10 465 m 1,0,-1
 -10 500 l 1,1,-1
 309 500 l 1,2,-1
 309 465 l 1,3,-1
 235 465 l 1,4,5
 172 421 172 421 136 350.5 c 128,-1,6
 100 280 100 280 100 200 c 0,7,8
 100 135 100 135 125 88 c 128,-1,9
 150 41 150 41 190 30 c 1,10,11
 188 35 188 35 186.5 41.5 c 128,-1,12
 185 48 185 48 185 56 c 0,13,14
 185 76 185 76 199.5 90.5 c 128,-1,15
 214 105 214 105 235 105 c 0,16,17
 258 105 258 105 274 90.5 c 128,-1,18
 290 76 290 76 290 55 c 0,19,20
 290 28 290 28 268 9 c 128,-1,21
 246 -10 246 -10 215 -10 c 0,22,23
 151 -10 151 -10 105.5 51.5 c 128,-1,24
 60 113 60 113 60 200 c 0,25,26
 60 270 60 270 91 338.5 c 128,-1,27
 122 407 122 407 180 465 c 1,28,-1
 -10 465 l 1,29,-1
 -10 465 l 1,0,-1
795 0 m 1,30,-1
 795 465 l 1,31,-1
 695 465 l 1,32,-1
 695 500 l 1,33,-1
 795 500 l 1,34,35
 795 537 795 537 764 563.5 c 128,-1,36
 733 590 733 590 690 590 c 0,37,38
 659 590 659 590 600 572.5 c 128,-1,39
 541 555 541 555 510 555 c 0,40,41
 464 555 464 555 432 587 c 128,-1,42
 400 619 400 619 400 665 c 0,43,44
 400 677 400 677 404 688.5 c 128,-1,45
 408 700 408 700 415 710 c 1,46,-1
 450 700 l 1,47,48
 445 693 445 693 442.5 684 c 128,-1,49
 440 675 440 675 440 665 c 0,50,51
 440 636 440 636 460.5 615.5 c 128,-1,52
 481 595 481 595 510 595 c 0,53,54
 541 595 541 595 600 612.5 c 128,-1,55
 659 630 659 630 690 630 c 0,56,57
 750 630 750 630 792.5 592 c 128,-1,58
 835 554 835 554 835 500 c 1,59,-1
 935 500 l 1,60,-1
 935 465 l 1,61,-1
 835 465 l 1,62,-1
 835 0 l 1,63,-1
 795 0 l 1,64,-1
 795 0 l 1,30,-1
EndSplineSet
EndChar

StartChar: viramabeng
Encoding: 2509 2509 109
Width: 0
GlyphClass: 4
Flags: W
AnchorPoint: "BNAnchor-2" -90 15 mark 0
LayerCount: 2
Fore
SplineSet
80 -234 m 1,0,-1
 -139 -29 l 1,1,-1
 -110 1 l 1,2,-1
 110 -204 l 1,3,-1
 80 -234 l 1,4,-1
 80 -234 l 1,0,-1
EndSplineSet
EndChar

StartChar: khandatabeng
Encoding: 2510 2510 110
Width: 411
GlyphClass: 2
Flags: W
AnchorPoint: "BNAnchor-1" 200 0 basechar 0
AnchorPoint: "BNAnchor-0" 195 0 basechar 0
LayerCount: 2
Fore
SplineSet
338 0 m 1,0,1
 333 54 333 54 291 100 c 128,-1,2
 249 146 249 146 183 170 c 0,3,4
 118 194 118 194 78 243.5 c 128,-1,5
 38 293 38 293 38 350 c 0,6,7
 38 423 38 423 90 466.5 c 128,-1,8
 142 510 142 510 228 510 c 0,9,10
 269 510 269 510 298.5 476.5 c 128,-1,11
 328 443 328 443 328 395 c 0,12,13
 328 352 328 352 298.5 321 c 128,-1,14
 269 290 269 290 228 290 c 0,15,16
 189 290 189 290 161 321 c 128,-1,17
 133 352 133 352 133 395 c 0,18,19
 133 414 133 414 137 430.5 c 128,-1,20
 141 447 141 447 148 460 c 1,21,22
 116 449 116 449 97 418.5 c 128,-1,23
 78 388 78 388 78 350 c 0,24,25
 78 309 78 309 108 271 c 128,-1,26
 138 233 138 233 188 210 c 0,27,28
 271 180 271 180 324 123 c 128,-1,29
 377 66 377 66 383 0 c 1,30,-1
 338 0 l 1,31,-1
 338 0 l 1,0,1
230 325 m 1,32,33
 254 325 254 325 271 346 c 128,-1,34
 288 367 288 367 288 397 c 128,-1,35
 288 427 288 427 271 448.5 c 128,-1,36
 254 470 254 470 230 470 c 128,-1,37
 206 470 206 470 189.5 448.5 c 128,-1,38
 173 427 173 427 173 397 c 128,-1,39
 173 367 173 367 189.5 346 c 128,-1,40
 206 325 206 325 230 325 c 1,41,-1
 230 325 l 1,32,33
EndSplineSet
Ligature2: "halfHalfFormslookup5 subtable" tabeng viramabeng zerowidthjoiner
EndChar

StartChar: aulengthmarkbeng
Encoding: 2519 2519 111
Width: 220
GlyphClass: 2
Flags: W
LayerCount: 2
Fore
SplineSet
90 0 m 1,0,-1
 90 465 l 1,1,-1
 -10 465 l 1,2,-1
 -10 500 l 1,3,-1
 90 500 l 1,4,5
 90 537 90 537 59 563.5 c 128,-1,6
 28 590 28 590 -15 590 c 0,7,8
 -46 590 -46 590 -105 572.5 c 128,-1,9
 -164 555 -164 555 -195 555 c 0,10,11
 -241 555 -241 555 -273 587 c 128,-1,12
 -305 619 -305 619 -305 665 c 0,13,14
 -305 677 -305 677 -301 688.5 c 128,-1,15
 -297 700 -297 700 -290 710 c 1,16,-1
 -255 700 l 1,17,18
 -260 693 -260 693 -262.5 684 c 128,-1,19
 -265 675 -265 675 -265 665 c 0,20,21
 -265 636 -265 636 -244.5 615.5 c 128,-1,22
 -224 595 -224 595 -195 595 c 0,23,24
 -164 595 -164 595 -105 612.5 c 128,-1,25
 -46 630 -46 630 -15 630 c 0,26,27
 45 630 45 630 87.5 592 c 128,-1,28
 130 554 130 554 130 500 c 1,29,-1
 230 500 l 1,30,-1
 230 465 l 1,31,-1
 130 465 l 1,32,-1
 130 0 l 1,33,-1
 90 0 l 1,34,-1
 90 0 l 1,0,-1
EndSplineSet
EndChar

StartChar: rrabeng
Encoding: 2524 2524 112
Width: 549
GlyphClass: 2
Flags: W
AnchorPoint: "BNAnchor-2" 436 -5 basechar 0
AnchorPoint: "BNAnchor-1" 360 -5 basechar 0
AnchorPoint: "BNAnchor-0" 360 -5 basechar 0
LayerCount: 2
Fore
SplineSet
288 -115 m 1,0,1
 271 -115 271 -115 259.5 -103.5 c 0,2,3
 248 -92 248 -92 248 -75 c 256,4,5
 248 -58 248 -58 259.5 -46.5 c 0,6,7
 271 -35 271 -35 288 -35 c 256,8,9
 305 -35 305 -35 316.5 -46.5 c 0,10,11
 328 -58 328 -58 328 -75 c 256,12,13
 328 -92 328 -92 316.5 -103.5 c 0,14,15
 305 -115 305 -115 288 -115 c 1,16,-1
 288 -115 l 1,0,1
EndSplineSet
Refer: 76 2465 S 1 0 0 1 0 0 2
Ligature2: "nuktNuktaFormslookup2 subtable" ddabeng nuktabeng
EndChar

StartChar: rrvocalicbeng
Encoding: 2528 2528 115
Width: 636
GlyphClass: 2
Flags: W
LayerCount: 2
Fore
SplineSet
377 0 m 1,0,1
 340 79 340 79 272 128.5 c 128,-1,2
 204 178 204 178 122 185 c 1,3,-1
 92 225 l 1,4,5
 145 278 145 278 207.5 315 c 128,-1,6
 270 352 270 352 337 370 c 1,7,8
 299 377 299 377 269 396.5 c 128,-1,9
 239 416 239 416 222 445 c 1,10,11
 196 407 196 407 162.5 386 c 128,-1,12
 129 365 129 365 97 365 c 0,13,14
 62 365 62 365 37 388.5 c 128,-1,15
 12 412 12 412 12 445 c 0,16,17
 12 468 12 468 26.5 484 c 128,-1,18
 41 500 41 500 62 500 c 0,19,20
 79 500 79 500 90.5 489.5 c 128,-1,21
 102 479 102 479 102 465 c 256,22,23
 102 451 102 451 94.5 440.5 c 128,-1,24
 87 430 87 430 77 430 c 2,25,-1
 67 430 l 1,26,27
 67 422 67 422 77.5 416 c 128,-1,28
 88 410 88 410 102 410 c 0,29,30
 124 410 124 410 155.5 438 c 128,-1,31
 187 466 187 466 222 515 c 1,32,33
 245 465 245 465 286 435 c 128,-1,34
 327 405 327 405 372 405 c 1,35,-1
 372 500 l 1,36,-1
 412 500 l 1,37,-1
 412 255 l 1,38,39
 451 237 451 237 479 214 c 128,-1,40
 507 191 507 191 522 165 c 1,41,-1
 522 560 l 1,42,-1
 562 560 l 1,43,-1
 562 500 l 1,44,-1
 646 500 l 1,45,-1
 646 465 l 1,46,-1
 562 465 l 1,47,-1
 562 80 l 1,48,-1
 532 80 l 1,49,50
 522 117 522 117 491 152.5 c 128,-1,51
 460 188 460 188 412 215 c 1,52,-1
 412 0 l 1,53,-1
 377 0 l 1,54,-1
 377 0 l 1,0,1
372 80 m 1,55,-1
 372 335 l 1,56,57
 298 315 298 315 241 286 c 128,-1,58
 184 257 184 257 147 220 c 1,59,60
 211 214 211 214 270 177.5 c 128,-1,61
 329 141 329 141 372 80 c 1,62,-1
 372 80 l 1,55,-1
453 -255 m 1,63,-1
 283 -110 l 1,64,-1
 393 -5 l 1,65,-1
 418 -35 l 1,66,-1
 343 -110 l 1,67,-1
 478 -225 l 1,68,-1
 453 -255 l 1,69,-1
 453 -255 l 1,63,-1
EndSplineSet
EndChar

StartChar: llvocalicbeng
Encoding: 2529 2529 116
Width: 463
GlyphClass: 2
Flags: W
LayerCount: 2
Fore
SplineSet
84 445 m 1,0,1
 84 460 84 460 90.5 475.5 c 128,-1,2
 97 491 97 491 109 505 c 1,3,-1
 144 485 l 1,4,5
 137 479 137 479 133 468.5 c 128,-1,6
 129 458 129 458 129 445 c 0,7,8
 129 414 129 414 163.5 382 c 128,-1,9
 198 350 198 350 254 330 c 0,10,11
 331 302 331 302 377.5 255.5 c 128,-1,12
 424 209 424 209 424 160 c 0,13,14
 424 101 424 101 386 55.5 c 128,-1,15
 348 10 348 10 289 0 c 1,16,-1
 254 30 l 1,17,18
 265 59 265 59 269.5 75 c 128,-1,19
 274 91 274 91 274 100 c 0,20,21
 274 139 274 139 246 167 c 128,-1,22
 218 195 218 195 179 195 c 0,23,24
 138 195 138 195 108.5 170 c 128,-1,25
 79 145 79 145 79 110 c 0,26,27
 79 90 79 90 90 73.5 c 128,-1,28
 101 57 101 57 119 50 c 1,29,30
 119 69 119 69 132 82 c 128,-1,31
 145 95 145 95 164 95 c 0,32,33
 185 95 185 95 199.5 82 c 128,-1,34
 214 69 214 69 214 50 c 0,35,36
 214 48 214 48 213.5 45.5 c 128,-1,37
 213 43 213 43 213 41 c 1,38,-1
 229 33 l 1,39,40
 225 30 225 30 222.5 23.5 c 128,-1,41
 220 17 220 17 220 9 c 0,42,43
 220 -10 220 -10 242.5 -29 c 128,-1,44
 265 -48 265 -48 301 -60 c 0,45,46
 352 -76 352 -76 383 -104 c 128,-1,47
 414 -132 414 -132 414 -160 c 0,48,49
 414 -194 414 -194 389 -221 c 128,-1,50
 364 -248 364 -248 325 -255 c 1,51,-1
 301 -237 l 1,52,53
 309 -217 309 -217 312 -208.5 c 128,-1,54
 315 -200 315 -200 315 -195 c 0,55,56
 315 -172 315 -172 296.5 -155.5 c 128,-1,57
 278 -139 278 -139 252 -139 c 0,58,59
 225 -139 225 -139 206 -154 c 128,-1,60
 187 -169 187 -169 187 -190 c 0,61,62
 187 -202 187 -202 194 -211.5 c 128,-1,63
 201 -221 201 -221 212 -225 c 1,64,65
 212 -214 212 -214 221 -206.5 c 128,-1,66
 230 -199 230 -199 243 -199 c 0,67,68
 257 -199 257 -199 266.5 -206.5 c 128,-1,69
 276 -214 276 -214 276 -225 c 0,70,71
 276 -237 276 -237 263.5 -246 c 128,-1,72
 251 -255 251 -255 233 -255 c 0,73,74
 203 -255 203 -255 181.5 -236 c 128,-1,75
 160 -217 160 -217 160 -190 c 0,76,77
 160 -159 160 -159 187 -137 c 128,-1,78
 214 -115 214 -115 252 -115 c 0,79,80
 289 -115 289 -115 315 -138.5 c 128,-1,81
 341 -162 341 -162 341 -195 c 0,82,83
 341 -205 341 -205 339.5 -212.5 c 128,-1,84
 338 -220 338 -220 335 -225 c 1,85,86
 356 -218 356 -218 369.5 -200 c 128,-1,87
 383 -182 383 -182 383 -160 c 0,88,89
 383 -137 383 -137 355.5 -114.5 c 128,-1,90
 328 -92 328 -92 283 -77 c 0,91,92
 241 -63 241 -63 215.5 -38.5 c 128,-1,93
 190 -14 190 -14 190 12 c 1,94,95
 181 6 181 6 170.5 3 c 128,-1,96
 160 0 160 0 149 0 c 0,97,98
 103 0 103 0 71 32 c 128,-1,99
 39 64 39 64 39 110 c 0,100,101
 39 162 39 162 80 198.5 c 128,-1,102
 121 235 121 235 179 235 c 0,103,104
 235 235 235 235 274.5 195.5 c 128,-1,105
 314 156 314 156 314 100 c 0,106,107
 314 84 314 84 311.5 71.5 c 128,-1,108
 309 59 309 59 304 50 c 1,109,110
 338 62 338 62 358.5 92.5 c 128,-1,111
 379 123 379 123 379 160 c 0,112,113
 379 198 379 198 336.5 236.5 c 128,-1,114
 294 275 294 275 224 300 c 0,115,116
 161 323 161 323 122.5 363 c 128,-1,117
 84 403 84 403 84 445 c 1,118,-1
 84 445 l 1,0,1
EndSplineSet
EndChar

StartChar: lvocalicvowelbeng
Encoding: 2530 2530 117
Width: 0
GlyphClass: 4
Flags: W
AnchorPoint: "BNAnchor-2" -259 20 mark 0
LayerCount: 2
Fore
SplineSet
-335 -7 m 1,0,1
 -335 0 -335 0 -331.5 8 c 128,-1,2
 -328 16 -328 16 -321 24 c 1,3,-1
 -293 8 l 1,4,5
 -297 5 -297 5 -299 1 c 128,-1,6
 -301 -3 -301 -3 -301 -7 c 0,7,8
 -301 -24 -301 -24 -285.5 -40 c 128,-1,9
 -270 -56 -270 -56 -245 -65 c 0,10,11
 -201 -81 -201 -81 -174.5 -107 c 128,-1,12
 -148 -133 -148 -133 -148 -159 c 0,13,14
 -148 -193 -148 -193 -167 -219 c 128,-1,15
 -186 -245 -186 -245 -215 -250 c 1,16,-1
 -250 -229 l 1,17,18
 -244 -219 -244 -219 -241 -209.5 c 128,-1,19
 -238 -200 -238 -200 -238 -192 c 0,20,21
 -238 -171 -238 -171 -252.5 -156 c 128,-1,22
 -267 -141 -267 -141 -288 -141 c 0,23,24
 -308 -141 -308 -141 -322.5 -154 c 128,-1,25
 -337 -167 -337 -167 -337 -186 c 0,26,27
 -337 -197 -337 -197 -331.5 -206 c 128,-1,28
 -326 -215 -326 -215 -317 -218 c 1,29,30
 -317 -208 -317 -208 -309 -201.5 c 128,-1,31
 -301 -195 -301 -195 -289 -195 c 256,32,33
 -277 -195 -277 -195 -268.5 -203 c 128,-1,34
 -260 -211 -260 -211 -260 -223 c 0,35,36
 -260 -236 -260 -236 -271.5 -245.5 c 128,-1,37
 -283 -255 -283 -255 -300 -255 c 0,38,39
 -329 -255 -329 -255 -349 -235 c 128,-1,40
 -369 -215 -369 -215 -369 -186 c 0,41,42
 -369 -154 -369 -154 -345.5 -131.5 c 128,-1,43
 -322 -109 -322 -109 -288 -109 c 0,44,45
 -255 -109 -255 -109 -231.5 -133.5 c 128,-1,46
 -208 -158 -208 -158 -208 -192 c 0,47,48
 -208 -201 -208 -201 -209.5 -207.5 c 128,-1,49
 -211 -214 -211 -214 -213 -218 c 1,50,51
 -199 -213 -199 -213 -190 -196.5 c 128,-1,52
 -181 -180 -181 -180 -181 -159 c 0,53,54
 -181 -141 -181 -141 -202.5 -122.5 c 128,-1,55
 -224 -104 -224 -104 -259 -91 c 0,56,57
 -293 -79 -293 -79 -314 -55.5 c 128,-1,58
 -335 -32 -335 -32 -335 -7 c 1,59,-1
 -335 -7 l 1,0,1
EndSplineSet
EndChar

StartChar: llvocalicvowelbeng
Encoding: 2531 2531 118
Width: 0
GlyphClass: 4
Flags: W
AnchorPoint: "BNAnchor-2" -152 30 mark 0
LayerCount: 2
Fore
SplineSet
-104 -7 m 1,0,1
 -104 0 -104 0 -100.5 8 c 128,-1,2
 -97 16 -97 16 -90 24 c 1,3,-1
 -62 8 l 1,4,5
 -66 5 -66 5 -68 1 c 128,-1,6
 -70 -3 -70 -3 -70 -7 c 0,7,8
 -70 -24 -70 -24 -54.5 -40 c 128,-1,9
 -39 -56 -39 -56 -14 -65 c 0,10,11
 30 -81 30 -81 56.5 -107 c 128,-1,12
 83 -133 83 -133 83 -159 c 0,13,14
 83 -193 83 -193 64 -219 c 128,-1,15
 45 -245 45 -245 16 -250 c 1,16,-1
 -19 -229 l 1,17,18
 -13 -219 -13 -219 -10 -209.5 c 128,-1,19
 -7 -200 -7 -200 -7 -192 c 0,20,21
 -7 -171 -7 -171 -21.5 -156 c 128,-1,22
 -36 -141 -36 -141 -57 -141 c 0,23,24
 -77 -141 -77 -141 -91.5 -154 c 128,-1,25
 -106 -167 -106 -167 -106 -186 c 0,26,27
 -106 -197 -106 -197 -100.5 -206 c 128,-1,28
 -95 -215 -95 -215 -86 -218 c 1,29,30
 -86 -208 -86 -208 -78 -201.5 c 128,-1,31
 -70 -195 -70 -195 -58 -195 c 256,32,33
 -46 -195 -46 -195 -37.5 -203 c 128,-1,34
 -29 -211 -29 -211 -29 -223 c 0,35,36
 -29 -236 -29 -236 -40.5 -245.5 c 128,-1,37
 -52 -255 -52 -255 -69 -255 c 0,38,39
 -98 -255 -98 -255 -118 -235 c 128,-1,40
 -138 -215 -138 -215 -138 -186 c 0,41,42
 -138 -154 -138 -154 -114.5 -131.5 c 128,-1,43
 -91 -109 -91 -109 -57 -109 c 0,44,45
 -24 -109 -24 -109 -0.5 -133.5 c 128,-1,46
 23 -158 23 -158 23 -192 c 0,47,48
 23 -201 23 -201 21.5 -207.5 c 128,-1,49
 20 -214 20 -214 18 -218 c 1,50,51
 32 -213 32 -213 41 -196.5 c 128,-1,52
 50 -180 50 -180 50 -159 c 0,53,54
 50 -141 50 -141 28.5 -122.5 c 128,-1,55
 7 -104 7 -104 -28 -91 c 0,56,57
 -62 -79 -62 -79 -83 -55.5 c 128,-1,58
 -104 -32 -104 -32 -104 -7 c 1,59,-1
 -104 -7 l 1,0,1
-338 -7 m 5,60,61
 -338 0 -338 0 -334.5 8 c 132,-1,62
 -331 16 -331 16 -324 24 c 5,63,-1
 -296 8 l 5,64,65
 -300 5 -300 5 -302 1 c 132,-1,66
 -304 -3 -304 -3 -304 -7 c 4,67,68
 -304 -24 -304 -24 -288.5 -40 c 132,-1,69
 -273 -56 -273 -56 -248 -65 c 4,70,71
 -204 -81 -204 -81 -177.5 -107 c 132,-1,72
 -151 -133 -151 -133 -151 -159 c 4,73,74
 -151 -193 -151 -193 -170 -219 c 132,-1,75
 -189 -245 -189 -245 -218 -250 c 5,76,-1
 -253 -229 l 5,77,78
 -247 -219 -247 -219 -244 -209.5 c 132,-1,79
 -241 -200 -241 -200 -241 -192 c 4,80,81
 -241 -171 -241 -171 -255.5 -156 c 132,-1,82
 -270 -141 -270 -141 -291 -141 c 4,83,84
 -311 -141 -311 -141 -325.5 -154 c 132,-1,85
 -340 -167 -340 -167 -340 -186 c 4,86,87
 -340 -197 -340 -197 -334.5 -206 c 132,-1,88
 -329 -215 -329 -215 -320 -218 c 5,89,90
 -320 -208 -320 -208 -312 -201.5 c 132,-1,91
 -304 -195 -304 -195 -292 -195 c 260,92,93
 -280 -195 -280 -195 -271.5 -203 c 132,-1,94
 -263 -211 -263 -211 -263 -223 c 4,95,96
 -263 -236 -263 -236 -274.5 -245.5 c 132,-1,97
 -286 -255 -286 -255 -303 -255 c 4,98,99
 -332 -255 -332 -255 -352 -235 c 132,-1,100
 -372 -215 -372 -215 -372 -186 c 4,101,102
 -372 -154 -372 -154 -348.5 -131.5 c 132,-1,103
 -325 -109 -325 -109 -291 -109 c 4,104,105
 -258 -109 -258 -109 -234.5 -133.5 c 132,-1,106
 -211 -158 -211 -158 -211 -192 c 4,107,108
 -211 -201 -211 -201 -212.5 -207.5 c 132,-1,109
 -214 -214 -214 -214 -216 -218 c 5,110,111
 -202 -213 -202 -213 -193 -196.5 c 132,-1,112
 -184 -180 -184 -180 -184 -159 c 4,113,114
 -184 -141 -184 -141 -205.5 -122.5 c 132,-1,115
 -227 -104 -227 -104 -262 -91 c 4,116,117
 -296 -79 -296 -79 -317 -55.5 c 132,-1,118
 -338 -32 -338 -32 -338 -7 c 5,119,-1
 -338 -7 l 5,60,61
EndSplineSet
EndChar

StartChar: zerobeng
Encoding: 2534 2534 119
Width: 500
GlyphClass: 2
Flags: W
LayerCount: 2
Fore
SplineSet
250 90 m 1,0,1
 180 90 180 90 130 138.5 c 128,-1,2
 80 187 80 187 80 255 c 256,3,4
 80 323 80 323 130 371.5 c 128,-1,5
 180 420 180 420 250 420 c 256,6,7
 320 420 320 420 370 371.5 c 128,-1,8
 420 323 420 323 420 255 c 256,9,10
 420 187 420 187 370 138.5 c 128,-1,11
 320 90 320 90 250 90 c 1,12,-1
 250 90 l 1,0,1
250 130 m 1,13,14
 304 130 304 130 342 166.5 c 128,-1,15
 380 203 380 203 380 255 c 256,16,17
 380 307 380 307 342 343.5 c 128,-1,18
 304 380 304 380 250 380 c 256,19,20
 196 380 196 380 158 343.5 c 128,-1,21
 120 307 120 307 120 255 c 256,22,23
 120 203 120 203 158 166.5 c 128,-1,24
 196 130 196 130 250 130 c 1,25,-1
 250 130 l 1,13,14
EndSplineSet
EndChar

StartChar: onebeng
Encoding: 2535 2535 120
Width: 499
GlyphClass: 2
Flags: W
LayerCount: 2
Fore
SplineSet
202 -10 m 1,0,1
 173 -10 173 -10 152.5 6 c 128,-1,2
 132 22 132 22 132 45 c 0,3,4
 132 64 132 64 146.5 77 c 128,-1,5
 161 90 161 90 182 90 c 0,6,7
 212 90 212 90 233 73.5 c 128,-1,8
 254 57 254 57 252 35 c 1,9,10
 296 47 296 47 324 83 c 128,-1,11
 352 119 352 119 352 165 c 0,12,13
 352 205 352 205 312.5 247 c 128,-1,14
 273 289 273 289 207 320 c 0,15,16
 161 341 161 341 134 371 c 128,-1,17
 107 401 107 401 107 430 c 0,18,19
 107 453 107 453 120 476 c 128,-1,20
 133 499 133 499 157 515 c 1,21,-1
 187 490 l 1,22,23
 168 474 168 474 157.5 458.5 c 128,-1,24
 147 443 147 443 147 430 c 0,25,26
 147 411 147 411 173 388 c 128,-1,27
 199 365 199 365 242 345 c 0,28,29
 311 313 311 313 351.5 264 c 128,-1,30
 392 215 392 215 392 165 c 0,31,32
 392 93 392 93 336.5 41.5 c 128,-1,33
 281 -10 281 -10 202 -10 c 1,34,-1
 202 -10 l 1,0,1
EndSplineSet
EndChar

StartChar: twobeng
Encoding: 2536 2536 121
Width: 500
GlyphClass: 2
Flags: W
LayerCount: 2
Fore
SplineSet
400 -75 m 1,0,1
 339 12 339 12 253 77.5 c 128,-1,2
 167 143 167 143 65 180 c 1,3,-1
 85 220 l 1,4,5
 111 205 111 205 138.5 197.5 c 128,-1,6
 166 190 166 190 195 190 c 0,7,8
 253 190 253 190 294 213.5 c 128,-1,9
 335 237 335 237 335 270 c 0,10,11
 335 296 335 296 304 319 c 128,-1,12
 273 342 273 342 225 350 c 0,13,14
 182 358 182 358 153.5 383.5 c 128,-1,15
 125 409 125 409 125 440 c 0,16,17
 125 458 125 458 133 474 c 128,-1,18
 141 490 141 490 155 500 c 1,19,-1
 185 480 l 1,20,21
 175 472 175 472 170 461.5 c 128,-1,22
 165 451 165 451 165 440 c 0,23,24
 165 421 165 421 190.5 404 c 128,-1,25
 216 387 216 387 255 380 c 0,26,27
 307 371 307 371 341 340 c 128,-1,28
 375 309 375 309 375 270 c 0,29,30
 375 222 375 222 329.5 188.5 c 128,-1,31
 284 155 284 155 220 155 c 1,32,33
 290 106 290 106 344 54.5 c 128,-1,34
 398 3 398 3 435 -50 c 1,35,-1
 400 -75 l 1,36,-1
 400 -75 l 1,0,1
EndSplineSet
EndChar

StartChar: threebeng
Encoding: 2537 2537 122
Width: 500
GlyphClass: 2
Flags: W
LayerCount: 2
Fore
SplineSet
290 70 m 1,0,1
 191 70 191 70 116 158 c 128,-1,2
 41 246 41 246 30 375 c 1,3,-1
 70 380 l 1,4,5
 80 265 80 265 143.5 187.5 c 128,-1,6
 207 110 207 110 290 110 c 0,7,8
 348 110 348 110 389 154 c 128,-1,9
 430 198 430 198 430 260 c 0,10,11
 430 318 430 318 396.5 359 c 128,-1,12
 363 400 363 400 315 400 c 0,13,14
 297 400 297 400 280.5 395 c 128,-1,15
 264 390 264 390 250 380 c 1,16,17
 264 380 264 380 274.5 367 c 128,-1,18
 285 354 285 354 285 335 c 0,19,20
 285 318 285 318 272 306.5 c 128,-1,21
 259 295 259 295 240 295 c 0,22,23
 219 295 219 295 204.5 309.5 c 128,-1,24
 190 324 190 324 190 345 c 0,25,26
 190 384 190 384 226.5 412 c 128,-1,27
 263 440 263 440 315 440 c 0,28,29
 379 440 379 440 424.5 387.5 c 128,-1,30
 470 335 470 335 470 260 c 0,31,32
 470 181 470 181 417.5 125.5 c 128,-1,33
 365 70 365 70 290 70 c 1,34,-1
 290 70 l 1,0,1
EndSplineSet
EndChar

StartChar: fourbeng
Encoding: 2538 2538 123
Width: 499
GlyphClass: 2
Flags: W
LayerCount: 2
Fore
SplineSet
252 10 m 1,0,1
 186 10 186 10 139 51 c 128,-1,2
 92 92 92 92 92 150 c 0,3,4
 92 182 92 182 111 211.5 c 128,-1,5
 130 241 130 241 162 260 c 1,6,7
 133 284 133 284 117.5 313 c 128,-1,8
 102 342 102 342 102 370 c 0,9,10
 102 420 102 420 146 455 c 128,-1,11
 190 490 190 490 252 490 c 0,12,13
 310 490 310 490 351 453.5 c 128,-1,14
 392 417 392 417 392 365 c 0,15,16
 392 334 392 334 374.5 305.5 c 128,-1,17
 357 277 357 277 327 260 c 1,18,19
 364 243 364 243 385.5 210.5 c 128,-1,20
 407 178 407 178 407 140 c 0,21,22
 407 86 407 86 361.5 48 c 128,-1,23
 316 10 316 10 252 10 c 1,24,-1
 252 10 l 1,0,1
252 50 m 1,25,26
 300 50 300 50 333.5 76.5 c 128,-1,27
 367 103 367 103 367 140 c 0,28,29
 367 183 367 183 332 214 c 128,-1,30
 297 245 297 245 247 245 c 0,31,32
 199 245 199 245 165.5 217 c 128,-1,33
 132 189 132 189 132 150 c 0,34,35
 132 109 132 109 167 79.5 c 128,-1,36
 202 50 202 50 252 50 c 1,37,-1
 252 50 l 1,25,26
247 280 m 1,38,39
 290 280 290 280 321 303.5 c 128,-1,40
 352 327 352 327 352 360 c 0,41,42
 352 397 352 397 322.5 423.5 c 128,-1,43
 293 450 293 450 252 450 c 0,44,45
 206 450 206 450 174 425 c 128,-1,46
 142 400 142 400 142 365 c 256,47,48
 142 330 142 330 173 305 c 128,-1,49
 204 280 204 280 247 280 c 1,50,-1
 247 280 l 1,38,39
EndSplineSet
EndChar

StartChar: fivebeng
Encoding: 2539 2539 124
Width: 499
GlyphClass: 2
Flags: W
LayerCount: 2
Fore
SplineSet
292 10 m 1,0,1
 201 10 201 10 136.5 77.5 c 128,-1,2
 72 145 72 145 72 240 c 0,3,4
 72 327 72 327 146 401 c 128,-1,5
 220 475 220 475 307 475 c 0,6,7
 319 475 319 475 328 467.5 c 128,-1,8
 337 460 337 460 337 450 c 0,9,10
 337 444 337 444 330.5 436 c 128,-1,11
 324 428 324 428 312 420 c 0,12,13
 305 415 305 415 301 407 c 128,-1,14
 297 399 297 399 297 390 c 0,15,16
 297 373 297 373 311.5 361.5 c 128,-1,17
 326 350 326 350 347 350 c 1,18,19
 359 360 359 360 373 369 c 128,-1,20
 387 378 387 378 402 385 c 1,21,-1
 427 360 l 1,22,23
 369 327 369 327 335.5 276 c 128,-1,24
 302 225 302 225 302 170 c 0,25,26
 302 136 302 136 323.5 103.5 c 128,-1,27
 345 71 345 71 382 50 c 1,28,-1
 352 15 l 1,29,30
 338 13 338 13 323 11.5 c 128,-1,31
 308 10 308 10 292 10 c 1,32,-1
 292 10 l 1,0,1
322 50 m 1,33,34
 294 66 294 66 278 98 c 128,-1,35
 262 130 262 130 262 170 c 0,36,37
 262 213 262 213 276.5 251 c 128,-1,38
 291 289 291 289 317 315 c 1,39,40
 289 320 289 320 270.5 342.5 c 128,-1,41
 252 365 252 365 252 395 c 0,42,43
 252 406 252 406 257.5 415.5 c 128,-1,44
 263 425 263 425 272 430 c 1,45,46
 203 418 203 418 157.5 361.5 c 128,-1,47
 112 305 112 305 112 230 c 0,48,49
 112 150 112 150 174.5 96.5 c 128,-1,50
 237 43 237 43 322 50 c 1,51,-1
 322 50 l 1,33,34
EndSplineSet
EndChar

StartChar: sixbeng
Encoding: 2540 2540 125
Width: 500
GlyphClass: 2
Flags: W
LayerCount: 2
Fore
SplineSet
280 5 m 1,0,1
 174 5 174 5 99.5 109 c 128,-1,2
 25 213 25 213 25 360 c 1,3,-1
 65 365 l 1,4,5
 65 232 65 232 128 138.5 c 128,-1,6
 191 45 191 45 280 45 c 0,7,8
 344 45 344 45 389.5 87.5 c 128,-1,9
 435 130 435 130 435 190 c 0,10,11
 435 211 435 211 426 233 c 128,-1,12
 417 255 417 255 400 275 c 1,13,14
 377 225 377 225 345.5 195 c 128,-1,15
 314 165 314 165 285 165 c 0,16,17
 252 165 252 165 228.5 194.5 c 128,-1,18
 205 224 205 224 205 265 c 2,19,-1
 205 340 l 2,20,21
 205 381 205 381 194 409.5 c 128,-1,22
 183 438 183 438 165 445 c 1,23,-1
 200 485 l 1,24,25
 223 474 223 474 236.5 435 c 128,-1,26
 250 396 250 396 250 340 c 2,27,-1
 250 265 l 2,28,29
 250 242 250 242 260.5 226 c 128,-1,30
 271 210 271 210 285 210 c 0,31,32
 311 210 311 210 337.5 247.5 c 128,-1,33
 364 285 364 285 380 345 c 1,34,35
 423 329 423 329 449 286.5 c 128,-1,36
 475 244 475 244 475 190 c 0,37,38
 475 113 475 113 418 59 c 128,-1,39
 361 5 361 5 280 5 c 1,40,-1
 280 5 l 1,0,1
EndSplineSet
EndChar

StartChar: sevenbeng
Encoding: 2541 2541 126
Width: 500
GlyphClass: 2
Flags: W
LayerCount: 2
Fore
SplineSet
360 15 m 1,0,1
 333 15 333 15 314 41.5 c 128,-1,2
 295 68 295 68 295 105 c 2,3,-1
 295 300 l 1,4,5
 271 283 271 283 248 274 c 128,-1,6
 225 265 225 265 205 265 c 0,7,8
 155 265 155 265 120 297 c 128,-1,9
 85 329 85 329 85 375 c 256,10,11
 85 421 85 421 120 453 c 128,-1,12
 155 485 155 485 205 485 c 0,13,14
 259 485 259 485 297 444 c 128,-1,15
 335 403 335 403 335 345 c 2,16,-1
 335 105 l 2,17,18
 335 84 335 84 342.5 69.5 c 128,-1,19
 350 55 350 55 360 55 c 0,20,21
 368 55 368 55 377.5 61.5 c 128,-1,22
 387 68 387 68 395 80 c 1,23,-1
 415 45 l 1,24,25
 403 31 403 31 388.5 23 c 128,-1,26
 374 15 374 15 360 15 c 1,27,-1
 360 15 l 1,0,1
205 305 m 1,28,29
 223 305 223 305 246 316.5 c 128,-1,30
 269 328 269 328 295 350 c 1,31,32
 295 389 295 389 268.5 417 c 128,-1,33
 242 445 242 445 205 445 c 0,34,35
 172 445 172 445 148.5 426 c 128,-1,36
 125 407 125 407 125 380 c 0,37,38
 125 349 125 349 148.5 327 c 128,-1,39
 172 305 172 305 205 305 c 1,40,-1
 205 305 l 1,28,29
EndSplineSet
EndChar

StartChar: eightbeng
Encoding: 2542 2542 127
Width: 499
GlyphClass: 2
Flags: W
LayerCount: 2
Fore
SplineSet
162 20 m 1,0,1
 131 20 131 20 109 43.5 c 128,-1,2
 87 67 87 67 87 100 c 2,3,-1
 87 390 l 2,4,5
 87 413 87 413 75.5 429 c 128,-1,6
 64 445 64 445 47 445 c 0,7,8
 37 445 37 445 26 445.5 c 128,-1,9
 15 446 15 446 12 445 c 1,10,-1
 17 485 l 1,11,-1
 67 485 l 2,12,13
 92 485 92 485 109.5 457 c 128,-1,14
 127 429 127 429 127 390 c 2,15,-1
 127 315 l 1,16,17
 143 322 143 322 159.5 326 c 128,-1,18
 176 330 176 330 192 330 c 0,19,20
 230 330 230 330 260.5 317 c 128,-1,21
 291 304 291 304 307 280 c 1,22,23
 322 306 322 306 344.5 320.5 c 128,-1,24
 367 335 367 335 392 335 c 0,25,26
 402 335 402 335 422 332.5 c 128,-1,27
 442 330 442 330 452 330 c 0,28,29
 465 330 465 330 474 331.5 c 128,-1,30
 483 333 483 333 487 335 c 1,31,-1
 482 290 l 1,32,33
 480 288 480 288 470 289 c 128,-1,34
 460 290 460 290 452 290 c 0,35,36
 442 290 442 290 422 292.5 c 128,-1,37
 402 295 402 295 392 295 c 0,38,39
 365 295 365 295 346 270 c 128,-1,40
 327 245 327 245 327 210 c 0,41,42
 322 147 322 147 266.5 83.5 c 128,-1,43
 211 20 211 20 162 20 c 1,44,-1
 162 20 l 1,0,1
127 100 m 1,45,46
 127 83 127 83 137.5 71.5 c 128,-1,47
 148 60 148 60 162 60 c 0,48,49
 205 60 205 60 241.5 111 c 128,-1,50
 278 162 278 162 292 240 c 1,51,52
 279 263 279 263 253.5 276.5 c 128,-1,53
 228 290 228 290 197 290 c 0,54,55
 172 290 172 290 153.5 285 c 128,-1,56
 135 280 135 280 127 270 c 1,57,-1
 127 100 l 1,58,-1
 127 100 l 1,45,46
EndSplineSet
EndChar

StartChar: ninebeng
Encoding: 2543 2543 128
Width: 499
GlyphClass: 2
Flags: W
LayerCount: 2
Fore
SplineSet
102 450 m 1,0,1
 102 462 102 462 108.5 476.5 c 128,-1,2
 115 491 115 491 127 505 c 1,3,-1
 162 485 l 1,4,5
 155 479 155 479 151 468.5 c 128,-1,6
 147 458 147 458 147 445 c 0,7,8
 147 415 147 415 182.5 383 c 128,-1,9
 218 351 218 351 277 330 c 0,10,11
 351 303 351 303 396.5 256.5 c 128,-1,12
 442 210 442 210 442 160 c 0,13,14
 442 103 442 103 404 59 c 128,-1,15
 366 15 366 15 307 5 c 1,16,-1
 272 30 l 1,17,18
 273 34 273 34 282.5 59.5 c 128,-1,19
 292 85 292 85 292 95 c 0,20,21
 292 136 292 136 262.5 165.5 c 128,-1,22
 233 195 233 195 192 195 c 0,23,24
 153 195 153 195 125 170 c 128,-1,25
 97 145 97 145 97 110 c 0,26,27
 97 90 97 90 108 73.5 c 128,-1,28
 119 57 119 57 137 50 c 1,29,30
 139 63 139 63 147.5 71.5 c 128,-1,31
 156 80 156 80 167 80 c 0,32,33
 184 80 184 80 195.5 71 c 128,-1,34
 207 62 207 62 207 50 c 0,35,36
 207 29 207 29 192.5 14.5 c 128,-1,37
 178 0 178 0 157 0 c 0,38,39
 116 0 116 0 86.5 32 c 128,-1,40
 57 64 57 64 57 110 c 0,41,42
 57 162 57 162 98 198.5 c 128,-1,43
 139 235 139 235 197 235 c 0,44,45
 253 235 253 235 292.5 195.5 c 128,-1,46
 332 156 332 156 332 100 c 0,47,48
 332 84 332 84 329.5 71.5 c 128,-1,49
 327 59 327 59 322 50 c 1,50,51
 356 62 356 62 376.5 92.5 c 128,-1,52
 397 123 397 123 397 160 c 0,53,54
 397 198 397 198 354.5 236.5 c 128,-1,55
 312 275 312 275 242 300 c 0,56,57
 179 323 179 323 140.5 364 c 128,-1,58
 102 405 102 405 102 450 c 1,59,-1
 102 450 l 1,0,1
EndSplineSet
EndChar

StartChar: u09F0
Encoding: 2544 2544 129
Width: 433
GlyphClass: 2
Flags: W
AnchorPoint: "BNAnchor-2" 341 -5 basechar 0
AnchorPoint: "BNAnchor-1" 323 0 basechar 0
AnchorPoint: "BNAnchor-0" 323 0 basechar 0
LayerCount: 2
Fore
SplineSet
308 0 m 1,0,1
 282 71 282 71 211 122 c 128,-1,2
 140 173 140 173 43 190 c 1,3,-1
 18 225 l 1,4,5
 63 290 63 290 136.5 337.5 c 128,-1,6
 210 385 210 385 303 410 c 1,7,-1
 303 465 l 1,8,-1
 -10 465 l 1,9,-1
 -10 500 l 1,10,-1
 443 500 l 1,11,-1
 443 465 l 1,12,-1
 343 465 l 1,13,-1
 343 0 l 1,14,-1
 308 0 l 1,15,-1
 308 0 l 1,0,1
303 240 m 1,16,-1
 303 370 l 1,17,18
 267 364 267 364 233.5 348.5 c 128,-1,19
 200 333 200 333 173 310 c 1,20,21
 197 304 197 304 230 286 c 128,-1,22
 263 268 263 268 303 240 c 1,23,-1
 303 240 l 1,16,-1
303 85 m 1,24,-1
 303 200 l 1,25,26
 250 237 250 237 208.5 258.5 c 128,-1,27
 167 280 167 280 138 285 c 1,28,29
 119 274 119 274 101.5 259 c 128,-1,30
 84 244 84 244 68 225 c 1,31,32
 143 212 143 212 204 175.5 c 128,-1,33
 265 139 265 139 303 85 c 1,34,-1
 303 85 l 1,24,-1
EndSplineSet
EndChar

StartChar: u09F1
Encoding: 2545 2545 130
Width: 450
GlyphClass: 2
Flags: W
AnchorPoint: "BNAnchor-2" 366 -5 basechar 0
AnchorPoint: "BNAnchor-1" 336 4 basechar 0
AnchorPoint: "BNAnchor-0" 340 0 basechar 0
LayerCount: 2
Fore
SplineSet
220 -20 m 1,0,1
 193 37 193 37 141 73 c 128,-1,2
 89 109 89 109 25 115 c 1,3,-1
 30 150 l 1,4,5
 105 143 105 143 165.5 103 c 128,-1,6
 226 63 226 63 255 0 c 1,7,-1
 220 -20 l 1,8,-1
 220 -20 l 1,0,1
325 0 m 1,9,10
 299 72 299 72 224 124.5 c 128,-1,11
 149 177 149 177 45 195 c 1,12,-1
 30 225 l 1,13,14
 83 301 83 301 158.5 350.5 c 128,-1,15
 234 400 234 400 320 415 c 1,16,-1
 320 465 l 1,17,-1
 -10 465 l 1,18,-1
 -10 500 l 1,19,-1
 460 500 l 1,20,-1
 460 465 l 1,21,-1
 360 465 l 1,22,-1
 360 0 l 1,23,-1
 325 0 l 1,24,-1
 325 0 l 1,9,10
320 85 m 1,25,-1
 320 375 l 1,26,27
 249 362 249 362 188 323 c 128,-1,28
 127 284 127 284 85 225 c 1,29,30
 160 212 160 212 221 175.5 c 128,-1,31
 282 139 282 139 320 85 c 1,32,-1
 320 85 l 1,25,-1
EndSplineSet
EndChar

StartChar: rupeemarkbeng
Encoding: 2546 2546 131
Width: 469
VWidth: 499
GlyphClass: 2
Flags: W
LayerCount: 2
Fore
SplineSet
415.491 -261.445 m 17,0,1
 345.395 -159.711 345.395 -159.711 254.127 -70.4463 c 1,2,-1
 77.8389 86.5449 l 1,3,-1
 32.7236 121.61 l 1,4,5
 46.8945 134.425 46.8945 134.425 97.3691 169.133 c 0,6,7
 104.165 174.096 104.165 174.096 112.415 159.871 c 1,8,9
 186.269 76.2568 186.269 76.2568 254.908 -12.4492 c 128,-1,10
 323.547 -101.154 323.547 -101.154 425.55 -245.176 c 1,11,-1
 428.698 -252.456 l 9,12,13
 415.491 -261.445 l 17,0,1
EndSplineSet
EndChar

StartChar: rupeesignbeng
Encoding: 2547 2547 132
Width: 383
VWidth: 499
GlyphClass: 2
Flags: W
LayerCount: 2
Fore
SplineSet
284 170 m 1,0,1
 272 167 272 167 266 167 c 0,2,3
 245 167 245 167 225.5 181 c 128,-1,4
 206 195 206 195 206 215 c 0,5,6
 206 236 206 236 222 250.5 c 128,-1,7
 238 265 238 265 261 265 c 0,8,9
 288 265 288 265 307 244.5 c 128,-1,10
 326 224 326 224 326 195 c 0,11,12
 326 162.645 326 162.645 302.807 108.394 c 0,13,14
 280.848 57.0273 280.848 57.0273 246.753 28.4902 c 0,15,16
 200.767 -9.69043 200.767 -9.69043 148.65 -0.046875 c 0,17,18
 118.199 5.58789 118.199 5.58789 95.3496 32.0566 c 0,19,20
 73.9678 58.1385 73.9678 58.1385 73.9678 102.687 c 2,21,-1
 73.9678 291.506 l 1,22,-1
 28.8945 291.506 l 1,23,-1
 28.8945 328.604 l 1,24,-1
 73.9678 328.604 l 1,25,-1
 73.9678 463.681 l 2,26,27
 73.9678 490.612 73.9678 490.612 58.9839 506.036 c 0,28,29
 51.2699 513.977 51.2699 513.977 28.8945 513.743 c 1,30,-1
 28.8945 556.427 l 1,31,-1
 45.0742 556.427 l 2,32,33
 70.501 556.427 70.501 556.427 95.3496 532.17 c 128,-1,34
 120.198 507.913 120.198 507.913 120.198 463.681 c 2,35,-1
 120.198 412.313 l 1,36,-1
 120.198 328.604 l 1,37,-1
 346.272 328.604 l 1,38,-1
 346.272 291.506 l 1,39,-1
 120.198 291.506 l 1,40,-1
 120.198 102.687 l 2,41,42
 120.198 48.5 120.198 48.5 160.65 38.0508 c 1,43,44
 203.079 34 203.079 34 230.5 64 c 0,45,46
 258.534 93 258.534 93 284 170 c 1,0,1
EndSplineSet
EndChar

StartChar: u09F4
Encoding: 2548 2548 133
Width: 404
VWidth: 499
GlyphClass: 2
Flags: W
LayerCount: 2
Fore
SplineSet
343.906 478.099 m 9,0,1
 358.474 471.539 l 17,2,-1
 356.637 463.822 l 1,3,4
 281.192 304.276 281.192 304.276 229 205 c 128,-1,5
 176.807 105.723 176.807 105.723 118.595 10.5537 c 1,6,7
 112.94 -4.88672 112.94 -4.88672 105.386 -1.17969 c 0,8,9
 49.6514 24.2363 49.6514 24.2363 33.4707 34.3955 c 1,10,-1
 71.8115 76.7617 l 1,11,-1
 218.16 261.98 l 1,12,13
 292.54 365.737 292.54 365.737 343.906 478.099 c 9,0,1
EndSplineSet
EndChar

StartChar: u09F5
Encoding: 2549 2549 134
Width: 478
VWidth: 499
GlyphClass: 2
Flags: W
LayerCount: 2
Fore
SplineSet
125.899 216.157 m 17,0,1
 127.581 212.392 127.581 212.392 128.934 207.641 c 128,-1,2
 130.286 202.89 130.286 202.89 131.154 197.966 c 0,3,4
 134.802 177.286 134.802 177.286 123.618 160.084 c 128,-1,5
 112.436 142.879 112.436 142.879 92.7412 139.407 c 0,6,7
 72.0596 135.761 72.0596 135.761 55 149 c 128,-1,8
 37.9424 162.236 37.9424 162.236 33.9482 184.889 c 0,9,10
 29.2607 211.479 29.2607 211.479 46.1504 233.75 c 0,11,12
 57.0957 248.183 57.0957 248.183 77.1914 256.336 c 0,13,14
 114.315 271.396 114.315 271.396 157.37 262.79 c 0,15,16
 201.439 254.042 201.439 254.042 220.834 216.309 c 0,17,18
 235.486 187.95 235.486 187.95 232.492 154.374 c 1,19,20
 239.081 151.662 239.081 151.662 320.036 296.392 c 0,21,22
 385.254 412.986 385.254 412.986 415.513 482.115 c 9,23,-1
 436.146 465.988 l 17,24,25
 350.653 276.564 350.653 276.564 312.491 206.816 c 0,26,27
 253.5 99 253.5 99 201.086 2.37207 c 1,28,29
 166.805 20.2715 166.805 20.2715 132.524 38.1699 c 1,30,31
 174.187 67.293 174.187 67.293 188.592 116.865 c 0,32,33
 198.725 149.924 198.725 149.924 192.426 173.698 c 0,34,35
 179.893 221.614 179.893 221.614 137.23 223.527 c 0,36,37
 125.46 224.056 125.46 224.056 123 223 c 25,38,-1
 125.899 216.157 l 17,0,1
EndSplineSet
EndChar

StartChar: u09F6
Encoding: 2550 2550 135
Width: 406
VWidth: 499
GlyphClass: 2
Flags: W
LayerCount: 2
Fore
SplineSet
32.1914 89.7969 m 1,0,-1
 32.8789 138.711 l 1,1,2
 50.9883 130.765 50.9883 130.765 114 155 c 0,3,4
 166 175 166 175 165 222.212 c 0,5,6
 162.062 274.142 162.062 274.142 126.399 280.112 c 1,7,8
 126.399 256.113 126.399 256.113 111.899 239.614 c 128,-1,9
 97.3994 223.113 97.3994 223.113 76.4004 223.114 c 256,10,11
 55.3994 223.113 55.3994 223.113 40.8994 239.613 c 128,-1,12
 26.4004 256.112 26.4004 256.112 26.3994 280.113 c 0,13,14
 26.3994 305.112 26.3994 305.112 43.8994 322.612 c 0,15,16
 57.7998 336.514 57.7998 336.514 86.3994 340.113 c 0,17,18
 181.4 349.332 181.4 349.332 202 251 c 0,19,20
 209.919 212.532 209.919 212.532 189 168 c 0,21,22
 171.978 131.762 171.978 131.762 138 120 c 0,23,24
 86 102 86 102 74 99 c 1,25,26
 105.383 34.0449 105.383 34.0449 164.781 74.4199 c 0,27,28
 262.512 140.594 262.512 140.594 367.465 491.105 c 9,29,-1
 389.425 476.838 l 17,30,31
 296.851 139.294 296.851 139.294 231.088 58.0557 c 9,32,33
 137.253 -70.2637 137.253 -70.2637 32.1914 89.7969 c 1,0,-1
EndSplineSet
EndChar

StartChar: u09F7
Encoding: 2551 2551 136
Width: 129
GlyphClass: 2
Flags: W
LayerCount: 2
Fore
SplineSet
43 0 m 1,0,-1
 43 500 l 1,1,-1
 83 500 l 1,2,-1
 83 0 l 1,3,-1
 43 0 l 1,4,-1
 43 0 l 1,0,-1
EndSplineSet
EndChar

StartChar: u09F8
Encoding: 2552 2552 137
Width: 411
VWidth: 499
GlyphClass: 2
Flags: W
LayerCount: 2
Fore
SplineSet
94 500 m 17,0,-1
 94 230 l 1,1,2
 143 288 143 288 205 325.5 c 128,-1,3
 267 363 267 363 334 375 c 1,4,-1
 359 345 l 1,5,6
 359 193 359 193 359 5 c 1,7,-1
 324 -5 l 1,8,9
 320 162 320 162 318 335 c 1,10,11
 253 316 253 316 192.5 270.5 c 128,-1,12
 132 225 132 225 94 170 c 1,13,-1
 54 190 l 1,14,-1
 54 500 l 9,15,-1
 94 500 l 17,0,-1
EndSplineSet
EndChar

StartChar: u09F9
Encoding: 2553 2553 138
Width: 302
VWidth: 499
GlyphClass: 2
Flags: W
LayerCount: 2
Fore
SplineSet
138.187 75.834 m 0,0,1
 107.718 75.834 107.718 75.834 78.0869 90.209 c 128,-1,2
 48.4541 104.585 48.4541 104.585 34.2646 134.263 c 128,-1,3
 20.0742 163.942 20.0742 163.942 20.0742 195.013 c 0,4,5
 20.0742 225.617 20.0742 225.617 34.2646 255.297 c 128,-1,6
 48.4541 284.975 48.4541 284.975 78.0869 299.351 c 128,-1,7
 107.718 313.727 107.718 313.727 138.187 313.727 c 0,8,9
 169.069 313.727 169.069 313.727 198.701 299.351 c 128,-1,10
 228.335 284.975 228.335 284.975 242.524 255.297 c 128,-1,11
 256.715 225.617 256.715 225.617 256.715 195.013 c 0,12,13
 256.715 163.942 256.715 163.942 242.524 134.263 c 128,-1,14
 228.335 104.585 228.335 104.585 198.701 90.209 c 128,-1,15
 169.069 75.834 169.069 75.834 138.187 75.834 c 0,0,1
136.934 112.263 m 128,-1,17
 161.545 112.263 161.545 112.263 178.109 122.255 c 128,-1,18
 194.673 132.249 194.673 132.249 203.666 150.653 c 128,-1,19
 212.658 169.059 212.658 169.059 212.658 196.402 c 128,-1,20
 212.658 223.748 212.658 223.748 203.666 242.153 c 128,-1,21
 194.673 260.56 194.673 260.56 178.109 270.551 c 128,-1,22
 161.545 280.543 161.545 280.543 136.934 280.543 c 128,-1,23
 112.323 280.543 112.323 280.543 95.7568 270.551 c 128,-1,24
 79.1934 260.56 79.1934 260.56 70.2012 242.153 c 128,-1,25
 61.2109 223.748 61.2109 223.748 61.2109 196.402 c 128,-1,26
 61.2109 169.059 61.2109 169.059 70.2012 150.653 c 128,-1,27
 79.1934 132.249 79.1934 132.249 95.7568 122.255 c 128,-1,16
 112.323 112.263 112.323 112.263 136.934 112.263 c 128,-1,17
EndSplineSet
EndChar

StartChar: issharbeng
Encoding: 2554 2554 139
Width: 471
GlyphClass: 2
Flags: W
LayerCount: 2
Fore
SplineSet
285.5 321.5 m 128,-1,1
 268.5 321.5 268.5 321.5 257 331 c 128,-1,2
 245.5 340.5 245.5 340.5 245.5 354.5 c 0,3,4
 245.5 369.5 245.5 369.5 258 380.5 c 128,-1,5
 270.5 391.5 270.5 391.5 288.5 391.5 c 0,6,7
 303.5 391.5 303.5 391.5 314.5 381 c 128,-1,8
 325.5 370.5 325.5 370.5 325.5 356.5 c 256,9,10
 325.5 342.5 325.5 342.5 314 332 c 128,-1,0
 302.5 321.5 302.5 321.5 285.5 321.5 c 128,-1,1
280 251 m 1,11,12
 179.513 253 179.513 253 125 461 c 1,13,-1
 168 467 l 1,14,15
 216.295 296.858 216.295 296.858 278 292 c 0,16,17
 330.282 287.884 330.282 287.884 391.506 367.442 c 128,-1,18
 452.73 447 452.73 447 489 507 c 1,19,-1
 524 487 l 1,20,21
 454 366 454 366 396 308.5 c 128,-1,22
 338 251 338 251 280 251 c 1,23,-1
 280 251 l 1,11,12
EndSplineSet
EndChar

StartChar: zerowidthnonjoiner
Encoding: 8204 8204 140
Width: 0
GlyphClass: 2
Flags: W
LayerCount: 2
Fore
SplineSet
0 -245 m 1,0,-1
 0 750 l 1,1,-1
 40 750 l 1,2,-1
 40 -245 l 1,3,-1
 0 -245 l 1,4,-1
 0 -245 l 1,0,-1
EndSplineSet
EndChar

StartChar: zerowidthjoiner
Encoding: 8205 8205 141
Width: 0
GlyphClass: 2
Flags: W
LayerCount: 2
Fore
SplineSet
0 -245 m 1,0,-1
 0 750 l 1,1,-1
 170 750 l 1,2,-1
 170 710 l 1,3,-1
 40 710 l 1,4,-1
 40 -245 l 1,5,-1
 0 -245 l 1,6,-1
 0 -245 l 1,0,-1
EndSplineSet
EndChar

StartChar: endash
Encoding: 8211 8211 142
Width: 500
GlyphClass: 2
Flags: W
LayerCount: 2
Fore
SplineSet
0 235 m 1,0,-1
 0 275 l 1,1,-1
 500 275 l 1,2,-1
 500 235 l 1,3,-1
 0 235 l 1,4,-1
 0 235 l 1,0,-1
EndSplineSet
EndChar

StartChar: emdash
Encoding: 8212 8212 143
Width: 1024
GlyphClass: 2
Flags: W
LayerCount: 2
Fore
SplineSet
0 235 m 1,0,-1
 0 275 l 1,1,-1
 1000 275 l 1,2,-1
 1000 235 l 1,3,-1
 0 235 l 1,4,-1
 0 235 l 1,0,-1
EndSplineSet
EndChar

StartChar: quoteleft
Encoding: 8216 8216 144
Width: 305
GlyphClass: 2
Flags: W
LayerCount: 2
Fore
SplineSet
160 415 m 1,0,1
 131 415 131 415 110.5 435.5 c 128,-1,2
 90 456 90 456 90 485 c 0,3,4
 90 535 90 535 117 579 c 128,-1,5
 144 623 144 623 190 650 c 1,6,-1
 215 620 l 1,7,8
 181 604 181 604 160.5 573 c 128,-1,9
 140 542 140 542 140 505 c 1,10,11
 143 510 143 510 151 512.5 c 128,-1,12
 159 515 159 515 170 515 c 0,13,14
 189 515 189 515 202 500.5 c 128,-1,15
 215 486 215 486 215 465 c 256,16,17
 215 444 215 444 199 429.5 c 128,-1,18
 183 415 183 415 160 415 c 1,19,-1
 160 415 l 1,0,1
EndSplineSet
EndChar

StartChar: quoteright
Encoding: 8217 8217 145
Width: 315
GlyphClass: 2
Flags: W
LayerCount: 2
Fore
SplineSet
115 355 m 1,0,-1
 95 390 l 1,1,2
 134 408 134 408 157 436.5 c 128,-1,3
 180 465 180 465 180 495 c 1,4,5
 176 488 176 488 166.5 484 c 128,-1,6
 157 480 157 480 145 480 c 0,7,8
 122 480 122 480 106 496 c 128,-1,9
 90 512 90 512 90 535 c 0,10,11
 90 560 90 560 109 577.5 c 128,-1,12
 128 595 128 595 155 595 c 0,13,14
 184 595 184 595 204.5 573 c 128,-1,15
 225 551 225 551 225 520 c 0,16,17
 225 468 225 468 195 423 c 128,-1,18
 165 378 165 378 115 355 c 1,19,-1
 115 355 l 1,0,-1
EndSplineSet
EndChar

StartChar: quotedblleft
Encoding: 8220 8220 146
Width: 435
GlyphClass: 2
Flags: W
LayerCount: 2
Fore
SplineSet
90 435 m 1,0,-1
 165 620 l 1,1,-1
 205 620 l 1,2,-1
 160 435 l 1,3,-1
 90 435 l 1,4,-1
 90 435 l 1,0,-1
230 435 m 1,5,-1
 305 620 l 1,6,-1
 345 620 l 1,7,-1
 300 435 l 1,8,-1
 230 435 l 1,9,-1
 230 435 l 1,5,-1
EndSplineSet
EndChar

StartChar: quotedblright
Encoding: 8221 8221 147
Width: 460
GlyphClass: 2
Flags: W
LayerCount: 2
Fore
SplineSet
90 435 m 1,0,-1
 150 635 l 1,1,-1
 230 635 l 1,2,-1
 135 435 l 1,3,-1
 90 435 l 1,4,-1
 90 435 l 1,0,-1
230 435 m 1,5,-1
 290 635 l 1,6,-1
 370 635 l 1,7,-1
 275 435 l 1,8,-1
 230 435 l 1,9,-1
 230 435 l 1,5,-1
EndSplineSet
EndChar

StartChar: ellipsis
Encoding: 8230 8230 148
Width: 810
GlyphClass: 2
Flags: W
LayerCount: 2
Fore
SplineSet
90 0 m 1,0,-1
 90 45 l 1,1,-1
 200 45 l 1,2,-1
 200 0 l 1,3,-1
 90 0 l 1,4,-1
 90 0 l 1,0,-1
350 0 m 1,5,-1
 350 45 l 1,6,-1
 460 45 l 1,7,-1
 460 0 l 1,8,-1
 350 0 l 1,9,-1
 350 0 l 1,5,-1
610 0 m 1,10,-1
 610 45 l 1,11,-1
 720 45 l 1,12,-1
 720 0 l 1,13,-1
 610 0 l 1,14,-1
 610 0 l 1,10,-1
EndSplineSet
EndChar

StartChar: minus
Encoding: 8722 8722 149
Width: 244
GlyphClass: 2
Flags: W
LayerCount: 2
Fore
SplineSet
7 240 m 1,0,-1
 7 275 l 1,1,-1
 237 275 l 1,2,-1
 237 240 l 1,3,-1
 7 240 l 1,4,-1
 7 240 l 1,0,-1
EndSplineSet
EndChar

StartChar: dottedcircle
Encoding: 9676 9676 150
Width: 720
GlyphClass: 2
Flags: W
AnchorPoint: "BNAnchor-2" 364 -12 basechar 0
AnchorPoint: "BNAnchor-1" 340 -5 basechar 0
AnchorPoint: "BNAnchor-0" 365 -2 basechar 0
LayerCount: 2
Fore
SplineSet
324 484 m 1,0,1
 324 499 324 499 334.5 509.5 c 128,-1,2
 345 520 345 520 360 520 c 256,3,4
 375 520 375 520 385.5 509.5 c 128,-1,5
 396 499 396 499 396 484 c 256,6,7
 396 469 396 469 385.5 458.5 c 128,-1,8
 375 448 375 448 360 448 c 256,9,10
 345 448 345 448 334.5 458.5 c 128,-1,11
 324 469 324 469 324 484 c 1,12,-1
 324 484 l 1,0,1
324 16 m 1,13,14
 324 31 324 31 334.5 41.5 c 128,-1,15
 345 52 345 52 360 52 c 256,16,17
 375 52 375 52 385.5 41.5 c 128,-1,18
 396 31 396 31 396 16 c 256,19,20
 396 1 396 1 385.5 -9.5 c 128,-1,21
 375 -20 375 -20 360 -20 c 256,22,23
 345 -20 345 -20 334.5 -9.5 c 128,-1,24
 324 1 324 1 324 16 c 1,25,-1
 324 16 l 1,13,14
90 250 m 1,26,27
 90 265 90 265 100.5 275.5 c 128,-1,28
 111 286 111 286 126 286 c 256,29,30
 141 286 141 286 151.5 275.5 c 128,-1,31
 162 265 162 265 162 250 c 256,32,33
 162 235 162 235 151.5 224.5 c 128,-1,34
 141 214 141 214 126 214 c 256,35,36
 111 214 111 214 100.5 224.5 c 128,-1,37
 90 235 90 235 90 250 c 1,38,-1
 90 250 l 1,26,27
558 250 m 1,39,40
 558 265 558 265 568.5 275.5 c 128,-1,41
 579 286 579 286 594 286 c 256,42,43
 609 286 609 286 619.5 275.5 c 128,-1,44
 630 265 630 265 630 250 c 256,45,46
 630 235 630 235 619.5 224.5 c 128,-1,47
 609 214 609 214 594 214 c 256,48,49
 579 214 579 214 568.5 224.5 c 128,-1,50
 558 235 558 235 558 250 c 1,51,-1
 558 250 l 1,39,40
122 133 m 1,52,53
 122 148 122 148 132.5 158.5 c 128,-1,54
 143 169 143 169 158 169 c 256,55,56
 173 169 173 169 183.5 158.5 c 128,-1,57
 194 148 194 148 194 133 c 256,58,59
 194 118 194 118 183.5 107.5 c 128,-1,60
 173 97 173 97 158 97 c 256,61,62
 143 97 143 97 132.5 107.5 c 128,-1,63
 122 118 122 118 122 133 c 1,64,-1
 122 133 l 1,52,53
527 367 m 1,65,66
 527 382 527 382 537.5 392.5 c 128,-1,67
 548 403 548 403 563 403 c 256,68,69
 578 403 578 403 588.5 392.5 c 128,-1,70
 599 382 599 382 599 367 c 256,71,72
 599 352 599 352 588.5 341.5 c 128,-1,73
 578 331 578 331 563 331 c 256,74,75
 548 331 548 331 537.5 341.5 c 128,-1,76
 527 352 527 352 527 367 c 1,77,-1
 527 367 l 1,65,66
441 453 m 1,78,79
 441 468 441 468 451.5 478.5 c 128,-1,80
 462 489 462 489 477 489 c 256,81,82
 492 489 492 489 502.5 478.5 c 128,-1,83
 513 468 513 468 513 453 c 256,84,85
 513 438 513 438 502.5 427.5 c 128,-1,86
 492 417 492 417 477 417 c 256,87,88
 462 417 462 417 451.5 427.5 c 128,-1,89
 441 438 441 438 441 453 c 1,90,-1
 441 453 l 1,78,79
207 48 m 1,91,92
 207 63 207 63 217.5 73.5 c 128,-1,93
 228 84 228 84 243 84 c 256,94,95
 258 84 258 84 268.5 73.5 c 128,-1,96
 279 63 279 63 279 48 c 256,97,98
 279 33 279 33 268.5 22 c 128,-1,99
 258 11 258 11 243 11 c 256,100,101
 228 11 228 11 217.5 22 c 128,-1,102
 207 33 207 33 207 48 c 1,103,-1
 207 48 l 1,91,92
122 367 m 1,104,105
 122 382 122 382 132.5 392.5 c 128,-1,106
 143 403 143 403 158 403 c 256,107,108
 173 403 173 403 183.5 392.5 c 128,-1,109
 194 382 194 382 194 367 c 256,110,111
 194 352 194 352 183.5 341.5 c 128,-1,112
 173 331 173 331 158 331 c 256,113,114
 143 331 143 331 132.5 341.5 c 128,-1,115
 122 352 122 352 122 367 c 1,116,-1
 122 367 l 1,104,105
527 133 m 1,117,118
 527 148 527 148 537.5 158.5 c 128,-1,119
 548 169 548 169 563 169 c 256,120,121
 578 169 578 169 588.5 158.5 c 128,-1,122
 599 148 599 148 599 133 c 256,123,124
 599 118 599 118 588.5 107.5 c 128,-1,125
 578 97 578 97 563 97 c 256,126,127
 548 97 548 97 537.5 107.5 c 128,-1,128
 527 118 527 118 527 133 c 1,129,-1
 527 133 l 1,117,118
207 453 m 1,130,131
 207 468 207 468 217.5 478.5 c 128,-1,132
 228 489 228 489 243 489 c 256,133,134
 258 489 258 489 268.5 478.5 c 128,-1,135
 279 468 279 468 279 453 c 256,136,137
 279 438 279 438 268.5 427.5 c 128,-1,138
 258 417 258 417 243 417 c 256,139,140
 228 417 228 417 217.5 427.5 c 128,-1,141
 207 438 207 438 207 453 c 1,142,-1
 207 453 l 1,130,131
441 48 m 1,143,144
 441 63 441 63 451.5 73.5 c 128,-1,145
 462 84 462 84 477 84 c 256,146,147
 492 84 492 84 502.5 73.5 c 128,-1,148
 513 63 513 63 513 48 c 256,149,150
 513 33 513 33 502.5 22 c 128,-1,151
 492 11 492 11 477 11 c 256,152,153
 462 11 462 11 451.5 22 c 128,-1,154
 441 33 441 33 441 48 c 1,155,-1
 441 48 l 1,143,144
EndSplineSet
EndChar

StartChar: yabeng_viramabeng.pstf
Encoding: 65537 -1 151
Width: 223
GlyphClass: 3
Flags: W
LayerCount: 2
Fore
SplineSet
80 -10 m 1,0,-1
 55 20 l 1,1,2
 92 37 92 37 113.5 68 c 128,-1,3
 135 99 135 99 135 135 c 0,4,5
 135 177 135 177 92.5 250 c 128,-1,6
 50 323 50 323 50 365 c 0,7,8
 50 390 50 390 60.5 416 c 128,-1,9
 71 442 71 442 90 465 c 1,10,-1
 -10 465 l 1,11,-1
 -10 500 l 1,12,-1
 233 500 l 1,13,-1
 233 465 l 1,14,-1
 135 465 l 1,15,16
 113 439 113 439 101.5 413 c 128,-1,17
 90 387 90 387 90 365 c 0,18,19
 90 323 90 323 132.5 250 c 128,-1,20
 175 177 175 177 175 135 c 0,21,22
 175 89 175 89 149 49.5 c 128,-1,23
 123 10 123 10 80 -10 c 1,24,-1
 80 -10 l 1,0,-1
EndSplineSet
Ligature2: "pstfPostBaseFormslookup6 subtable" viramabeng yabeng
Ligature2: "'pstf' Post Base Forms in Bengali lookup 13-1" yabeng viramabeng
EndChar

StartChar: kabeng_viramabeng_kabeng
Encoding: 65538 -1 152
Width: 566
GlyphClass: 2
Flags: W
AnchorPoint: "BNAnchor-2" 315 0 basechar 0
AnchorPoint: "BNAnchor-1" 315 0 basechar 0
AnchorPoint: "BNAnchor-0" 315 0 basechar 0
LayerCount: 2
Fore
SplineSet
295 0 m 1,0,1
 247 48 247 48 190 74 c 128,-1,2
 133 100 133 100 75 100 c 1,3,-1
 50 140 l 1,4,5
 61 153 61 153 82 170.5 c 128,-1,6
 103 188 103 188 135 210 c 1,7,8
 113 232 113 232 91 243.5 c 128,-1,9
 69 255 69 255 50 255 c 1,10,-1
 25 285 l 1,11,12
 64 341 64 341 135 376.5 c 128,-1,13
 206 412 206 412 295 420 c 1,14,-1
 295 465 l 1,15,-1
 -10 465 l 1,16,-1
 -10 500 l 1,17,-1
 576 500 l 1,18,-1
 576 465 l 1,19,-1
 335 465 l 1,20,-1
 335 420 l 1,21,22
 411 413 411 413 463 380 c 128,-1,23
 515 347 515 347 515 305 c 0,24,25
 515 282 515 282 500.5 266 c 128,-1,26
 486 250 486 250 465 250 c 0,27,28
 446 250 446 250 433 261.5 c 128,-1,29
 420 273 420 273 420 290 c 0,30,31
 420 305 420 305 434.5 316.5 c 128,-1,32
 449 328 449 328 470 330 c 1,33,34
 446 354 446 354 411 367 c 128,-1,35
 376 380 376 380 335 380 c 1,36,-1
 335 270 l 1,37,38
 411 263 411 263 463 225.5 c 128,-1,39
 515 188 515 188 515 140 c 0,40,41
 515 113 515 113 500.5 94 c 128,-1,42
 486 75 486 75 465 75 c 0,43,44
 446 75 446 75 433 88 c 128,-1,45
 420 101 420 101 420 120 c 256,46,47
 420 139 420 139 434.5 152 c 128,-1,48
 449 165 449 165 470 165 c 1,49,50
 453 195 453 195 416.5 212.5 c 128,-1,51
 380 230 380 230 335 230 c 1,52,-1
 335 0 l 1,53,-1
 295 0 l 1,54,-1
 295 0 l 1,0,1
295 50 m 1,55,-1
 295 230 l 1,56,57
 253 226 253 226 204.5 202 c 128,-1,58
 156 178 156 178 105 135 c 1,59,60
 148 135 148 135 197 113 c 128,-1,61
 246 91 246 91 295 50 c 1,62,-1
 295 50 l 1,55,-1
170 230 m 1,63,64
 208 248 208 248 239.5 258 c 128,-1,65
 271 268 271 268 295 270 c 1,66,-1
 295 380 l 1,67,68
 237 380 237 380 181.5 355.5 c 128,-1,69
 126 331 126 331 80 285 c 1,70,71
 105 281 105 281 128 266.5 c 128,-1,72
 151 252 151 252 170 230 c 1,73,-1
 170 230 l 1,63,64
EndSplineSet
Ligature2: "presPreBaseSubstitutionslookup7 subtable" kabeng_viramabeng kabeng
EndChar

StartChar: kabeng_viramabeng_ttabeng
Encoding: 65539 -1 153
Width: 464
GlyphClass: 2
Flags: W
AnchorPoint: "BNAnchor-2" 255 -12 basechar 0
AnchorPoint: "BNAnchor-1" 255 -5 basechar 0
AnchorPoint: "BNAnchor-0" 290 20 basechar 0
LayerCount: 2
Fore
SplineSet
238 -10 m 1,0,1
 178 -10 178 -10 135.5 19.5 c 128,-1,2
 93 49 93 49 93 90 c 0,3,4
 93 119 93 119 120.5 146.5 c 128,-1,5
 148 174 148 174 193 190 c 1,6,7
 168 234 168 234 123.5 259.5 c 128,-1,8
 79 285 79 285 28 285 c 1,9,-1
 18 325 l 1,10,11
 61 368 61 368 117 391.5 c 128,-1,12
 173 415 173 415 233 415 c 1,13,-1
 233 465 l 1,14,-1
 -10 465 l 1,15,-1
 -10 500 l 1,16,-1
 333 500 l 1,17,18
 333 533 333 533 311 556.5 c 128,-1,19
 289 580 289 580 258 580 c 0,20,21
 231 580 231 580 178 570 c 128,-1,22
 125 560 125 560 98 560 c 0,23,24
 61 560 61 560 34.5 580.5 c 128,-1,25
 8 601 8 601 8 630 c 0,26,27
 8 651 8 651 14.5 667 c 128,-1,28
 21 683 21 683 33 690 c 1,29,-1
 68 675 l 1,30,31
 58 663 58 663 53 653 c 128,-1,32
 48 643 48 643 48 635 c 0,33,34
 48 621 48 621 62.5 610.5 c 128,-1,35
 77 600 77 600 98 600 c 0,36,37
 124 600 124 600 175.5 610 c 128,-1,38
 227 620 227 620 253 620 c 0,39,40
 303 620 303 620 338 585 c 128,-1,41
 373 550 373 550 373 500 c 1,42,-1
 474 500 l 1,43,-1
 474 465 l 1,44,-1
 273 465 l 1,45,-1
 273 415 l 1,46,47
 335 415 335 415 379 372.5 c 128,-1,48
 423 330 423 330 423 270 c 0,49,50
 423 247 423 247 407 231 c 128,-1,51
 391 215 391 215 368 215 c 0,52,53
 347 215 347 215 332.5 228 c 128,-1,54
 318 241 318 241 318 260 c 0,55,56
 318 280 318 280 336.5 292 c 128,-1,57
 355 304 355 304 378 300 c 1,58,59
 372 333 372 333 342.5 354 c 128,-1,60
 313 375 313 375 273 375 c 1,61,-1
 273 225 l 2,62,63
 273 205 273 205 254 185.5 c 128,-1,64
 235 166 235 166 203 155 c 256,65,66
 171 144 171 144 152 124.5 c 128,-1,67
 133 105 133 105 133 85 c 0,68,69
 133 62 133 62 164 46 c 128,-1,70
 195 30 195 30 238 30 c 0,71,72
 269 30 269 30 294.5 43.5 c 128,-1,73
 320 57 320 57 333 80 c 1,74,75
 293 80 293 80 293 120 c 128,-1,76
 293 160 293 160 333 160 c 0,77,78
 354 160 354 160 368.5 145.5 c 128,-1,79
 383 131 383 131 383 110 c 0,80,81
 383 60 383 60 340.5 25 c 128,-1,82
 298 -10 298 -10 238 -10 c 1,83,-1
 238 -10 l 1,0,1
223 210 m 1,84,85
 228 212 228 212 230.5 220 c 128,-1,86
 233 228 233 228 233 240 c 2,87,-1
 233 375 l 1,88,89
 190 375 190 375 149 359.5 c 128,-1,90
 108 344 108 344 73 315 c 1,91,92
 125 306 125 306 164.5 278 c 128,-1,93
 204 250 204 250 223 210 c 1,94,-1
 223 210 l 1,84,85
EndSplineSet
Ligature2: "presPreBaseSubstitutionslookup7 subtable" kabeng_viramabeng ttabeng
EndChar

StartChar: kabeng_viramabeng_tabeng
Encoding: 65540 -1 154
Width: 747
GlyphClass: 2
Flags: W
AnchorPoint: "BNAnchor-2" 375 -32 basechar 0
AnchorPoint: "BNAnchor-1" 380 0 basechar 0
AnchorPoint: "BNAnchor-0" 375 0 basechar 0
LayerCount: 2
Fore
SplineSet
35 390 m 1,0,-1
 75 395 l 1,1,2
 89 240 89 240 171 135 c 128,-1,3
 253 30 253 30 360 30 c 0,4,5
 410 30 410 30 445 58 c 128,-1,6
 480 86 480 86 480 125 c 0,7,8
 480 159 480 159 460 184.5 c 128,-1,9
 440 210 440 210 410 215 c 1,10,11
 398 203 398 203 383.5 196.5 c 128,-1,12
 369 190 369 190 355 190 c 0,13,14
 336 190 336 190 323 201.5 c 128,-1,15
 310 213 310 213 310 230 c 256,16,17
 310 247 310 247 323 258.5 c 128,-1,18
 336 270 336 270 355 270 c 256,19,20
 374 270 374 270 388.5 266 c 128,-1,21
 403 262 403 262 410 255 c 1,22,23
 426 264 426 264 435.5 281.5 c 128,-1,24
 445 299 445 299 445 320 c 0,25,26
 445 349 445 349 413 369.5 c 128,-1,27
 381 390 381 390 335 390 c 0,28,29
 295 390 295 390 266 374.5 c 128,-1,30
 237 359 237 359 230 335 c 1,31,32
 250 342 250 342 267.5 332.5 c 128,-1,33
 285 323 285 323 285 305 c 0,34,35
 285 288 285 288 272 276.5 c 128,-1,36
 259 265 259 265 240 265 c 0,37,38
 219 265 219 265 204.5 281 c 128,-1,39
 190 297 190 297 190 320 c 0,40,41
 190 366 190 366 232.5 398 c 128,-1,42
 275 430 275 430 335 430 c 0,43,44
 381 430 381 430 420 408.5 c 128,-1,45
 459 387 459 387 480 350 c 1,46,47
 502 372 502 372 530.5 383.5 c 128,-1,48
 559 395 559 395 590 395 c 0,49,50
 642 395 642 395 678.5 361.5 c 128,-1,51
 715 328 715 328 715 280 c 0,52,53
 715 239 715 239 684 209.5 c 128,-1,54
 653 180 653 180 610 180 c 0,55,56
 585 180 585 180 567.5 193 c 128,-1,57
 550 206 550 206 550 225 c 0,58,59
 550 239 550 239 561.5 249.5 c 128,-1,60
 573 260 573 260 590 260 c 256,61,62
 607 260 607 260 618.5 248.5 c 128,-1,63
 630 237 630 237 630 220 c 1,64,65
 650 225 650 225 662.5 242 c 128,-1,66
 675 259 675 259 675 280 c 0,67,68
 675 311 675 311 650 333 c 128,-1,69
 625 355 625 355 590 355 c 0,70,71
 560 355 560 355 532.5 342 c 128,-1,72
 505 329 505 329 485 305 c 1,73,74
 485 291 485 291 477.5 274 c 128,-1,75
 470 257 470 257 455 240 c 1,76,77
 485 226 485 226 502.5 195 c 128,-1,78
 520 164 520 164 520 125 c 0,79,80
 520 69 520 69 473 29.5 c 128,-1,81
 426 -10 426 -10 360 -10 c 0,82,83
 237 -10 237 -10 143.5 105 c 128,-1,84
 50 220 50 220 35 390 c 1,85,-1
 35 390 l 1,0,-1
-10 465 m 1,86,-1
 -10 500 l 1,87,-1
 757 500 l 1,88,-1
 757 465 l 1,89,-1
 -10 465 l 1,90,-1
 -10 465 l 1,86,-1
EndSplineSet
Ligature2: "presPreBaseSubstitutionslookup7 subtable" kabeng_viramabeng tabeng
EndChar

StartChar: ka_virama_ta_virama_ra
Encoding: 65541 -1 155
Width: 747
GlyphClass: 2
Flags: W
AnchorPoint: "BNAnchor-2" 497 -145 basechar 0
AnchorPoint: "BNAnchor-1" 400 0 basechar 0
AnchorPoint: "BNAnchor-0" 405 0 basechar 0
LayerCount: 2
Fore
SplineSet
35 390 m 1,0,-1
 75 395 l 1,1,2
 89 240 89 240 171 135 c 128,-1,3
 253 30 253 30 360 30 c 0,4,5
 410 30 410 30 445 58 c 128,-1,6
 480 86 480 86 480 125 c 0,7,8
 480 159 480 159 460 184.5 c 128,-1,9
 440 210 440 210 410 215 c 1,10,11
 398 203 398 203 383.5 196.5 c 128,-1,12
 369 190 369 190 355 190 c 0,13,14
 336 190 336 190 323 201.5 c 128,-1,15
 310 213 310 213 310 230 c 256,16,17
 310 247 310 247 323 258.5 c 128,-1,18
 336 270 336 270 355 270 c 256,19,20
 374 270 374 270 388.5 266 c 128,-1,21
 403 262 403 262 410 255 c 1,22,23
 426 264 426 264 435.5 281.5 c 128,-1,24
 445 299 445 299 445 320 c 0,25,26
 445 349 445 349 413 369.5 c 128,-1,27
 381 390 381 390 335 390 c 0,28,29
 295 390 295 390 266 374.5 c 128,-1,30
 237 359 237 359 230 335 c 1,31,32
 250 342 250 342 267.5 332.5 c 128,-1,33
 285 323 285 323 285 305 c 0,34,35
 285 288 285 288 272 276.5 c 128,-1,36
 259 265 259 265 240 265 c 0,37,38
 219 265 219 265 204.5 281 c 128,-1,39
 190 297 190 297 190 320 c 0,40,41
 190 366 190 366 232.5 398 c 128,-1,42
 275 430 275 430 335 430 c 0,43,44
 381 430 381 430 420 408.5 c 128,-1,45
 459 387 459 387 480 350 c 1,46,47
 502 372 502 372 530.5 383.5 c 128,-1,48
 559 395 559 395 590 395 c 0,49,50
 642 395 642 395 678.5 361.5 c 128,-1,51
 715 328 715 328 715 280 c 0,52,53
 715 239 715 239 684 209.5 c 128,-1,54
 653 180 653 180 610 180 c 0,55,56
 585 180 585 180 567.5 193 c 128,-1,57
 550 206 550 206 550 225 c 0,58,59
 550 239 550 239 561.5 249.5 c 128,-1,60
 573 260 573 260 590 260 c 256,61,62
 607 260 607 260 618.5 248.5 c 128,-1,63
 630 237 630 237 630 220 c 1,64,65
 650 225 650 225 662.5 242 c 128,-1,66
 675 259 675 259 675 280 c 0,67,68
 675 311 675 311 650 333 c 128,-1,69
 625 355 625 355 590 355 c 0,70,71
 560 355 560 355 532.5 342 c 128,-1,72
 505 329 505 329 485 305 c 1,73,74
 485 291 485 291 477.5 274 c 128,-1,75
 470 257 470 257 455 240 c 1,76,77
 485 226 485 226 502.5 195 c 128,-1,78
 520 164 520 164 520 125 c 0,79,80
 520 115 520 115 518 104.5 c 128,-1,81
 516 94 516 94 512 84 c 1,82,-1
 512 -140 l 1,83,-1
 472 -140 l 1,84,85
 467 -120 467 -120 441.5 -107.5 c 128,-1,86
 416 -95 416 -95 382 -95 c 0,87,88
 350 -95 350 -95 289.5 -115 c 128,-1,89
 229 -135 229 -135 197 -135 c 0,90,91
 164 -135 164 -135 140.5 -107 c 128,-1,92
 117 -79 117 -79 117 -40 c 1,93,-1
 152 -40 l 1,94,95
 152 -63 152 -63 165 -79 c 128,-1,96
 178 -95 178 -95 197 -95 c 0,97,98
 229 -95 229 -95 289.5 -75 c 128,-1,99
 350 -55 350 -55 382 -55 c 256,100,101
 414 -55 414 -55 438.5 -64.5 c 128,-1,102
 463 -74 463 -74 472 -90 c 1,103,-1
 472 29 l 1,104,105
 449 10 449 10 420.5 0 c 128,-1,106
 392 -10 392 -10 360 -10 c 0,107,108
 237 -10 237 -10 143.5 105 c 128,-1,109
 50 220 50 220 35 390 c 1,110,-1
 35 390 l 1,0,-1
-10 465 m 1,111,-1
 -10 500 l 1,112,-1
 757 500 l 1,113,-1
 757 465 l 1,114,-1
 -10 465 l 1,115,-1
 -10 465 l 1,111,-1
EndSplineSet
Ligature2: "presPreBaseSubstitutionslookup7 subtable" kabeng viramabeng tabeng_viramabeng_rabeng
EndChar

StartChar: ka_virama_ta_virama_ba
Encoding: 65542 -1 156
Width: 672
GlyphClass: 2
Flags: W
AnchorPoint: "BNAnchor-2" 351 -189 basechar 0
AnchorPoint: "BNAnchor-1" 310 0 basechar 0
AnchorPoint: "BNAnchor-0" 350 4 basechar 0
LayerCount: 2
Fore
SplineSet
331 -195 m 1,0,1
 310 -158 310 -158 269.5 -136.5 c 128,-1,2
 229 -115 229 -115 181 -115 c 1,3,-1
 166 -80 l 1,4,5
 195 -51 195 -51 228 -29.5 c 128,-1,6
 261 -8 261 -8 296 5 c 1,7,8
 183 25 183 25 109.5 122.5 c 128,-1,9
 36 220 36 220 36 350 c 1,10,-1
 76 355 l 1,11,12
 76 225 76 225 149 132.5 c 128,-1,13
 222 40 222 40 326 40 c 0,14,15
 365 40 365 40 393 65 c 128,-1,16
 421 90 421 90 421 125 c 0,17,18
 421 154 421 154 403.5 174.5 c 128,-1,19
 386 195 386 195 361 195 c 1,20,21
 352 190 352 190 343.5 187.5 c 128,-1,22
 335 185 335 185 326 185 c 0,23,24
 307 185 307 185 294 195.5 c 128,-1,25
 281 206 281 206 281 220 c 256,26,27
 281 234 281 234 294 244.5 c 128,-1,28
 307 255 307 255 326 255 c 0,29,30
 333 255 333 255 341.5 252.5 c 128,-1,31
 350 250 350 250 361 245 c 1,32,33
 378 262 378 262 387 280 c 128,-1,34
 396 298 396 298 396 315 c 0,35,36
 396 346 396 346 369.5 368 c 128,-1,37
 343 390 343 390 306 390 c 0,38,39
 276 390 276 390 253 374.5 c 128,-1,40
 230 359 230 359 226 335 c 1,41,-1
 233 336 l 1,42,43
 253 336 253 336 267 324 c 128,-1,44
 281 312 281 312 281 295 c 0,45,46
 281 276 281 276 266.5 263 c 128,-1,47
 252 250 252 250 231 250 c 0,48,49
 208 250 208 250 192 267.5 c 128,-1,50
 176 285 176 285 176 310 c 0,51,52
 176 360 176 360 214 395 c 128,-1,53
 252 430 252 430 306 430 c 0,54,55
 354 430 354 430 390.5 407.5 c 128,-1,56
 427 385 427 385 436 350 c 1,57,58
 460 374 460 374 486 387 c 128,-1,59
 512 400 512 400 536 400 c 0,60,61
 579 400 579 400 610 370.5 c 128,-1,62
 641 341 641 341 641 300 c 256,63,64
 641 259 641 259 613 229.5 c 128,-1,65
 585 200 585 200 546 200 c 0,66,67
 521 200 521 200 503.5 214.5 c 128,-1,68
 486 229 486 229 486 250 c 0,69,70
 486 269 486 269 499 282 c 128,-1,71
 512 295 512 295 531 295 c 256,72,73
 550 295 550 295 563 283.5 c 128,-1,74
 576 272 576 272 576 255 c 1,75,76
 587 260 587 260 594 272.5 c 128,-1,77
 601 285 601 285 601 300 c 0,78,79
 601 325 601 325 582 342.5 c 128,-1,80
 563 360 563 360 536 360 c 0,81,82
 517 360 517 360 491 344.5 c 128,-1,83
 465 329 465 329 436 300 c 1,84,85
 437 285 437 285 426.5 265 c 128,-1,86
 416 245 416 245 396 225 c 1,87,88
 425 214 425 214 443 186.5 c 128,-1,89
 461 159 461 159 461 125 c 0,90,91
 461 88 461 88 436.5 56.5 c 128,-1,92
 412 25 412 25 371 10 c 1,93,-1
 371 -195 l 1,94,-1
 331 -195 l 1,95,-1
 331 -195 l 1,0,1
331 -140 m 1,96,-1
 331 -10 l 1,97,-1
 221 -80 l 1,98,99
 255 -86 255 -86 283.5 -101.5 c 128,-1,100
 312 -117 312 -117 331 -140 c 1,101,-1
 331 -140 l 1,96,-1
-10 465 m 1,102,-1
 -10 500 l 1,103,-1
 682 500 l 1,104,-1
 682 465 l 1,105,-1
 -10 465 l 1,106,-1
 -10 465 l 1,102,-1
EndSplineSet
Ligature2: "presPreBaseSubstitutionslookup7 subtable" kabeng viramabeng tabeng babeng_viramabeng
EndChar

StartChar: kabeng_viramabeng_nabeng
Encoding: 65543 -1 157
Width: 550
GlyphClass: 2
Flags: W
AnchorPoint: "BNAnchor-2" 325 -36 basechar 0
AnchorPoint: "BNAnchor-1" 321 0 basechar 0
AnchorPoint: "BNAnchor-0" 321 0 basechar 0
LayerCount: 2
Fore
SplineSet
43 255 m 1,0,1
 94 328 94 328 163 369 c 128,-1,2
 232 410 232 410 303 410 c 1,3,-1
 303 465 l 1,4,-1
 -10 465 l 1,5,-1
 -10 500 l 1,6,-1
 560 500 l 1,7,-1
 560 465 l 1,8,-1
 343 465 l 1,9,-1
 343 410 l 1,10,11
 417 404 417 404 467.5 359 c 128,-1,12
 518 314 518 314 518 255 c 0,13,14
 518 224 518 224 500.5 202 c 128,-1,15
 483 180 483 180 458 180 c 0,16,17
 437 180 437 180 422.5 193.5 c 128,-1,18
 408 207 408 207 408 226 c 128,-1,19
 408 245 408 245 423 258.5 c 128,-1,20
 438 272 438 272 460 272 c 0,21,22
 465 272 465 272 469.5 271.5 c 128,-1,23
 474 271 474 271 478 270 c 1,24,25
 470 313 470 313 432 341.5 c 128,-1,26
 394 370 394 370 343 370 c 1,27,-1
 343 -40 l 1,28,-1
 303 -40 l 1,29,30
 275 9 275 9 233.5 37 c 128,-1,31
 192 65 192 65 148 65 c 1,32,-1
 150 57 l 2,33,34
 151 53 151 53 151 49 c 0,35,36
 151 25 151 25 134.5 7.5 c 128,-1,37
 118 -10 118 -10 94 -10 c 0,38,39
 69 -10 69 -10 51 7.5 c 128,-1,40
 33 25 33 25 33 50 c 128,-1,41
 33 75 33 75 55 92.5 c 128,-1,42
 77 110 77 110 108 110 c 0,43,44
 170 110 170 110 221.5 86 c 128,-1,45
 273 62 273 62 303 20 c 1,46,-1
 303 65 l 1,47,48
 261 137 261 137 199.5 178.5 c 128,-1,49
 138 220 138 220 73 220 c 1,50,-1
 43 255 l 1,51,-1
 43 255 l 1,0,1
303 130 m 1,52,-1
 303 370 l 1,53,54
 253 374 253 374 197.5 343.5 c 128,-1,55
 142 313 142 313 93 255 c 1,56,57
 155 250 155 250 210 217 c 128,-1,58
 265 184 265 184 303 130 c 1,59,-1
 303 130 l 1,52,-1
EndSplineSet
Ligature2: "presPreBaseSubstitutionslookup7 subtable" kabeng_viramabeng nabeng
EndChar

StartChar: kabeng_viramabeng_mabeng
Encoding: 65544 -1 158
Width: 603
GlyphClass: 2
Flags: W
LayerCount: 2
Fore
SplineSet
473 0 m 1,0,1
 457 43 457 43 399.5 69 c 128,-1,2
 342 95 342 95 263 95 c 1,3,4
 265 71 265 71 250 53 c 128,-1,5
 235 35 235 35 213 35 c 0,6,7
 188 35 188 35 170.5 49.5 c 128,-1,8
 153 64 153 64 153 85 c 128,-1,9
 153 106 153 106 170 120.5 c 128,-1,10
 187 135 187 135 211 135 c 2,11,-1
 223 134 l 1,12,13
 209 185 209 185 158.5 219.5 c 128,-1,14
 108 254 108 254 38 260 c 1,15,-1
 18 300 l 1,16,17
 54 352 54 352 108 383.5 c 128,-1,18
 162 415 162 415 223 420 c 1,19,-1
 223 465 l 1,20,-1
 -10 465 l 1,21,-1
 -10 500 l 1,22,-1
 613 500 l 1,23,-1
 613 465 l 1,24,-1
 513 465 l 1,25,-1
 513 0 l 1,26,-1
 473 0 l 1,27,-1
 473 0 l 1,0,1
473 55 m 1,28,-1
 473 465 l 1,29,-1
 263 465 l 1,30,-1
 263 420 l 1,31,32
 327 420 327 420 372.5 382 c 128,-1,33
 418 344 418 344 418 290 c 0,34,35
 418 259 418 259 402 237 c 128,-1,36
 386 215 386 215 363 215 c 0,37,38
 344 215 344 215 331 226.5 c 128,-1,39
 318 238 318 238 318 255 c 0,40,41
 318 271 318 271 331 282 c 128,-1,42
 344 293 344 293 362 293 c 0,43,44
 366 293 366 293 370 292 c 2,45,-1
 378 290 l 1,46,47
 378 327 378 327 344.5 353.5 c 128,-1,48
 311 380 311 380 263 380 c 1,49,-1
 263 135 l 1,50,51
 341 128 341 128 396 107 c 128,-1,52
 451 86 451 86 473 55 c 1,53,-1
 473 55 l 1,28,-1
223 205 m 1,54,-1
 223 380 l 1,55,56
 177 376 177 376 135.5 354 c 128,-1,57
 94 332 94 332 63 295 c 1,58,59
 116 286 116 286 157.5 262.5 c 128,-1,60
 199 239 199 239 223 205 c 1,61,-1
 223 205 l 1,54,-1
EndSplineSet
Ligature2: "presPreBaseSubstitutionslookup7 subtable" kabeng_viramabeng mabeng
EndChar

StartChar: kabeng_viramabeng_rabeng
Encoding: 65545 -1 159
Width: 643
GlyphClass: 2
Flags: W
AnchorPoint: "BNAnchor-2" 390 0 basechar 0
AnchorPoint: "BNAnchor-1" 386 0 basechar 0
AnchorPoint: "BNAnchor-0" 386 0 basechar 0
LayerCount: 2
Fore
SplineSet
367 0 m 1,0,1
 364 34 364 34 334 57 c 128,-1,2
 304 80 304 80 262 80 c 0,3,4
 242 80 242 80 202 75 c 128,-1,5
 162 70 162 70 142 70 c 0,6,7
 99 70 99 70 68 101 c 128,-1,8
 37 132 37 132 37 175 c 0,9,10
 37 206 37 206 46 235.5 c 128,-1,11
 55 265 55 265 72 290 c 1,12,-1
 102 270 l 1,13,14
 90 253 90 253 83.5 228.5 c 128,-1,15
 77 204 77 204 77 175 c 0,16,17
 77 148 77 148 96 129 c 128,-1,18
 115 110 115 110 142 110 c 0,19,20
 162 110 162 110 202 115 c 128,-1,21
 242 120 242 120 262 120 c 0,22,23
 295 120 295 120 323 107 c 128,-1,24
 351 94 351 94 367 70 c 1,25,-1
 367 310 l 2,26,27
 367 341 367 341 352.5 363 c 128,-1,28
 338 385 338 385 317 385 c 0,29,30
 275 385 275 385 246.5 353.5 c 128,-1,31
 218 322 218 322 222 280 c 1,32,33
 228 284 228 284 235 286.5 c 128,-1,34
 242 289 242 289 248 289 c 0,35,36
 268 289 268 289 282.5 275 c 128,-1,37
 297 261 297 261 297 242 c 0,38,39
 297 225 297 225 282.5 212.5 c 128,-1,40
 268 200 268 200 247 200 c 0,41,42
 220 200 220 200 201 225 c 128,-1,43
 182 250 182 250 182 285 c 0,44,45
 182 343 182 343 221.5 384 c 128,-1,46
 261 425 261 425 317 425 c 0,47,48
 354 425 354 425 380.5 395.5 c 128,-1,49
 407 366 407 366 407 325 c 1,50,51
 423 349 423 349 449.5 362 c 128,-1,52
 476 375 476 375 507 375 c 0,53,54
 550 375 550 375 581 345.5 c 128,-1,55
 612 316 612 316 612 275 c 0,56,57
 612 236 612 236 585.5 208 c 128,-1,58
 559 180 559 180 522 180 c 0,59,60
 497 180 497 180 479.5 193 c 128,-1,61
 462 206 462 206 462 225 c 0,62,63
 462 239 462 239 472.5 249.5 c 128,-1,64
 483 260 483 260 497 260 c 0,65,66
 515 260 515 260 527.5 248 c 128,-1,67
 540 236 540 236 537 220 c 1,68,69
 552 223 552 223 562 238.5 c 128,-1,70
 572 254 572 254 572 275 c 0,71,72
 572 300 572 300 553 317.5 c 128,-1,73
 534 335 534 335 507 335 c 0,74,75
 468 335 468 335 439 309 c 128,-1,76
 410 283 410 283 407 245 c 2,77,-1
 407 0 l 1,78,-1
 367 0 l 1,79,-1
 367 0 l 1,0,1
-10 465 m 1,80,-1
 -10 500 l 1,81,-1
 653 500 l 1,82,-1
 653 465 l 1,83,-1
 -10 465 l 1,84,-1
 -10 465 l 1,80,-1
EndSplineSet
Ligature2: "vatuVattuVariantslookup8 subtable" kabeng glyph437
EndChar

StartChar: kabeng_viramabeng_labeng
Encoding: 65546 -1 160
Width: 602
GlyphClass: 2
Flags: W
AnchorPoint: "BNAnchor-2" 363 8 basechar 0
AnchorPoint: "BNAnchor-1" 360 0 basechar 0
AnchorPoint: "BNAnchor-0" 359 -4 basechar 0
LayerCount: 2
Fore
SplineSet
342 0 m 1,0,1
 342 25 342 25 326 42.5 c 128,-1,2
 310 60 310 60 287 60 c 0,3,4
 268 60 268 60 255 45.5 c 128,-1,5
 242 31 242 31 242 10 c 1,6,-1
 207 10 l 1,7,8
 207 45 207 45 182 70 c 128,-1,9
 157 95 157 95 122 95 c 0,10,11
 99 95 99 95 83 79 c 128,-1,12
 67 63 67 63 67 40 c 0,13,14
 67 25 67 25 75 12.5 c 128,-1,15
 83 0 83 0 97 -5 c 1,16,17
 99 6 99 6 107.5 13 c 128,-1,18
 116 20 116 20 127 20 c 0,19,20
 139 20 139 20 148 11 c 128,-1,21
 157 2 157 2 157 -10 c 0,22,23
 157 -24 157 -24 144 -34.5 c 128,-1,24
 131 -45 131 -45 112 -45 c 0,25,26
 77 -45 77 -45 52 -20 c 128,-1,27
 27 5 27 5 27 40 c 0,28,29
 27 77 27 77 55 103.5 c 128,-1,30
 83 130 83 130 122 130 c 0,31,32
 159 130 159 130 187.5 112 c 128,-1,33
 216 94 216 94 227 65 c 1,34,35
 237 80 237 80 253.5 88 c 128,-1,36
 270 96 270 96 289 96 c 0,37,38
 301 96 301 96 312.5 90.5 c 128,-1,39
 324 85 324 85 332 75 c 1,40,41
 311 134 311 134 247 173 c 128,-1,42
 183 212 183 212 97 220 c 1,43,-1
 77 255 l 1,44,45
 129 317 129 317 197 356.5 c 128,-1,46
 265 396 265 396 342 410 c 1,47,-1
 342 465 l 1,48,-1
 -10 465 l 1,49,-1
 -10 500 l 1,50,-1
 612 500 l 1,51,-1
 612 465 l 1,52,-1
 382 465 l 1,53,-1
 382 410 l 1,54,55
 459 410 459 410 513 366 c 128,-1,56
 567 322 567 322 567 260 c 0,57,58
 567 221 567 221 545 193 c 128,-1,59
 523 165 523 165 492 165 c 0,60,61
 473 165 473 165 460 178 c 128,-1,62
 447 191 447 191 447 210 c 0,63,64
 448 227 448 227 460.5 238.5 c 128,-1,65
 473 250 473 250 490 250 c 0,66,67
 502 250 502 250 511.5 247.5 c 128,-1,68
 521 245 521 245 527 240 c 1,69,70
 528 243 528 243 529 248.5 c 128,-1,71
 530 254 530 254 530 262 c 0,72,73
 530 311 530 311 486 343 c 128,-1,74
 442 375 442 375 382 370 c 1,75,-1
 382 0 l 1,76,-1
 342 0 l 1,77,-1
 342 0 l 1,0,1
342 130 m 1,78,-1
 342 370 l 1,79,80
 292 366 292 366 237.5 336 c 128,-1,81
 183 306 183 306 132 255 c 1,82,83
 200 249 200 249 256 216 c 128,-1,84
 312 183 312 183 342 130 c 1,85,-1
 342 130 l 1,78,-1
EndSplineSet
Ligature2: "presPreBaseSubstitutionslookup7 subtable" kabeng_viramabeng labeng
EndChar

StartChar: kabeng_viramabeng_babeng
Encoding: 65547 -1 161
Width: 552
GlyphClass: 2
Flags: W
AnchorPoint: "BNAnchor-2" 328 4 basechar 0
AnchorPoint: "BNAnchor-1" 324 -4 basechar 0
AnchorPoint: "BNAnchor-0" 328 0 basechar 0
LayerCount: 2
Fore
SplineSet
308 0 m 1,0,1
 280 41 280 41 220.5 67 c 128,-1,2
 161 93 161 93 83 100 c 1,3,-1
 53 130 l 1,4,5
 78 160 78 160 99.5 180 c 128,-1,6
 121 200 121 200 138 210 c 1,7,8
 124 224 124 224 100.5 233 c 128,-1,9
 77 242 77 242 48 245 c 1,10,-1
 23 280 l 1,11,12
 69 334 69 334 143 368 c 128,-1,13
 217 402 217 402 308 410 c 1,14,-1
 308 465 l 1,15,-1
 -10 465 l 1,16,-1
 -10 500 l 1,17,-1
 562 500 l 1,18,-1
 562 465 l 1,19,-1
 348 465 l 1,20,-1
 348 410 l 1,21,22
 420 410 420 410 471.5 367.5 c 128,-1,23
 523 325 523 325 523 265 c 0,24,25
 523 240 523 240 508.5 222.5 c 128,-1,26
 494 205 494 205 473 205 c 0,27,28
 454 205 454 205 441 216.5 c 128,-1,29
 428 228 428 228 428 245 c 256,30,31
 428 262 428 262 441 274 c 128,-1,32
 454 286 454 286 473 286 c 2,33,-1
 483 285 l 1,34,35
 476 322 476 322 438 346 c 128,-1,36
 400 370 400 370 348 370 c 1,37,-1
 348 0 l 1,38,-1
 308 0 l 1,39,-1
 308 0 l 1,0,1
308 50 m 1,40,-1
 308 240 l 1,41,42
 253 235 253 235 202 208 c 128,-1,43
 151 181 151 181 113 135 c 1,44,45
 177 129 177 129 227.5 107 c 128,-1,46
 278 85 278 85 308 50 c 1,47,-1
 308 50 l 1,40,-1
168 235 m 1,48,49
 211 255 211 255 246 266.5 c 128,-1,50
 281 278 281 278 308 280 c 1,51,-1
 308 370 l 1,52,53
 234 363 234 363 174.5 340 c 128,-1,54
 115 317 115 317 78 280 c 1,55,56
 105 275 105 275 128 263.5 c 128,-1,57
 151 252 151 252 168 235 c 1,58,-1
 168 235 l 1,48,49
EndSplineSet
Ligature2: "blwsBelowBaseSubstitutionslooku subtable" kabeng babeng_viramabeng
EndChar

StartChar: kabeng_viramabeng_ssabeng
Encoding: 65548 -1 162
Width: 623
GlyphClass: 2
Flags: W
AnchorPoint: "BNAnchor-2" 422 -5 basechar 0
AnchorPoint: "BNAnchor-1" 404 0 basechar 0
AnchorPoint: "BNAnchor-0" 400 0 basechar 0
LayerCount: 2
Fore
SplineSet
384 0 m 1,0,1
 376 46 376 46 341 83.5 c 128,-1,2
 306 121 306 121 254 140 c 1,3,4
 252 119 252 119 236 104.5 c 128,-1,5
 220 90 220 90 199 90 c 0,6,7
 176 90 176 90 160 103 c 128,-1,8
 144 116 144 116 144 135 c 0,9,10
 144 156 144 156 160 171 c 128,-1,11
 176 186 176 186 199 186 c 2,12,-1
 219 185 l 1,13,14
 227 231 227 231 202 269 c 128,-1,15
 177 307 177 307 134 315 c 1,16,17
 134 288 134 288 118 269 c 128,-1,18
 102 250 102 250 79 250 c 256,19,20
 56 250 56 250 40 263 c 128,-1,21
 24 276 24 276 24 295 c 0,22,23
 24 318 24 318 41 334.5 c 128,-1,24
 58 351 58 351 82 351 c 2,25,-1
 94 350 l 1,26,27
 94 386 94 386 76.5 417 c 128,-1,28
 59 448 59 448 29 465 c 1,29,-1
 -10 465 l 1,30,-1
 -10 500 l 1,31,-1
 633 500 l 1,32,-1
 633 465 l 1,33,-1
 424 465 l 1,34,-1
 424 335 l 1,35,36
 494 335 494 335 544 301.5 c 128,-1,37
 594 268 594 268 594 220 c 0,38,39
 594 185 594 185 573.5 160 c 128,-1,40
 553 135 553 135 524 135 c 0,41,42
 501 135 501 135 485 148 c 128,-1,43
 469 161 469 161 469 180 c 256,44,45
 469 199 469 199 483.5 212 c 128,-1,46
 498 225 498 225 519 225 c 0,47,48
 527 225 527 225 535 221 c 128,-1,49
 543 217 543 217 549 210 c 1,50,51
 565 238 565 238 523.5 266.5 c 128,-1,52
 482 295 482 295 424 295 c 1,53,-1
 424 0 l 1,54,-1
 384 0 l 1,55,-1
 384 0 l 1,0,1
384 90 m 1,56,-1
 384 295 l 1,57,58
 312 295 312 295 260.5 345 c 128,-1,59
 209 395 209 395 209 465 c 1,60,-1
 84 465 l 1,61,62
 108 449 108 449 121 418.5 c 128,-1,63
 134 388 134 388 134 350 c 1,64,65
 196 345 196 345 233 292.5 c 128,-1,66
 270 240 270 240 259 175 c 1,67,68
 299 168 299 168 332 145.5 c 128,-1,69
 365 123 365 123 384 90 c 1,70,-1
 384 90 l 1,56,-1
384 335 m 1,71,-1
 384 465 l 1,72,-1
 249 465 l 1,73,74
 249 411 249 411 288.5 373 c 128,-1,75
 328 335 328 335 384 335 c 1,76,-1
 384 335 l 1,71,-1
EndSplineSet
Ligature2: "akhnAkhandlookup2 subtable" kabeng viramabeng ssabeng
LCarets2: 2 0 0
EndChar

StartChar: ka_virama_ssa_virama_nna
Encoding: 65549 -1 163
Width: 640
GlyphClass: 2
Flags: W
AnchorPoint: "BNAnchor-2" 407 -52 basechar 0
AnchorPoint: "BNAnchor-1" 407 0 basechar 0
AnchorPoint: "BNAnchor-0" 407 0 basechar 0
LayerCount: 2
Fore
SplineSet
384 -50 m 1,0,1
 352 -12 352 -12 310 9 c 128,-1,2
 268 30 268 30 224 30 c 1,3,4
 229 26 229 26 231.5 19 c 128,-1,5
 234 12 234 12 234 4 c 0,6,7
 234 -18 234 -18 218 -34 c 128,-1,8
 202 -50 202 -50 179 -50 c 0,9,10
 154 -50 154 -50 136.5 -34 c 128,-1,11
 119 -18 119 -18 119 5 c 0,12,13
 119 32 119 32 145.5 51 c 128,-1,14
 172 70 172 70 209 70 c 0,15,16
 264 70 264 70 310 51.5 c 128,-1,17
 356 33 356 33 384 0 c 1,18,19
 373 60 373 60 338 103.5 c 128,-1,20
 303 147 303 147 254 160 c 1,21,22
 249 140 249 140 232 127.5 c 128,-1,23
 215 115 215 115 194 115 c 0,24,25
 169 115 169 115 151.5 129.5 c 128,-1,26
 134 144 134 144 134 165 c 0,27,28
 134 189 134 189 151.5 205.5 c 128,-1,29
 169 222 169 222 194 222 c 0,30,31
 201 222 201 222 209 220 c 128,-1,32
 217 218 217 218 224 215 c 1,33,34
 231 252 231 252 206.5 285.5 c 128,-1,35
 182 319 182 319 139 330 c 1,36,37
 139 303 139 303 123 284 c 128,-1,38
 107 265 107 265 84 265 c 0,39,40
 59 265 59 265 41.5 279.5 c 128,-1,41
 24 294 24 294 24 315 c 0,42,43
 24 342 24 342 45 359.5 c 128,-1,44
 66 377 66 377 94 375 c 1,45,46
 88 408 88 408 73.5 432 c 128,-1,47
 59 456 59 456 39 465 c 1,48,-1
 -10 465 l 1,49,-1
 -10 500 l 1,50,-1
 650 500 l 1,51,-1
 650 465 l 1,52,-1
 424 465 l 1,53,-1
 424 340 l 1,54,55
 501 340 501 340 555 299 c 128,-1,56
 609 258 609 258 609 200 c 0,57,58
 609 167 609 167 590 143.5 c 128,-1,59
 571 120 571 120 544 120 c 0,60,61
 521 120 521 120 505 134.5 c 128,-1,62
 489 149 489 149 489 170 c 0,63,64
 489 189 489 189 504.5 203 c 128,-1,65
 520 217 520 217 542 217 c 0,66,67
 549 217 549 217 556 215 c 128,-1,68
 563 213 563 213 569 210 c 1,69,70
 569 247 569 247 526.5 273.5 c 128,-1,71
 484 300 484 300 424 300 c 1,72,-1
 424 -50 l 1,73,-1
 384 -50 l 1,74,-1
 384 -50 l 1,0,1
384 95 m 1,75,-1
 384 305 l 1,76,77
 318 317 318 317 271.5 361 c 128,-1,78
 225 405 225 405 214 465 c 1,79,-1
 94 465 l 1,80,81
 108 451 108 451 118.5 428 c 128,-1,82
 129 405 129 405 134 375 c 1,83,84
 199 364 199 364 237 312.5 c 128,-1,85
 275 261 275 261 264 200 c 1,86,87
 303 190 303 190 334.5 162.5 c 128,-1,88
 366 135 366 135 384 95 c 1,89,-1
 384 95 l 1,75,-1
384 345 m 1,90,-1
 384 465 l 1,91,-1
 254 465 l 1,92,93
 262 420 262 420 297.5 387 c 128,-1,94
 333 354 333 354 384 345 c 1,95,-1
 384 345 l 1,90,-1
EndSplineSet
Ligature2: "presPreBaseSubstitutionslookup7 subtable" kabeng_viramabeng_ssabeng viramabeng nnabeng
EndChar

StartChar: ka_virama_ssa_virama_ma
Encoding: 65550 -1 164
Width: 668
GlyphClass: 2
Flags: W
LayerCount: 2
Fore
SplineSet
538 0 m 1,0,1
 520 50 520 50 472 80 c 128,-1,2
 424 110 424 110 363 110 c 1,3,4
 363 89 363 89 348.5 74.5 c 128,-1,5
 334 60 334 60 313 60 c 0,6,7
 290 60 290 60 274 74.5 c 128,-1,8
 258 89 258 89 258 110 c 0,9,10
 258 133 258 133 279 147.5 c 128,-1,11
 300 162 300 162 328 160 c 1,12,13
 323 190 323 190 299.5 212 c 128,-1,14
 276 234 276 234 243 240 c 1,15,16
 243 215 243 215 227 197.5 c 128,-1,17
 211 180 211 180 188 180 c 256,18,19
 165 180 165 180 149 193 c 128,-1,20
 133 206 133 206 133 225 c 0,21,22
 133 250 133 250 156 265 c 128,-1,23
 179 280 179 280 208 275 c 1,24,25
 211 305 211 305 185.5 327.5 c 128,-1,26
 160 350 160 350 123 350 c 1,27,28
 119 326 119 326 103.5 310.5 c 128,-1,29
 88 295 88 295 68 295 c 0,30,31
 45 295 45 295 29 309.5 c 128,-1,32
 13 324 13 324 13 345 c 0,33,34
 13 368 13 368 35.5 383 c 128,-1,35
 58 398 58 398 88 395 c 1,36,37
 88 414 88 414 84 431.5 c 128,-1,38
 80 449 80 449 73 465 c 1,39,-1
 -10 465 l 1,40,-1
 -10 500 l 1,41,-1
 678 500 l 1,42,-1
 678 465 l 1,43,-1
 578 465 l 1,44,-1
 578 0 l 1,45,-1
 538 0 l 1,46,-1
 538 0 l 1,0,1
538 65 m 1,47,-1
 538 465 l 1,48,-1
 368 465 l 1,49,-1
 368 390 l 1,50,-1
 413 390 l 2,51,52
 450 390 450 390 476.5 363.5 c 128,-1,53
 503 337 503 337 503 300 c 0,54,55
 503 267 503 267 482.5 243.5 c 128,-1,56
 462 220 462 220 433 220 c 0,57,58
 414 220 414 220 401 230.5 c 128,-1,59
 388 241 388 241 388 255 c 256,60,61
 388 269 388 269 398 279.5 c 128,-1,62
 408 290 408 290 422 290 c 0,63,64
 432 290 432 290 440.5 284.5 c 128,-1,65
 449 279 449 279 453 270 c 1,66,67
 458 275 458 275 460.5 282.5 c 128,-1,68
 463 290 463 290 463 300 c 0,69,70
 463 321 463 321 450 335.5 c 128,-1,71
 437 350 437 350 418 350 c 2,72,-1
 368 350 l 1,73,-1
 368 155 l 1,74,75
 422 150 422 150 466.5 126.5 c 128,-1,76
 511 103 511 103 538 65 c 1,77,-1
 538 65 l 1,47,-1
328 225 m 1,78,-1
 328 350 l 1,79,-1
 293 350 l 2,80,81
 260 350 260 350 236.5 373.5 c 128,-1,82
 213 397 213 397 213 430 c 2,83,-1
 213 465 l 1,84,-1
 118 465 l 1,85,86
 123 451 123 451 125.5 432.5 c 128,-1,87
 128 414 128 414 128 390 c 1,88,89
 184 385 184 385 219.5 350 c 128,-1,90
 255 315 255 315 248 273 c 1,91,92
 273 269 273 269 294 256.5 c 128,-1,93
 315 244 315 244 328 225 c 1,94,-1
 328 225 l 1,78,-1
293 390 m 1,95,-1
 328 390 l 1,96,-1
 328 465 l 1,97,-1
 258 465 l 1,98,-1
 258 430 l 2,99,100
 258 413 258 413 268.5 401.5 c 128,-1,101
 279 390 279 390 293 390 c 1,102,-1
 293 390 l 1,95,-1
EndSplineSet
Ligature2: "presPreBaseSubstitutionslookup7 subtable" kabeng_viramabeng_ssabeng viramabeng mabeng
EndChar

StartChar: ka_virama_ssa_virama_ra
Encoding: 65551 -1 165
Width: 641
GlyphClass: 2
Flags: W
AnchorPoint: "BNAnchor-2" 426 -4 basechar 0
AnchorPoint: "BNAnchor-1" 423 0 basechar 0
AnchorPoint: "BNAnchor-0" 423 0 basechar 0
LayerCount: 2
Fore
SplineSet
402 0 m 1,0,1
 402 12 402 12 377.5 21 c 128,-1,2
 353 30 353 30 318 30 c 0,3,4
 287 30 287 30 228 15 c 128,-1,5
 169 0 169 0 138 0 c 0,6,7
 99 0 99 0 71 33.5 c 128,-1,8
 43 67 43 67 43 115 c 1,9,-1
 83 115 l 1,10,11
 83 84 83 84 99 62 c 128,-1,12
 115 40 115 40 138 40 c 0,13,14
 169 40 169 40 228 55 c 128,-1,15
 287 70 287 70 318 70 c 0,16,17
 335 70 335 70 350 67.5 c 128,-1,18
 365 65 365 65 377 61 c 1,19,20
 359 87 359 87 332 107.5 c 128,-1,21
 305 128 305 128 272 140 c 1,22,23
 270 119 270 119 254 104.5 c 128,-1,24
 238 90 238 90 217 90 c 0,25,26
 194 90 194 90 178 103 c 128,-1,27
 162 116 162 116 162 135 c 0,28,29
 162 156 162 156 178 171 c 128,-1,30
 194 186 194 186 217 186 c 2,31,-1
 237 184 l 1,32,33
 245 231 245 231 220 269 c 128,-1,34
 195 307 195 307 152 315 c 1,35,36
 152 288 152 288 136 269 c 128,-1,37
 120 250 120 250 97 250 c 256,38,39
 74 250 74 250 58 264.5 c 128,-1,40
 42 279 42 279 42 300 c 256,41,42
 42 321 42 321 59 336 c 128,-1,43
 76 351 76 351 100 351 c 2,44,-1
 112 350 l 1,45,46
 112 386 112 386 94.5 417 c 128,-1,47
 77 448 77 448 47 465 c 1,48,-1
 20 465 l 1,49,-1
 20 500 l 1,50,-1
 651 500 l 1,51,-1
 651 465 l 1,52,-1
 442 465 l 1,53,-1
 442 335 l 1,54,55
 512 335 512 335 562 301.5 c 128,-1,56
 612 268 612 268 612 220 c 0,57,58
 612 185 612 185 591.5 160 c 128,-1,59
 571 135 571 135 542 135 c 0,60,61
 519 135 519 135 503 148 c 128,-1,62
 487 161 487 161 487 180 c 256,63,64
 487 199 487 199 501.5 212 c 128,-1,65
 516 225 516 225 537 225 c 0,66,67
 545 225 545 225 553 221 c 128,-1,68
 561 217 561 217 567 210 c 1,69,70
 583 238 583 238 541.5 266.5 c 128,-1,71
 500 295 500 295 442 295 c 1,72,-1
 442 0 l 1,73,-1
 402 0 l 1,74,-1
 402 0 l 1,0,1
402 90 m 1,75,-1
 402 295 l 1,76,77
 330 295 330 295 278.5 345 c 128,-1,78
 227 395 227 395 227 465 c 1,79,-1
 102 465 l 1,80,81
 126 449 126 449 139 418.5 c 128,-1,82
 152 388 152 388 152 350 c 1,83,84
 214 345 214 345 251 292.5 c 128,-1,85
 288 240 288 240 277 175 c 1,86,87
 316 167 316 167 348.5 145 c 128,-1,88
 381 123 381 123 402 90 c 1,89,-1
 402 90 l 1,75,-1
402 335 m 1,90,-1
 402 465 l 1,91,-1
 267 465 l 1,92,93
 267 411 267 411 306.5 373 c 128,-1,94
 346 335 346 335 402 335 c 1,95,-1
 402 335 l 1,90,-1
EndSplineSet
Ligature2: "presPreBaseSubstitutionslookup7 subtable" kabeng viramabeng ssabeng glyph437
EndChar

StartChar: ka_virama_ssa_virama_ba
Encoding: 65552 -1 166
Width: 619
GlyphClass: 2
Flags: W
AnchorPoint: "BNAnchor-2" 406 -108 basechar 0
AnchorPoint: "BNAnchor-1" 399 0 basechar 0
AnchorPoint: "BNAnchor-0" 403 0 basechar 0
LayerCount: 2
Fore
SplineSet
-10 465 m 1,0,-1
 -10 500 l 1,1,-1
 629 500 l 1,2,-1
 629 465 l 1,3,-1
 420 465 l 1,4,-1
 420 335 l 1,5,6
 490 335 490 335 540 303 c 128,-1,7
 590 271 590 271 590 225 c 0,8,9
 590 188 590 188 568 161.5 c 128,-1,10
 546 135 546 135 515 135 c 0,11,12
 492 135 492 135 476 148 c 128,-1,13
 460 161 460 161 460 180 c 256,14,15
 460 199 460 199 473 212 c 128,-1,16
 486 225 486 225 505 225 c 0,17,18
 516 225 516 225 526.5 220 c 128,-1,19
 537 215 537 215 545 205 c 1,20,21
 547 208 547 208 548 213 c 128,-1,22
 549 218 549 218 549 224 c 0,23,24
 549 253 549 253 511 274 c 128,-1,25
 473 295 473 295 420 295 c 1,26,-1
 420 -130 l 1,27,-1
 380 -130 l 1,28,29
 360 -95 360 -95 314.5 -75 c 128,-1,30
 269 -55 269 -55 210 -55 c 1,31,-1
 190 -20 l 1,32,33
 226 23 226 23 266.5 53.5 c 128,-1,34
 307 84 307 84 349 100 c 1,35,36
 331 114 331 114 305.5 124.5 c 128,-1,37
 280 135 280 135 250 140 c 1,38,39
 248 119 248 119 232 104.5 c 128,-1,40
 216 90 216 90 195 90 c 256,41,42
 174 90 174 90 159.5 104.5 c 128,-1,43
 145 119 145 119 145 140 c 0,44,45
 145 162 145 162 166.5 176 c 128,-1,46
 188 190 188 190 215 185 c 1,47,48
 223 231 223 231 198 269 c 128,-1,49
 173 307 173 307 130 315 c 1,50,51
 130 290 130 290 114 272.5 c 128,-1,52
 98 255 98 255 75 255 c 0,53,54
 54 255 54 255 39.5 268 c 128,-1,55
 25 281 25 281 25 300 c 0,56,57
 25 321 25 321 44 335.5 c 128,-1,58
 63 350 63 350 90 350 c 1,59,60
 82 379 82 379 68 408 c 128,-1,61
 54 437 54 437 35 465 c 1,62,-1
 -10 465 l 1,63,-1
 -10 465 l 1,0,-1
380 70 m 1,64,65
 345 60 345 60 311.5 37 c 128,-1,66
 278 14 278 14 250 -20 c 1,67,68
 302 -29 302 -29 336 -42 c 128,-1,69
 370 -55 370 -55 380 -70 c 1,70,-1
 380 70 l 1,71,-1
 380 70 l 1,64,65
380 115 m 1,72,-1
 380 295 l 1,73,74
 308 295 308 295 256.5 345 c 128,-1,75
 205 395 205 395 205 465 c 1,76,-1
 80 465 l 1,77,78
 101 428 101 428 113.5 399 c 128,-1,79
 126 370 126 370 130 350 c 1,80,81
 192 345 192 345 229 292.5 c 128,-1,82
 266 240 266 240 255 175 c 1,83,84
 303 167 303 167 335.5 151 c 128,-1,85
 368 135 368 135 380 115 c 1,86,-1
 380 115 l 1,72,-1
380 335 m 1,87,-1
 380 465 l 1,88,-1
 245 465 l 1,89,90
 245 411 245 411 284.5 373 c 128,-1,91
 324 335 324 335 380 335 c 1,92,-1
 380 335 l 1,87,-1
EndSplineSet
Ligature2: "presPreBaseSubstitutionslookup7 subtable" kabeng viramabeng ssabeng babeng_viramabeng
EndChar

StartChar: kabeng_viramabeng_sabeng
Encoding: 65553 -1 167
Width: 565
GlyphClass: 2
Flags: W
LayerCount: 2
Fore
SplineSet
440 0 m 1,0,1
 430 56 430 56 400.5 93 c 128,-1,2
 371 130 371 130 335 130 c 0,3,4
 318 130 318 130 298 115.5 c 128,-1,5
 278 101 278 101 260 75 c 256,6,7
 242 49 242 49 218 34.5 c 128,-1,8
 194 20 194 20 170 20 c 0,9,10
 131 20 131 20 103 51 c 128,-1,11
 75 82 75 82 75 125 c 1,12,-1
 80 150 l 1,13,-1
 125 140 l 1,14,15
 123 133 123 133 121.5 125.5 c 128,-1,16
 120 118 120 118 120 110 c 0,17,18
 120 89 120 89 134.5 74.5 c 128,-1,19
 149 60 149 60 170 60 c 0,20,21
 184 60 184 60 197.5 71 c 128,-1,22
 211 82 211 82 220 100 c 1,23,24
 202 169 202 169 152.5 214.5 c 128,-1,25
 103 260 103 260 40 265 c 1,26,-1
 25 310 l 1,27,28
 67 352 67 352 116 376.5 c 128,-1,29
 165 401 165 401 215 405 c 1,30,-1
 215 465 l 1,31,-1
 -10 465 l 1,32,-1
 -10 500 l 1,33,-1
 575 500 l 1,34,-1
 575 465 l 1,35,-1
 475 465 l 1,36,-1
 475 0 l 1,37,-1
 440 0 l 1,38,-1
 440 0 l 1,0,1
435 95 m 1,39,-1
 435 465 l 1,40,-1
 255 465 l 1,41,-1
 255 405 l 1,42,43
 314 400 314 400 354.5 365.5 c 128,-1,44
 395 331 395 331 395 285 c 0,45,46
 395 258 395 258 379 239 c 128,-1,47
 363 220 363 220 340 220 c 0,48,49
 321 220 321 220 308 230.5 c 128,-1,50
 295 241 295 241 295 255 c 0,51,52
 295 278 295 278 314 290.5 c 128,-1,53
 333 303 333 303 355 295 c 1,54,55
 355 321 355 321 326 341 c 128,-1,56
 297 361 297 361 255 365 c 1,57,-1
 255 130 l 1,58,59
 271 149 271 149 292 159.5 c 128,-1,60
 313 170 313 170 335 170 c 0,61,62
 365 170 365 170 392 149.5 c 128,-1,63
 419 129 419 129 435 95 c 1,64,-1
 435 95 l 1,39,-1
215 190 m 1,65,-1
 215 365 l 1,66,67
 175 362 175 362 139 345 c 128,-1,68
 103 328 103 328 75 300 c 1,69,70
 118 288 118 288 154.5 259.5 c 128,-1,71
 191 231 191 231 215 190 c 1,72,-1
 215 190 l 1,65,-1
EndSplineSet
Ligature2: "presPreBaseSubstitutionslookup7 subtable" kabeng_viramabeng sabeng
EndChar

StartChar: khabeng_viramabeng_rabeng
Encoding: 65554 -1 168
Width: 572
GlyphClass: 2
Flags: W
LayerCount: 2
Fore
SplineSet
442 0 m 1,0,1
 426 24 426 24 395.5 37 c 128,-1,2
 365 50 365 50 327 50 c 0,3,4
 304 50 304 50 262 35 c 128,-1,5
 220 20 220 20 197 20 c 0,6,7
 133 20 133 20 87.5 67 c 128,-1,8
 42 114 42 114 42 180 c 0,9,10
 42 207 42 207 46 227 c 128,-1,11
 50 247 50 247 57 260 c 1,12,-1
 92 245 l 1,13,14
 87 231 87 231 84.5 215 c 128,-1,15
 82 199 82 199 82 180 c 0,16,17
 82 130 82 130 115.5 95 c 128,-1,18
 149 60 149 60 197 60 c 0,19,20
 219 60 219 60 259.5 75 c 128,-1,21
 300 90 300 90 322 90 c 0,22,23
 356 90 356 90 385.5 78.5 c 128,-1,24
 415 67 415 67 437 45 c 1,25,26
 419 112 419 112 350 162.5 c 128,-1,27
 281 213 281 213 182 230 c 1,28,-1
 172 275 l 1,29,30
 244 275 244 275 295.5 314.5 c 128,-1,31
 347 354 347 354 347 410 c 0,32,33
 347 428 347 428 339 444 c 128,-1,34
 331 460 331 460 317 470 c 1,35,36
 293 428 293 428 254 404 c 128,-1,37
 215 380 215 380 172 380 c 0,38,39
 131 380 131 380 101.5 403.5 c 128,-1,40
 72 427 72 427 72 460 c 0,41,42
 72 481 72 481 86.5 495.5 c 128,-1,43
 101 510 101 510 122 510 c 256,44,45
 143 510 143 510 157.5 497 c 128,-1,46
 172 484 172 484 172 465 c 0,47,48
 172 453 172 453 165.5 442.5 c 128,-1,49
 159 432 159 432 147 425 c 1,50,51
 153 422 153 422 159.5 420 c 128,-1,52
 166 418 166 418 173 418 c 0,53,54
 194 418 194 418 216 430.5 c 128,-1,55
 238 443 238 443 257 465 c 1,56,57
 267 486 267 486 283 498 c 128,-1,58
 299 510 299 510 317 510 c 0,59,60
 346 510 346 510 366.5 480.5 c 128,-1,61
 387 451 387 451 387 410 c 0,62,63
 387 355 387 355 351 310 c 128,-1,64
 315 265 315 265 257 250 c 1,65,66
 319 233 319 233 367.5 199.5 c 128,-1,67
 416 166 416 166 442 120 c 1,68,-1
 442 560 l 1,69,-1
 482 560 l 1,70,-1
 482 500 l 1,71,-1
 582 500 l 1,72,-1
 582 465 l 1,73,-1
 482 465 l 1,74,-1
 482 0 l 1,75,-1
 442 0 l 1,76,-1
 442 0 l 1,0,1
EndSplineSet
Ligature2: "vatuVattuVariantslookup8 subtable" khabeng glyph437
EndChar

StartChar: khabeng_viramabeng_babeng
Encoding: 65555 -1 169
Width: 471
GlyphClass: 2
Flags: W
LayerCount: 2
Fore
SplineSet
-29 500 m 1,0,1
 -29 521 -29 521 -14.5 535.5 c 128,-1,2
 0 550 0 550 21 550 c 0,3,4
 40 550 40 550 53 539.5 c 128,-1,5
 66 529 66 529 66 515 c 0,6,7
 66 498 66 498 60.5 485.5 c 128,-1,8
 55 473 55 473 46 470 c 1,9,10
 50 467 50 467 53.5 465 c 128,-1,11
 57 463 57 463 60 463 c 0,12,13
 80 463 80 463 100.5 475.5 c 128,-1,14
 121 488 121 488 136 510 c 0,15,16
 149 529 149 529 163.5 539.5 c 128,-1,17
 178 550 178 550 191 550 c 0,18,19
 218 550 218 550 237 520.5 c 128,-1,20
 256 491 256 491 256 450 c 0,21,22
 256 396 256 396 226 352 c 128,-1,23
 196 308 196 308 146 290 c 1,24,25
 225 276 225 276 276 255 c 128,-1,26
 327 234 327 234 341 210 c 1,27,-1
 341 560 l 1,28,-1
 381 560 l 1,29,-1
 381 500 l 1,30,-1
 481 500 l 1,31,-1
 481 465 l 1,32,-1
 381 465 l 1,33,-1
 381 -45 l 1,34,-1
 341 -45 l 1,35,36
 308 13 308 13 249 46.5 c 128,-1,37
 190 80 190 80 121 80 c 1,38,-1
 106 120 l 1,39,40
 157 156 157 156 205 176 c 128,-1,41
 253 196 253 196 296 200 c 1,42,43
 264 227 264 227 206 241 c 128,-1,44
 148 255 148 255 71 255 c 1,45,-1
 61 300 l 1,46,47
 128 312 128 312 172 356 c 128,-1,48
 216 400 216 400 216 455 c 0,49,50
 216 473 216 473 209.5 487.5 c 128,-1,51
 203 502 203 502 191 510 c 1,52,53
 163 470 163 470 128.5 447.5 c 128,-1,54
 94 425 94 425 61 425 c 0,55,56
 24 425 24 425 -2.5 447 c 128,-1,57
 -29 469 -29 469 -29 500 c 1,58,-1
 -29 500 l 1,0,1
341 15 m 1,59,-1
 341 170 l 1,60,61
 299 170 299 170 256.5 156 c 128,-1,62
 214 142 214 142 176 115 c 1,63,64
 228 106 228 106 271 80 c 128,-1,65
 314 54 314 54 341 15 c 1,66,-1
 341 15 l 1,59,-1
EndSplineSet
Ligature2: "blwsBelowBaseSubstitutionslooku subtable" khabeng babeng_viramabeng
EndChar

StartChar: ga_zerowidthnonjoiner_uvowel
Encoding: 65556 -1 170
Width: 682
GlyphClass: 2
Flags: W
LayerCount: 2
Fore
SplineSet
407 -10 m 1,0,1
 269 -10 269 -10 161 87.5 c 128,-1,2
 53 185 53 185 27 335 c 1,3,-1
 67 345 l 1,4,5
 91 208 91 208 187.5 119 c 128,-1,6
 284 30 284 30 407 30 c 0,7,8
 473 30 473 30 520 61 c 128,-1,9
 567 92 567 92 567 135 c 0,10,11
 567 160 567 160 555 181.5 c 128,-1,12
 543 203 543 203 522 215 c 1,13,14
 510 205 510 205 498.5 200 c 128,-1,15
 487 195 487 195 477 195 c 0,16,17
 456 195 456 195 441.5 206.5 c 128,-1,18
 427 218 427 218 427 235 c 256,19,20
 427 252 427 252 440 263.5 c 128,-1,21
 453 275 453 275 472 275 c 0,22,23
 480 275 480 275 499 266 c 128,-1,24
 518 257 518 257 522 255 c 1,25,26
 548 281 548 281 562.5 312.5 c 128,-1,27
 577 344 577 344 577 375 c 0,28,29
 577 414 577 414 558 442 c 128,-1,30
 539 470 539 470 512 470 c 0,31,32
 481 470 481 470 459 442 c 128,-1,33
 437 414 437 414 437 375 c 1,34,-1
 397 375 l 1,35,36
 390 416 390 416 357.5 443 c 128,-1,37
 325 470 325 470 282 470 c 0,38,39
 245 470 245 470 217 446 c 128,-1,40
 189 422 189 422 182 385 c 1,41,42
 194 399 194 399 211 407 c 128,-1,43
 228 415 228 415 247 415 c 0,44,45
 288 415 288 415 317.5 387 c 128,-1,46
 347 359 347 359 347 320 c 0,47,48
 347 276 347 276 313 234 c 128,-1,49
 279 192 279 192 222 165 c 1,50,-1
 202 200 l 1,51,52
 250 222 250 222 278.5 254.5 c 128,-1,53
 307 287 307 287 307 320 c 0,54,55
 307 343 307 343 289.5 359 c 128,-1,56
 272 375 272 375 247 375 c 0,57,58
 231 375 231 375 207 352.5 c 128,-1,59
 183 330 183 330 167 330 c 0,60,61
 155 330 155 330 146 339 c 128,-1,62
 137 348 137 348 137 360 c 0,63,64
 143 424 143 424 183 467 c 128,-1,65
 223 510 223 510 277 510 c 0,66,67
 325 510 325 510 363 489.5 c 128,-1,68
 401 469 401 469 417 435 c 1,69,70
 433 469 433 469 459 489.5 c 128,-1,71
 485 510 485 510 512 510 c 0,72,73
 555 510 555 510 586 472 c 128,-1,74
 617 434 617 434 617 380 c 0,75,76
 617 337 617 337 601.5 300.5 c 128,-1,77
 586 264 586 264 557 240 c 1,78,79
 581 216 581 216 594 188.5 c 128,-1,80
 607 161 607 161 607 135 c 0,81,82
 607 75 607 75 548.5 32.5 c 128,-1,83
 490 -10 490 -10 407 -10 c 1,84,-1
 407 -10 l 1,0,1
EndSplineSet
Ligature2: "blwsBelowBaseSubstitutionslooku subtable" gabeng zerowidthnonjoiner uvowelbeng
Ligature2: "blwsBelowBaseSubstitutionslooku subtable" gabeng uvowelbeng
EndChar

